<?xml version="1.0" encoding="UTF-8" standalone="no"?>
<!-- Created with Inkscape (http://www.inkscape.org/) -->

<svg
   xmlns:dc="http://purl.org/dc/elements/1.1/"
   xmlns:cc="http://creativecommons.org/ns#"
   xmlns:rdf="http://www.w3.org/1999/02/22-rdf-syntax-ns#"
   xmlns:svg="http://www.w3.org/2000/svg"
   xmlns="http://www.w3.org/2000/svg"
   xmlns:sodipodi="http://sodipodi.sourceforge.net/DTD/sodipodi-0.dtd"
   xmlns:inkscape="http://www.inkscape.org/namespaces/inkscape"
   width="81.826614mm"
   height="80.97316mm"
   viewBox="0 0 81.826614 80.97316"
   version="1.1"
   id="svg8"
   inkscape:version="0.92.2 5c3e80d, 2017-08-06"
   sodipodi:docname="Cartoon Dog 01.svg">
  <defs
     id="defs2" />
  <sodipodi:namedview
     id="base"
     pagecolor="#ffffff"
     bordercolor="#666666"
     borderopacity="1.0"
     inkscape:pageopacity="0.0"
     inkscape:pageshadow="2"
     inkscape:zoom="1.4"
     inkscape:cx="171.77785"
     inkscape:cy="145.52012"
     inkscape:document-units="mm"
     inkscape:current-layer="layer1"
     showgrid="false"
     fit-margin-top="0"
     fit-margin-left="0"
     fit-margin-right="0"
     fit-margin-bottom="0"
     inkscape:window-width="1440"
     inkscape:window-height="808"
     inkscape:window-x="0"
     inkscape:window-y="1"
     inkscape:window-maximized="1" />
  <metadata
     id="metadata5">
    <rdf:RDF>
      <cc:Work
         rdf:about="">
        <dc:format>image/svg+xml</dc:format>
        <dc:type
           rdf:resource="http://purl.org/dc/dcmitype/StillImage" />
        <dc:title></dc:title>
      </cc:Work>
    </rdf:RDF>
  </metadata>
  <g
     inkscape:label="Layer 1"
     inkscape:groupmode="layer"
     id="layer1"
     transform="translate(-60.383776,-98.802848)">
    <g
       id="g75"
       transform="translate(-113.39285,-99.502232)">
      <path
         style="fill:#fefefe;stroke-width:0.03409396"
         d="m 173.77773,238.79166 v -40.48658 h 40.91275 40.91276 v 40.48658 40.48658 h -40.91276 -40.91275 z"
         id="path91"
         inkscape:connector-curvature="0" />
      <path
         style="fill:#b7b7b7;stroke-width:0.03409396"
         d="m 219.54382,279.0822 c -0.28221,-0.30403 -0.55721,-0.65639 -0.55539,-0.71163 0.001,-0.0357 0.10869,-0.15434 0.24347,-0.26857 0.63099,-0.5348 1.64483,-1.57402 2.29503,-2.35249 2.315,-2.77169 3.78281,-6.2178 4.18953,-9.8361 0.17524,-1.55905 0.1759,-3.27419 0.002,-4.84135 -0.14449,-1.30101 -0.42199,-2.68264 -0.75248,-3.74648 -0.0997,-0.3208 -0.11275,-0.3956 -0.0754,-0.43066 0.0249,-0.0233 0.24076,-0.11525 0.47972,-0.20426 0.35566,-0.13248 0.44373,-0.15414 0.4856,-0.11939 0.0852,0.0707 0.3802,1.08962 0.578,1.99632 0.88286,4.04704 0.65729,8.25976 -0.63705,11.89736 -0.98922,2.78009 -2.55547,5.23677 -4.72971,7.41862 -0.60626,0.60837 -1.35197,1.29239 -1.40897,1.29239 -0.015,0 -0.0664,-0.0422 -0.11423,-0.0938 z m 28.12749,-0.20509 c -0.068,-0.0435 -0.62566,-0.73853 -0.62566,-0.7798 0,-0.0217 0.28767,-0.29197 0.63927,-0.60067 3.03431,-2.66413 4.88844,-5.06167 5.80242,-7.50301 0.58132,-1.55276 0.72646,-3.12958 0.42487,-4.61567 -0.2777,-1.36833 -0.93596,-2.69544 -1.99201,-4.0161 -0.42862,-0.53601 -1.46098,-1.57758 -2.04475,-2.06299 -0.89047,-0.74044 -1.93788,-1.47111 -3.00027,-2.09295 -0.53308,-0.31203 -1.88899,-1.01183 -2.27577,-1.17454 -0.11158,-0.047 -0.17899,-0.0962 -0.17899,-0.1307 0,-0.0785 0.34147,-0.90967 0.38498,-0.93712 0.0472,-0.0298 0.2443,0.0497 0.88439,0.3566 2.49142,1.19453 4.92757,2.94001 6.4872,4.64803 0.9152,1.00228 1.67581,2.11528 2.1426,3.13526 0.42325,0.92485 0.68638,1.84372 0.80953,2.827 0.062,0.49473 0.0531,1.57883 -0.0173,2.11383 -0.32214,2.44761 -1.54213,4.84558 -3.75982,7.39014 -0.46136,0.52936 -1.62258,1.70698 -2.24362,2.27529 -0.51636,0.47253 -1.35063,1.19382 -1.37983,1.19297 -0.01,-3.4e-4 -0.0357,-0.0118 -0.0572,-0.0256 z m -52.22692,-0.72702 c -2.90744,-1.73836 -4.78963,-3.67016 -5.79367,-5.94635 -0.85693,-1.9427 -0.99089,-4.09568 -0.39659,-6.37433 0.6258,-2.39945 2.05567,-4.96268 4.21339,-7.55305 0.83259,-0.99954 1.89629,-2.12672 2.84632,-3.0162 0.97917,-0.91677 1.79942,-1.62058 1.88868,-1.62058 0.0554,0 0.63428,0.74501 0.63425,0.81623 -1e-5,0.0292 -0.20329,0.22371 -0.45174,0.43216 -0.69351,0.58183 -1.30233,1.14701 -2.10529,1.95436 -2.83928,2.85483 -4.77538,5.71372 -5.6929,8.40624 -0.4009,1.17649 -0.58065,2.19587 -0.5801,3.28986 6.5e-4,1.32362 0.24683,2.39327 0.82148,3.5694 0.92623,1.89568 2.74056,3.66502 5.28423,5.15318 0.24824,0.14524 0.46538,0.28647 0.48253,0.31387 0.0429,0.0686 -0.41929,0.89812 -0.50812,0.91194 -0.0346,0.005 -0.32371,-0.14615 -0.64247,-0.33673 z m 25.34891,-22.16067 c -8.60037,-0.10593 -15.10808,-0.56389 -18.66644,-1.31359 -1.96311,-0.41361 -3.00874,-0.91598 -3.32932,-1.59958 l -0.0963,-0.20534 0.18697,-11.55708 c 0.10283,-6.35639 0.18703,-11.76509 0.1871,-12.01935 1.1e-4,-0.3164 0.0136,-0.48032 0.0428,-0.51945 0.0397,-0.0532 0.70078,-0.0208 9.58892,0.47075 5.25047,0.29036 11.51013,0.6363 13.91034,0.76875 22.58597,1.24634 23.74485,1.31237 23.78778,1.35527 0.11347,0.11341 0.0415,8.07588 -0.10994,12.16092 -0.25261,6.81442 -0.7149,10.29821 -1.47655,11.12734 -0.1319,0.14359 -0.44,0.35476 -0.61413,0.42092 -1.17844,0.44777 -7.43582,0.80194 -16.13213,0.91308 -2.83572,0.0362 -4.16178,0.0358 -7.27906,-0.003 z m 26.564,-23.41694 c -0.0521,-0.0322 -0.22823,-0.72288 -0.20187,-0.79157 0.0118,-0.0307 0.17766,-0.10758 0.39004,-0.18086 0.72068,-0.24867 1.49692,-0.66123 2.12852,-1.13127 0.37304,-0.27764 0.92736,-0.81432 1.11425,-1.07881 l 0.11157,-0.15791 -0.30761,-0.26439 c -0.16919,-0.14542 -0.30762,-0.27877 -0.30762,-0.29635 0,-0.0176 0.086,-0.13267 0.19103,-0.25575 0.22651,-0.26533 0.22078,-0.27221 -0.22947,-0.27588 -0.219,-0.002 -0.30511,-0.0156 -0.33704,-0.0541 -0.0541,-0.0652 -0.0156,-0.76332 0.0454,-0.82316 0.0301,-0.0295 0.19993,-0.0313 0.66843,-0.007 0.34547,0.0178 0.65053,0.0279 0.67792,0.0225 0.0288,-0.006 -0.20316,-0.24484 -0.55141,-0.56831 -0.33066,-0.30714 -0.60121,-0.58458 -0.60121,-0.61655 0,-0.0767 0.50711,-0.62117 0.56634,-0.60808 0.0253,0.006 0.30152,0.24797 0.61385,0.53862 0.31234,0.29065 0.58114,0.53357 0.59734,0.53982 0.0162,0.006 0.0295,-0.39749 0.0295,-0.89721 0,-0.5611 0.0135,-0.93379 0.0353,-0.97451 0.0317,-0.0592 0.0745,-0.066 0.41935,-0.066 0.25326,0 0.398,0.0139 0.42498,0.0409 0.0276,0.0276 0.0409,0.18335 0.0409,0.47732 0,0.24694 0.0138,0.4364 0.0318,0.4364 0.0175,0 0.0645,-0.046 0.10461,-0.10228 0.0401,-0.0563 0.1037,-0.10228 0.14143,-0.10228 0.0377,0 0.20545,0.0937 0.37271,0.20829 0.32926,0.22551 0.37065,0.30189 0.23067,0.42568 -0.0404,0.0357 -0.25518,0.27614 -0.47731,0.53426 -0.39729,0.46165 -0.40388,0.47204 -0.40388,0.63681 v 0.1675 l 0.17899,0.0187 c 0.0985,0.0103 0.5779,0.0349 1.06544,0.0547 0.9846,0.04 1.09568,0.0511 1.11445,0.11137 0.0271,0.0869 -0.0251,0.77327 -0.0616,0.80956 -0.0279,0.0278 -0.21021,0.0283 -0.67934,0.002 -0.35266,-0.0199 -0.64998,-0.0274 -0.6607,-0.0166 -0.0107,0.0107 0.13005,0.15782 0.31282,0.32689 0.18278,0.16907 0.33232,0.32253 0.33232,0.34102 0,0.0596 -0.5206,0.6076 -0.57661,0.60696 -0.0298,-3.4e-4 -0.26892,-0.20015 -0.53145,-0.44401 l -0.47731,-0.44339 -0.0171,0.48663 -0.0171,0.48662 -0.43379,0.01 c -0.48875,0.0107 -0.45687,0.0296 -0.47766,-0.28229 l -0.009,-0.13637 -0.11554,0.18751 c -0.60183,0.97679 -1.58974,1.84178 -2.84023,2.48683 -0.67271,0.34701 -1.53406,0.67494 -1.62507,0.61869 z m 4.59788,-3.90471 c 0,-0.41625 -0.0161,-0.48254 -0.10773,-0.44256 -0.0581,0.0254 -0.47186,0.50652 -0.47186,0.54877 0,0.0298 0.49909,0.31555 0.55402,0.31718 0.0141,4.2e-4 0.0256,-0.19011 0.0256,-0.42339 z m -54.45834,0.71312 c -0.68914,-0.13029 -1.27129,-0.4522 -1.84821,-1.02198 -0.53576,-0.52914 -0.91235,-1.06218 -1.39705,-1.97745 -0.10923,-0.20627 -0.24991,-0.46408 -0.3126,-0.5729 -0.0627,-0.10883 -0.114,-0.21112 -0.114,-0.22731 0,-0.0286 0.47155,-0.40816 0.65322,-0.52572 0.0873,-0.0565 0.0932,-0.0559 0.15864,0.0143 0.0374,0.0401 0.16409,0.25195 0.28154,0.47069 0.59996,1.11731 0.90047,1.57908 1.30745,2.00903 0.46206,0.48813 0.8782,0.73619 1.41877,0.84572 0.18937,0.0384 0.36645,0.0515 0.52835,0.0393 0.13394,-0.0101 0.26198,-0.007 0.28455,0.007 0.0226,0.0139 0.0707,0.21573 0.10694,0.44841 0.0562,0.36064 0.0589,0.43003 0.0186,0.47033 -0.0708,0.0708 -0.75264,0.0837 -1.08624,0.0206 z m -12.70149,-3.19764 c -0.0594,-0.0715 -0.78142,-7.98894 -0.73299,-8.03737 0.0205,-0.0205 4.15473,-0.89506 9.18724,-1.94352 5.0325,-1.04846 9.21393,-1.9197 9.29205,-1.9361 0.0781,-0.0164 0.1595,-0.019 0.18085,-0.006 0.036,0.0223 1.94411,8.29679 1.94428,8.43143 4e-5,0.0334 -0.0191,0.068 -0.0425,0.0769 -0.0234,0.009 -4.44585,0.78311 -9.82758,1.7205 -5.38173,0.93739 -9.82472,1.71277 -9.8733,1.72308 -0.0543,0.0115 -0.10362,3.1e-4 -0.12801,-0.0291 z m -2.55413,-9.44186 c -0.0633,-0.0788 -4.34093,-10.67427 -4.33074,-10.72715 0.0523,-0.27186 7.99203,-1.83991 13.47678,-2.66161 3.62413,-0.54294 6.13446,-0.80542 8.06568,-0.84332 1.43851,-0.0282 2.14512,0.0466 2.63666,0.27911 0.21477,0.1016 0.41913,0.29115 0.48572,0.45052 0.0265,0.0635 0.0863,0.43299 0.13273,0.82117 0.15815,1.32062 0.68726,4.88543 1.24317,8.37569 0.18137,1.13868 0.18787,1.19658 0.1378,1.22752 -0.0288,0.0178 -21.67943,3.12069 -21.7748,3.12069 -0.0213,0 -0.0542,-0.0192 -0.073,-0.0426 z m -4.00452,-11.47674 c -0.43866,-0.38338 -1.67471,-0.97267 -3.14635,-1.50004 -0.99181,-0.35542 -0.98713,-0.35336 -0.99962,-0.44019 -0.008,-0.058 -0.0337,-0.0757 -0.10802,-0.0757 -0.20526,0 -0.20498,7e-4 -0.20498,-0.51205 0,-0.55012 -0.0473,-0.51546 0.47732,-0.34994 1.07377,0.33879 2.46279,0.88382 3.32416,1.30434 0.91191,0.4452 1.56875,0.9035 1.49184,1.04093 -0.0381,0.0681 -0.65897,0.63055 -0.69604,0.63055 -0.0145,0 -0.0767,-0.044 -0.13831,-0.0979 z m 23.1128,-3.09693 c -0.16313,-0.18201 -0.2966,-0.34949 -0.2966,-0.37217 0,-0.0427 3.61511,-3.34359 3.69582,-3.37456 0.0584,-0.0224 0.65116,0.61836 0.65116,0.70392 0,0.0744 -3.61928,3.37368 -3.70091,3.37371 -0.0291,1e-5 -0.18634,-0.1489 -0.34947,-0.3309 z"
         id="path89"
         inkscape:connector-curvature="0" />
      <path
         style="fill:#a0a0a0;stroke-width:0.03409396"
         d="m 219.54382,279.0822 c -0.28221,-0.30403 -0.55721,-0.65639 -0.55539,-0.71163 0.001,-0.0357 0.10869,-0.15434 0.24347,-0.26857 0.63099,-0.5348 1.64483,-1.57402 2.29503,-2.35249 2.315,-2.77169 3.78281,-6.2178 4.18953,-9.8361 0.17524,-1.55905 0.1759,-3.27419 0.002,-4.84135 -0.14449,-1.30101 -0.42199,-2.68264 -0.75248,-3.74648 -0.0997,-0.3208 -0.11275,-0.3956 -0.0754,-0.43066 0.0249,-0.0233 0.24076,-0.11525 0.47972,-0.20426 0.35566,-0.13248 0.44373,-0.15414 0.4856,-0.11939 0.0852,0.0707 0.3802,1.08962 0.578,1.99632 0.88286,4.04704 0.65729,8.25976 -0.63705,11.89736 -0.98922,2.78009 -2.55547,5.23677 -4.72971,7.41862 -0.60626,0.60837 -1.35197,1.29239 -1.40897,1.29239 -0.015,0 -0.0664,-0.0422 -0.11423,-0.0938 z m 28.12749,-0.20509 c -0.068,-0.0435 -0.62566,-0.73853 -0.62566,-0.7798 0,-0.0217 0.28767,-0.29197 0.63927,-0.60067 3.03431,-2.66413 4.88844,-5.06167 5.80242,-7.50301 0.58132,-1.55276 0.72646,-3.12958 0.42487,-4.61567 -0.2777,-1.36833 -0.93596,-2.69544 -1.99201,-4.0161 -0.42862,-0.53601 -1.46098,-1.57758 -2.04475,-2.06299 -0.89047,-0.74044 -1.93788,-1.47111 -3.00027,-2.09295 -0.53308,-0.31203 -1.88899,-1.01183 -2.27577,-1.17454 -0.11158,-0.047 -0.17899,-0.0962 -0.17899,-0.1307 0,-0.0785 0.34147,-0.90967 0.38498,-0.93712 0.0472,-0.0298 0.2443,0.0497 0.88439,0.3566 2.49142,1.19453 4.92757,2.94001 6.4872,4.64803 0.9152,1.00228 1.67581,2.11528 2.1426,3.13526 0.42325,0.92485 0.68638,1.84372 0.80953,2.827 0.062,0.49473 0.0531,1.57883 -0.0173,2.11383 -0.32214,2.44761 -1.54213,4.84558 -3.75982,7.39014 -0.46136,0.52936 -1.62258,1.70698 -2.24362,2.27529 -0.51636,0.47253 -1.35063,1.19382 -1.37983,1.19297 -0.01,-3.4e-4 -0.0357,-0.0118 -0.0572,-0.0256 z m -52.22692,-0.72702 c -2.90744,-1.73836 -4.78963,-3.67016 -5.79367,-5.94635 -0.85693,-1.9427 -0.99089,-4.09568 -0.39659,-6.37433 0.6258,-2.39945 2.05567,-4.96268 4.21339,-7.55305 0.83259,-0.99954 1.89629,-2.12672 2.84632,-3.0162 0.97917,-0.91677 1.79942,-1.62058 1.88868,-1.62058 0.0554,0 0.63428,0.74501 0.63425,0.81623 -1e-5,0.0292 -0.20329,0.22371 -0.45174,0.43216 -0.69351,0.58183 -1.30233,1.14701 -2.10529,1.95436 -2.83928,2.85483 -4.77538,5.71372 -5.6929,8.40624 -0.4009,1.17649 -0.58065,2.19587 -0.5801,3.28986 6.5e-4,1.32362 0.24683,2.39327 0.82148,3.5694 0.92623,1.89568 2.74056,3.66502 5.28423,5.15318 0.24824,0.14524 0.46538,0.28647 0.48253,0.31387 0.0429,0.0686 -0.41929,0.89812 -0.50812,0.91194 -0.0346,0.005 -0.32371,-0.14615 -0.64247,-0.33673 z m 25.34891,-22.16067 c -8.60037,-0.10593 -15.10808,-0.56389 -18.66644,-1.31359 -1.96311,-0.41361 -3.00874,-0.91598 -3.32932,-1.59958 l -0.0963,-0.20534 0.18697,-11.55708 c 0.10283,-6.35639 0.18703,-11.76509 0.1871,-12.01935 1.1e-4,-0.3164 0.0136,-0.48032 0.0428,-0.51945 0.0397,-0.0532 0.70078,-0.0208 9.58892,0.47075 5.25047,0.29036 11.51013,0.6363 13.91034,0.76875 22.58597,1.24634 23.74485,1.31237 23.78778,1.35527 0.11347,0.11341 0.0415,8.07588 -0.10994,12.16092 -0.25261,6.81442 -0.7149,10.29821 -1.47655,11.12734 -0.1319,0.14359 -0.44,0.35476 -0.61413,0.42092 -1.17844,0.44777 -7.43582,0.80194 -16.13213,0.91308 -2.83572,0.0362 -4.16178,0.0358 -7.27906,-0.003 z m 8.25074,-1.12234 c 6.49298,-0.0978 11.75502,-0.34926 13.97853,-0.66794 0.46697,-0.0669 0.46319,-0.0655 0.46161,-0.17602 -0.001,-0.0799 0.0138,-0.095 0.10094,-0.10239 0.46302,-0.0391 0.4478,-0.033 0.52363,-0.20931 0.55373,-1.28717 0.94706,-5.46612 1.12993,-12.00473 0.0586,-2.09376 0.10197,-5.19839 0.10213,-7.30398 v -2.00237 l -0.0767,-0.0159 c -0.0422,-0.009 -2.62353,-0.15498 -5.7363,-0.32501 -3.11278,-0.17003 -7.17849,-0.39305 -9.0349,-0.49559 -1.85642,-0.10254 -9.35086,-0.51657 -16.65433,-0.92007 -7.30331,-0.40349 -13.35898,-0.73363 -13.45689,-0.73363 -0.17484,0 -0.17832,0.002 -0.19405,0.11081 -0.009,0.0609 -0.0872,4.70582 -0.17427,10.32195 -0.087,5.61612 -0.16732,10.68006 -0.17839,11.25318 l -0.0202,1.04205 0.0991,0.0921 c 0.13818,0.12837 0.57845,0.33922 1.0026,0.48015 2.62297,0.87149 8.76859,1.44175 17.49021,1.62293 3.2779,0.0681 7.47341,0.0814 10.63731,0.0337 z m 18.31326,-22.2946 c -0.0521,-0.0322 -0.22823,-0.72288 -0.20187,-0.79157 0.0118,-0.0307 0.17766,-0.10758 0.39004,-0.18086 0.72068,-0.24867 1.49692,-0.66123 2.12852,-1.13127 0.37304,-0.27764 0.92736,-0.81432 1.11425,-1.07881 l 0.11157,-0.15791 -0.30761,-0.26439 c -0.16919,-0.14542 -0.30762,-0.27877 -0.30762,-0.29635 0,-0.0176 0.086,-0.13267 0.19103,-0.25575 0.22651,-0.26533 0.22078,-0.27221 -0.22947,-0.27588 -0.219,-0.002 -0.30511,-0.0156 -0.33704,-0.0541 -0.0541,-0.0652 -0.0156,-0.76332 0.0454,-0.82316 0.0301,-0.0295 0.19993,-0.0313 0.66843,-0.007 0.34547,0.0178 0.65053,0.0279 0.67792,0.0225 0.0288,-0.006 -0.20316,-0.24484 -0.55141,-0.56831 -0.33066,-0.30714 -0.60121,-0.58458 -0.60121,-0.61655 0,-0.0767 0.50711,-0.62117 0.56634,-0.60808 0.0253,0.006 0.30152,0.24797 0.61385,0.53862 0.31234,0.29065 0.58114,0.53357 0.59734,0.53982 0.0162,0.006 0.0295,-0.39749 0.0295,-0.89721 0,-0.5611 0.0135,-0.93379 0.0353,-0.97451 0.0317,-0.0592 0.0745,-0.066 0.41935,-0.066 0.25326,0 0.398,0.0139 0.42498,0.0409 0.0276,0.0276 0.0409,0.18335 0.0409,0.47732 0,0.24694 0.0138,0.4364 0.0318,0.4364 0.0175,0 0.0645,-0.046 0.10461,-0.10228 0.0401,-0.0563 0.1037,-0.10228 0.14143,-0.10228 0.0377,0 0.20545,0.0937 0.37271,0.20829 0.32926,0.22551 0.37065,0.30189 0.23067,0.42568 -0.0404,0.0357 -0.25518,0.27614 -0.47731,0.53426 -0.39729,0.46165 -0.40388,0.47204 -0.40388,0.63681 v 0.1675 l 0.17899,0.0187 c 0.0985,0.0103 0.5779,0.0349 1.06544,0.0547 0.9846,0.04 1.09568,0.0511 1.11445,0.11137 0.0271,0.0869 -0.0251,0.77327 -0.0616,0.80956 -0.0279,0.0278 -0.21021,0.0283 -0.67934,0.002 -0.35266,-0.0199 -0.64998,-0.0274 -0.6607,-0.0166 -0.0107,0.0107 0.13005,0.15782 0.31282,0.32689 0.18278,0.16907 0.33232,0.32253 0.33232,0.34102 0,0.0596 -0.5206,0.6076 -0.57661,0.60696 -0.0298,-3.4e-4 -0.26892,-0.20015 -0.53145,-0.44401 l -0.47731,-0.44339 -0.0171,0.48663 -0.0171,0.48662 -0.43379,0.01 c -0.48875,0.0107 -0.45687,0.0296 -0.47766,-0.28229 l -0.009,-0.13637 -0.11554,0.18751 c -0.60183,0.97679 -1.58974,1.84178 -2.84023,2.48683 -0.67271,0.34701 -1.53406,0.67494 -1.62507,0.61869 z m 4.59788,-3.90471 c 0,-0.41625 -0.0161,-0.48254 -0.10773,-0.44256 -0.0581,0.0254 -0.47186,0.50652 -0.47186,0.54877 0,0.0298 0.49909,0.31555 0.55402,0.31718 0.0141,4.2e-4 0.0256,-0.19011 0.0256,-0.42339 z m -54.45834,0.71312 c -0.68914,-0.13029 -1.27129,-0.4522 -1.84821,-1.02198 -0.53576,-0.52914 -0.91235,-1.06218 -1.39705,-1.97745 -0.10923,-0.20627 -0.24991,-0.46408 -0.3126,-0.5729 -0.0627,-0.10883 -0.114,-0.21112 -0.114,-0.22731 0,-0.0286 0.47155,-0.40816 0.65322,-0.52572 0.0873,-0.0565 0.0932,-0.0559 0.15864,0.0143 0.0374,0.0401 0.16409,0.25195 0.28154,0.47069 0.59996,1.11731 0.90047,1.57908 1.30745,2.00903 0.46206,0.48813 0.8782,0.73619 1.41877,0.84572 0.18937,0.0384 0.36645,0.0515 0.52835,0.0393 0.13394,-0.0101 0.26198,-0.007 0.28455,0.007 0.0226,0.0139 0.0707,0.21573 0.10694,0.44841 0.0562,0.36064 0.0589,0.43003 0.0186,0.47033 -0.0708,0.0708 -0.75264,0.0837 -1.08624,0.0206 z m -12.70149,-3.19764 c -0.0594,-0.0715 -0.78142,-7.98894 -0.73299,-8.03737 0.0205,-0.0205 4.15473,-0.89506 9.18724,-1.94352 5.0325,-1.04846 9.21393,-1.9197 9.29205,-1.9361 0.0781,-0.0164 0.1595,-0.019 0.18085,-0.006 0.036,0.0223 1.94411,8.29679 1.94428,8.43143 4e-5,0.0334 -0.0191,0.068 -0.0425,0.0769 -0.0234,0.009 -4.44585,0.78311 -9.82758,1.7205 -5.38173,0.93739 -9.82472,1.71277 -9.8733,1.72308 -0.0543,0.0115 -0.10362,3.1e-4 -0.12801,-0.0291 z m 8.85378,-2.39476 c 4.36272,-0.76045 8.37715,-1.45958 8.92095,-1.55361 0.5438,-0.094 1.00108,-0.18305 1.01619,-0.19781 0.027,-0.0264 -1.47814,-6.69806 -1.52075,-6.74066 -0.0239,-0.024 -17.02599,3.51107 -17.06251,3.5476 -0.0204,0.0205 0.52473,6.18498 0.55579,6.28449 0.007,0.0234 0.0459,0.0426 0.0857,0.0426 0.0398,0 3.64191,-0.62218 8.00463,-1.38263 z m -11.40791,-7.0471 c -0.0633,-0.0788 -4.34093,-10.67427 -4.33074,-10.72715 0.0523,-0.27186 7.99203,-1.83991 13.47678,-2.66161 3.62413,-0.54294 6.13446,-0.80542 8.06568,-0.84332 1.43851,-0.0282 2.14512,0.0466 2.63666,0.27911 0.21477,0.1016 0.41913,0.29115 0.48572,0.45052 0.0265,0.0635 0.0863,0.43299 0.13273,0.82117 0.15815,1.32062 0.68726,4.88543 1.24317,8.37569 0.18137,1.13868 0.18787,1.19658 0.1378,1.22752 -0.0288,0.0178 -21.67943,3.12069 -21.7748,3.12069 -0.0213,0 -0.0542,-0.0192 -0.073,-0.0426 z m 20.86171,-3.83802 c 0.0118,-0.0127 -0.0457,-0.44503 -0.12769,-0.96071 -0.5663,-3.56032 -1.20637,-7.95 -1.20637,-8.27348 0,-0.22378 -1.47423,-0.34443 -3.09254,-0.25309 -3.26273,0.18416 -8.68692,0.96102 -14.56813,2.08648 -2.08582,0.39915 -4.97764,1.00771 -5.02804,1.05811 -0.0208,0.0208 3.69885,9.20998 3.73909,9.23709 0.035,0.0236 20.25312,-2.86145 20.28368,-2.8944 z m -16.81272,-1.93593 c -0.5353,-0.0992 -1.04316,-0.47287 -1.27649,-0.93927 -0.31938,-0.6384 -0.18745,-1.37029 0.34096,-1.8915 0.35946,-0.35456 0.78973,-0.52284 1.33865,-0.52353 1.52251,-0.002 2.33247,1.66405 1.34376,2.76394 -0.33673,0.3746 -0.78655,0.5772 -1.3207,0.59487 -0.18752,0.006 -0.3793,0.004 -0.42618,-0.005 z m 10.26229,-1.9935 c -0.48129,-0.0814 -1.01344,-0.48402 -1.22068,-0.92361 -0.31111,-0.65991 -0.20941,-1.35871 0.27499,-1.88959 0.87505,-0.95902 2.44038,-0.61173 2.85641,0.63374 0.0626,0.1875 0.0718,0.27724 0.0595,0.58307 -0.0132,0.3296 -0.0255,0.38449 -0.1386,0.62274 -0.1372,0.28891 -0.38416,0.57486 -0.63385,0.73392 -0.32457,0.20676 -0.81372,0.30466 -1.19778,0.23973 z m -18.3158,-3.70929 c -0.43866,-0.38338 -1.67471,-0.97267 -3.14635,-1.50004 -0.99181,-0.35542 -0.98713,-0.35336 -0.99962,-0.44019 -0.008,-0.058 -0.0337,-0.0757 -0.10802,-0.0757 -0.20526,0 -0.20498,7e-4 -0.20498,-0.51205 0,-0.55012 -0.0473,-0.51546 0.47732,-0.34994 1.07377,0.33879 2.46279,0.88382 3.32416,1.30434 0.91191,0.4452 1.56875,0.9035 1.49184,1.04093 -0.0381,0.0681 -0.65897,0.63055 -0.69604,0.63055 -0.0145,0 -0.0767,-0.044 -0.13831,-0.0979 z m 23.1128,-3.09693 c -0.16313,-0.18201 -0.2966,-0.34949 -0.2966,-0.37217 0,-0.0427 3.61511,-3.34359 3.69582,-3.37456 0.0584,-0.0224 0.65116,0.61836 0.65116,0.70392 0,0.0744 -3.61928,3.37368 -3.70091,3.37371 -0.0291,1e-5 -0.18634,-0.1489 -0.34947,-0.3309 z"
         id="path87"
         inkscape:connector-curvature="0" />
      <path
         style="fill:#7a7a7a;stroke-width:0.03409396"
         d="m 219.3159,278.76569 c -0.16252,-0.18993 -0.29548,-0.36462 -0.29548,-0.3882 0,-0.0236 0.15726,-0.17948 0.34946,-0.34645 0.77767,-0.67556 1.85035,-1.81819 2.55794,-2.72475 3.42597,-4.38932 4.67353,-9.93317 3.58208,-15.91793 -0.0929,-0.50934 -0.39438,-1.73514 -0.53517,-2.17586 -0.0634,-0.19837 -0.0741,-0.27081 -0.0437,-0.29601 0.0754,-0.0626 0.88481,-0.34775 0.91019,-0.32067 0.0734,0.0783 0.40982,1.29079 0.5751,2.07262 0.35548,1.68163 0.49569,3.05578 0.49397,4.84134 -0.001,1.32109 -0.0443,1.97255 -0.20378,3.08551 -0.54283,3.78824 -2.10442,7.22113 -4.61106,10.13659 -0.66703,0.77582 -2.27072,2.34269 -2.42467,2.36899 -0.0396,0.007 -0.15802,-0.10511 -0.35488,-0.33518 z m 28.05577,-0.28899 c -0.16356,-0.19708 -0.29232,-0.37319 -0.28613,-0.39137 0.006,-0.0182 0.2107,-0.20367 0.45448,-0.41222 1.53508,-1.31331 2.94564,-2.77581 3.94478,-4.09006 1.40354,-1.84617 2.25524,-3.67332 2.53417,-5.43649 0.075,-0.4741 0.10289,-1.51849 0.0532,-1.99283 -0.28318,-2.70452 -1.98505,-5.26785 -5.00679,-7.54114 -1.1898,-0.8951 -2.76901,-1.8412 -4.06539,-2.43557 -0.2719,-0.12466 -0.50794,-0.23928 -0.52453,-0.25472 -0.0171,-0.0159 0.0478,-0.22237 0.1499,-0.47677 l 0.18007,-0.44871 0.1058,0.0207 c 0.16386,0.0321 1.62998,0.7649 2.2942,1.14678 1.90309,1.09413 3.31233,2.16515 4.64844,3.53282 1.88479,1.92929 2.94814,3.96826 3.22341,6.18091 0.0562,0.45206 0.0638,1.5483 0.0137,1.99579 -0.30309,2.71017 -1.73251,5.38271 -4.40381,8.23369 -0.90859,0.96971 -2.82214,2.72752 -2.96917,2.72752 -0.027,0 -0.18283,-0.16125 -0.34639,-0.35832 z m -51.41582,-0.0645 c -0.0375,-0.0248 -0.28298,-0.17235 -0.5455,-0.32786 -2.62441,-1.55458 -4.54138,-3.45964 -5.54,-5.50557 -0.66333,-1.35902 -0.93518,-2.5428 -0.93169,-4.05719 0.002,-0.79542 0.0545,-1.30505 0.21713,-2.10275 0.50198,-2.46154 1.9461,-5.20193 4.17411,-7.92087 1.2059,-1.4716 2.97933,-3.26396 4.46403,-4.51165 0.20462,-0.17195 0.38389,-0.31265 0.39839,-0.31265 0.0332,0 0.61038,0.73338 0.61038,0.77558 0,0.0171 -0.24164,0.23849 -0.53698,0.49188 -1.49428,1.28205 -3.12559,2.95224 -4.25659,4.35805 -2.202,2.73701 -3.4935,5.28073 -3.92094,7.72256 -0.10758,0.61456 -0.1499,1.80834 -0.0852,2.40243 0.20427,1.87496 1.07966,3.64144 2.55833,5.16259 0.96788,0.99568 2.20641,1.94184 3.575,2.73108 0.22761,0.13126 0.42032,0.25461 0.42823,0.27411 0.0218,0.0537 -0.43315,0.84939 -0.49052,0.85793 -0.0275,0.004 -0.0807,-0.0129 -0.1182,-0.0377 z m 23.62712,-22.47519 c -6.78241,-0.13113 -11.87623,-0.44183 -15.34229,-0.93581 -3.37644,-0.4812 -5.05185,-1.09157 -5.43225,-1.97901 -0.0661,-0.15419 -0.0655,-0.20757 0.12696,-12.17043 0.10635,-6.60855 0.20471,-12.0338 0.2186,-12.05612 0.0173,-0.0277 0.0978,-0.0352 0.25462,-0.0236 0.12617,0.009 4.40249,0.24655 9.50295,0.52719 5.10045,0.28064 10.93052,0.60166 12.9557,0.71339 2.02518,0.11172 8.29251,0.45655 13.92739,0.76627 5.63488,0.30973 10.32344,0.57165 10.41902,0.58204 l 0.17378,0.0189 0.0229,1.01249 c 0.0249,1.10222 -0.0252,6.51563 -0.0801,8.64954 -0.13632,5.30415 -0.38198,8.94892 -0.75447,11.1937 -0.25256,1.52212 -0.54629,2.27687 -1.00765,2.58922 -0.29911,0.2025 -0.39614,0.24446 -0.73794,0.31912 -1.47816,0.3229 -5.21502,0.55873 -11.87109,0.74921 -1.13752,0.0325 -11.12989,0.068 -12.37611,0.0439 z m 9.46107,-1.06994 c 6.49298,-0.0978 11.75502,-0.34926 13.97853,-0.66794 0.46697,-0.0669 0.46319,-0.0655 0.46161,-0.17602 -0.001,-0.0799 0.0138,-0.095 0.10094,-0.10239 0.46302,-0.0391 0.4478,-0.033 0.52363,-0.20931 0.55373,-1.28717 0.94706,-5.46612 1.12993,-12.00473 0.0586,-2.09376 0.10197,-5.19839 0.10213,-7.30398 v -2.00237 l -0.0767,-0.0159 c -0.0422,-0.009 -2.62353,-0.15498 -5.7363,-0.32501 -3.11278,-0.17003 -7.17849,-0.39305 -9.0349,-0.49559 -1.85642,-0.10254 -9.35086,-0.51657 -16.65433,-0.92007 -7.30331,-0.40349 -13.35898,-0.73363 -13.45689,-0.73363 -0.17484,0 -0.17832,0.002 -0.19405,0.11081 -0.009,0.0609 -0.0872,4.70582 -0.17427,10.32195 -0.087,5.61612 -0.16732,10.68006 -0.17839,11.25318 l -0.0202,1.04205 0.0991,0.0921 c 0.13818,0.12837 0.57845,0.33922 1.0026,0.48015 2.62297,0.87149 8.76859,1.44175 17.49021,1.62293 3.2779,0.0681 7.47341,0.0814 10.63731,0.0337 z m 18.27774,-22.45951 c -0.1169,-0.44826 -0.14205,-0.56705 -0.12786,-0.60403 0.009,-0.0229 0.15927,-0.0916 0.33444,-0.15268 0.68835,-0.24016 1.42285,-0.61983 2.04835,-1.0588 0.44681,-0.31356 1.35566,-1.22723 1.35566,-1.36285 0,-0.0126 -0.13041,-0.13399 -0.2898,-0.26971 -0.15939,-0.13572 -0.2898,-0.27032 -0.2898,-0.29911 0,-0.0288 0.0873,-0.15174 0.19392,-0.27323 0.23592,-0.26871 0.22444,-0.28271 -0.23237,-0.28344 -0.24399,-3.8e-4 -0.33872,-0.0131 -0.36909,-0.0497 -0.0301,-0.0363 -0.0334,-0.1418 -0.0127,-0.40061 l 0.0282,-0.35138 0.72746,0.0108 c 0.6214,0.009 0.72331,0.004 0.69893,-0.0377 -0.0157,-0.0266 -0.29319,-0.29708 -0.61666,-0.60095 -0.32347,-0.30388 -0.58812,-0.56954 -0.58812,-0.59036 0,-0.037 0.4194,-0.49439 0.50175,-0.54726 0.027,-0.0174 0.25186,0.16955 0.64641,0.53744 0.33271,0.31024 0.62089,0.55876 0.6404,0.55227 0.0229,-0.008 0.0415,-0.35485 0.0525,-0.98066 l 0.0171,-0.96886 0.35301,-0.01 c 0.23103,-0.006 0.36945,0.004 0.4006,0.0298 0.0364,0.0302 0.0476,0.14687 0.0476,0.49559 0,0.29035 0.0128,0.4561 0.0351,0.4561 0.0193,0 0.0823,-0.0537 0.13991,-0.11933 0.0576,-0.0656 0.12236,-0.1194 0.14386,-0.11948 0.0555,-2e-4 0.60445,0.37693 0.62442,0.429 0.009,0.0238 -0.19939,0.29239 -0.46337,0.59694 l -0.47995,0.55372 v 0.19832 c 0,0.17833 0.008,0.19989 0.0767,0.21385 0.0422,0.009 0.49862,0.0323 1.01429,0.0527 0.51568,0.0204 1.01046,0.0459 1.09953,0.0565 l 0.16195,0.0193 v 0.34828 c 0,0.22593 -0.015,0.36799 -0.0426,0.40443 -0.0382,0.0504 -0.0971,0.0529 -0.57107,0.0247 -0.72932,-0.0435 -0.8255,-0.0424 -0.81223,0.009 0.006,0.0234 0.1491,0.17279 0.31787,0.3319 0.16876,0.1591 0.31838,0.30738 0.33248,0.32951 0.0259,0.0406 -0.46213,0.59154 -0.52397,0.59154 -0.017,0 -0.23939,-0.19561 -0.49412,-0.43469 -0.25473,-0.23909 -0.48424,-0.43958 -0.51003,-0.44554 -0.0378,-0.009 -0.0487,0.084 -0.0564,0.47731 l -0.009,0.48816 -0.4006,0.01 -0.40061,0.01 -0.003,-0.23122 c -0.002,-0.12717 -4.8e-4,-0.44286 0.003,-0.70153 0.009,-0.69057 -0.0605,-0.73216 -0.45696,-0.27313 -0.19463,0.22533 -0.24722,0.30702 -0.21931,0.34065 0.0202,0.0243 0.15768,0.10869 0.30553,0.18746 0.14785,0.0788 0.26882,0.16512 0.26882,0.19187 0,0.0739 -0.21583,0.41356 -0.47485,0.74724 -0.27504,0.35433 -0.87148,0.9397 -1.22985,1.20702 -0.72487,0.5407 -1.62382,1.01597 -2.44965,1.29512 -0.38056,0.12864 -0.40409,0.12707 -0.44496,-0.0296 z m -49.68462,-3.0433 c -0.88594,-0.14025 -1.63102,-0.58484 -2.28477,-1.36335 -0.31572,-0.37596 -0.61257,-0.81743 -0.90554,-1.34671 -0.56645,-1.02335 -0.58258,-1.05595 -0.54485,-1.10153 0.0739,-0.0893 0.60726,-0.48384 0.65407,-0.48384 0.0528,0 0.1857,0.21056 0.46276,0.73302 0.57823,1.09036 1.02239,1.70095 1.53367,2.10835 0.48498,0.38644 1.02343,0.57753 1.59202,0.565 0.15685,-0.003 0.29216,6.8e-4 0.30067,0.009 0.009,0.009 0.0443,0.19088 0.0796,0.40526 0.051,0.3104 0.0555,0.39907 0.0219,0.43538 -0.0531,0.0574 -0.63585,0.0825 -0.90951,0.0392 z m -12.84698,-3.24704 c 7e-5,-0.0234 -0.1627,-1.81222 -0.36169,-3.97506 -0.24329,-2.64443 -0.35052,-3.94371 -0.3274,-3.96684 0.0347,-0.0347 18.40527,-3.87796 18.5434,-3.8794 0.042,-4.4e-4 0.082,0.0252 0.0919,0.0589 0.11006,0.37592 1.89529,8.34197 1.87408,8.36257 -0.0325,0.0315 -19.58043,3.44305 -19.72662,3.44269 -0.0522,-1.3e-4 -0.0937,-0.0191 -0.0937,-0.0428 z m 8.85895,-2.32874 c 4.36272,-0.76045 8.37715,-1.45958 8.92095,-1.55361 0.5438,-0.094 1.00108,-0.18305 1.01619,-0.19781 0.027,-0.0264 -1.47814,-6.69806 -1.52075,-6.74066 -0.0239,-0.024 -17.02599,3.51107 -17.06251,3.5476 -0.0204,0.0205 0.52473,6.18498 0.55579,6.28449 0.007,0.0234 0.0459,0.0426 0.0857,0.0426 0.0398,0 3.64191,-0.62218 8.00463,-1.38263 z m -11.39488,-7.11529 c -0.10452,-0.16515 -4.32229,-10.63715 -4.29498,-10.6637 0.0455,-0.0442 0.78695,-0.25071 1.4563,-0.40555 3.42054,-0.79127 9.53509,-1.88879 13.69344,-2.45789 2.7981,-0.38293 4.71521,-0.56486 6.34147,-0.60177 1.58457,-0.036 2.40992,0.0834 2.83943,0.41055 0.22998,0.17518 0.28612,0.31333 0.3484,0.85725 0.15994,1.39705 0.72358,5.19057 1.39975,9.42085 0.034,0.21247 0.044,0.36506 0.0253,0.3838 -0.0213,0.0212 -21.62625,3.13317 -21.75251,3.13317 -0.004,0 -0.0299,-0.0345 -0.0566,-0.0767 z m 20.84868,-3.76983 c 0.0118,-0.0127 -0.0457,-0.44503 -0.12769,-0.96071 -0.5663,-3.56032 -1.20637,-7.95 -1.20637,-8.27348 0,-0.22378 -1.47423,-0.34443 -3.09254,-0.25309 -3.26273,0.18416 -8.68692,0.96102 -14.56813,2.08648 -2.08582,0.39915 -4.97764,1.00771 -5.02804,1.05811 -0.0208,0.0208 3.69885,9.20998 3.73909,9.23709 0.035,0.0236 20.25312,-2.86145 20.28368,-2.8944 z m -16.81272,-1.93593 c -0.5353,-0.0992 -1.04316,-0.47287 -1.27649,-0.93927 -0.31938,-0.6384 -0.18745,-1.37029 0.34096,-1.8915 0.35946,-0.35456 0.78973,-0.52284 1.33865,-0.52353 1.52251,-0.002 2.33247,1.66405 1.34376,2.76394 -0.33673,0.3746 -0.78655,0.5772 -1.3207,0.59487 -0.18752,0.006 -0.3793,0.004 -0.42618,-0.005 z m 10.26229,-1.9935 c -0.48129,-0.0814 -1.01344,-0.48402 -1.22068,-0.92361 -0.31111,-0.65991 -0.20941,-1.35871 0.27499,-1.88959 0.87505,-0.95902 2.44038,-0.61173 2.85641,0.63374 0.0626,0.1875 0.0718,0.27724 0.0595,0.58307 -0.0132,0.3296 -0.0255,0.38449 -0.1386,0.62274 -0.1372,0.28891 -0.38416,0.57486 -0.63385,0.73392 -0.32457,0.20676 -0.81372,0.30466 -1.19778,0.23973 z m -18.44484,-3.85401 c -0.45752,-0.34958 -1.97701,-1.04018 -3.32416,-1.51082 -0.64732,-0.22615 -0.64778,-0.22639 -0.64778,-0.33024 0,-0.0755 -0.0112,-0.0805 -0.15736,-0.0704 -0.14017,0.01 -0.15966,0.002 -0.17853,-0.0682 -0.0372,-0.13892 -0.0254,-0.84618 0.0141,-0.84618 0.1403,0 2.0639,0.69102 2.89587,1.04029 1.25715,0.52776 2.38051,1.20343 2.3093,1.38899 -0.0285,0.0743 -0.59033,0.57126 -0.6426,0.56845 -0.026,-0.001 -0.14696,-0.0787 -0.26885,-0.17187 z m 23.2698,-2.97758 c -0.20973,-0.22849 -0.28755,-0.33609 -0.26754,-0.36995 0.0573,-0.097 3.60993,-3.29644 3.66053,-3.29664 0.0451,-1.8e-4 0.57822,0.56674 0.60483,0.64317 0.0108,0.0311 -0.10477,0.13826 -2.14893,1.99253 -0.82041,0.74419 -1.50549,1.35308 -1.52239,1.35308 -0.0169,0 -0.16383,-0.14499 -0.3265,-0.32219 z"
         id="path85"
         inkscape:connector-curvature="0" />
      <path
         style="fill:#696969;stroke-width:0.03409396"
         d="m 219.3159,278.76569 c -0.16252,-0.18993 -0.29548,-0.36462 -0.29548,-0.3882 0,-0.0236 0.15726,-0.17948 0.34946,-0.34645 0.77767,-0.67556 1.85035,-1.81819 2.55794,-2.72475 3.42597,-4.38932 4.67353,-9.93317 3.58208,-15.91793 -0.0929,-0.50934 -0.39438,-1.73514 -0.53517,-2.17586 -0.0634,-0.19837 -0.0741,-0.27081 -0.0437,-0.29601 0.0754,-0.0626 0.88481,-0.34775 0.91019,-0.32067 0.0734,0.0783 0.40982,1.29079 0.5751,2.07262 0.35548,1.68163 0.49569,3.05578 0.49397,4.84134 -0.001,1.32109 -0.0443,1.97255 -0.20378,3.08551 -0.54283,3.78824 -2.10442,7.22113 -4.61106,10.13659 -0.66703,0.77582 -2.27072,2.34269 -2.42467,2.36899 -0.0396,0.007 -0.15802,-0.10511 -0.35488,-0.33518 z m 28.05577,-0.28899 c -0.16356,-0.19708 -0.29232,-0.37319 -0.28613,-0.39137 0.006,-0.0182 0.2107,-0.20367 0.45448,-0.41222 1.53508,-1.31331 2.94564,-2.77581 3.94478,-4.09006 1.40354,-1.84617 2.25524,-3.67332 2.53417,-5.43649 0.075,-0.4741 0.10289,-1.51849 0.0532,-1.99283 -0.28318,-2.70452 -1.98505,-5.26785 -5.00679,-7.54114 -1.1898,-0.8951 -2.76901,-1.8412 -4.06539,-2.43557 -0.2719,-0.12466 -0.50794,-0.23928 -0.52453,-0.25472 -0.0171,-0.0159 0.0478,-0.22237 0.1499,-0.47677 l 0.18007,-0.44871 0.1058,0.0207 c 0.16386,0.0321 1.62998,0.7649 2.2942,1.14678 1.90309,1.09413 3.31233,2.16515 4.64844,3.53282 1.88479,1.92929 2.94814,3.96826 3.22341,6.18091 0.0562,0.45206 0.0638,1.5483 0.0137,1.99579 -0.30309,2.71017 -1.73251,5.38271 -4.40381,8.23369 -0.90859,0.96971 -2.82214,2.72752 -2.96917,2.72752 -0.027,0 -0.18283,-0.16125 -0.34639,-0.35832 z m -51.41582,-0.0645 c -0.0375,-0.0248 -0.28298,-0.17235 -0.5455,-0.32786 -2.62441,-1.55458 -4.54138,-3.45964 -5.54,-5.50557 -0.66333,-1.35902 -0.93518,-2.5428 -0.93169,-4.05719 0.002,-0.79542 0.0545,-1.30505 0.21713,-2.10275 0.50198,-2.46154 1.9461,-5.20193 4.17411,-7.92087 1.2059,-1.4716 2.97933,-3.26396 4.46403,-4.51165 0.20462,-0.17195 0.38389,-0.31265 0.39839,-0.31265 0.0332,0 0.61038,0.73338 0.61038,0.77558 0,0.0171 -0.24164,0.23849 -0.53698,0.49188 -1.49428,1.28205 -3.12559,2.95224 -4.25659,4.35805 -2.202,2.73701 -3.4935,5.28073 -3.92094,7.72256 -0.10758,0.61456 -0.1499,1.80834 -0.0852,2.40243 0.20427,1.87496 1.07966,3.64144 2.55833,5.16259 0.96788,0.99568 2.20641,1.94184 3.575,2.73108 0.22761,0.13126 0.42032,0.25461 0.42823,0.27411 0.0218,0.0537 -0.43315,0.84939 -0.49052,0.85793 -0.0275,0.004 -0.0807,-0.0129 -0.1182,-0.0377 z m 23.62712,-22.47519 c -6.78241,-0.13113 -11.87623,-0.44183 -15.34229,-0.93581 -3.37644,-0.4812 -5.05185,-1.09157 -5.43225,-1.97901 -0.0661,-0.15419 -0.0655,-0.20757 0.12696,-12.17043 0.10635,-6.60855 0.20471,-12.0338 0.2186,-12.05612 0.0173,-0.0277 0.0978,-0.0352 0.25462,-0.0236 0.12617,0.009 4.40249,0.24655 9.50295,0.52719 5.10045,0.28064 10.93052,0.60166 12.9557,0.71339 2.02518,0.11172 8.29251,0.45655 13.92739,0.76627 5.63488,0.30973 10.32344,0.57165 10.41902,0.58204 l 0.17378,0.0189 0.0229,1.01249 c 0.0249,1.10222 -0.0252,6.51563 -0.0801,8.64954 -0.13632,5.30415 -0.38198,8.94892 -0.75447,11.1937 -0.25256,1.52212 -0.54629,2.27687 -1.00765,2.58922 -0.29911,0.2025 -0.39614,0.24446 -0.73794,0.31912 -1.47816,0.3229 -5.21502,0.55873 -11.87109,0.74921 -1.13752,0.0325 -11.12989,0.068 -12.37611,0.0439 z m 9.97248,-1.03573 c 6.35053,-0.10907 11.80721,-0.38302 13.62054,-0.68383 0.36448,-0.0605 0.36125,-0.059 0.3506,-0.16117 -0.01,-0.092 -0.008,-0.093 0.2426,-0.11241 0.31069,-0.0241 0.33092,-0.0452 0.47796,-0.49864 0.68665,-2.11729 1.12637,-9.46335 1.1276,-18.83796 l 3.4e-4,-2.24103 -0.0767,-0.0165 c -0.0422,-0.009 -4.15009,-0.2404 -9.12866,-0.51401 -4.97857,-0.27361 -15.10447,-0.83236 -22.50201,-1.24166 -10.02501,-0.55468 -13.45977,-0.73433 -13.48815,-0.7055 -0.0272,0.0276 -0.09,3.30037 -0.21879,11.40076 l -0.18071,11.36206 0.0824,0.0882 c 0.10663,0.11416 0.67493,0.38847 1.08819,0.52525 2.75694,0.9125 9.91452,1.51973 19.41651,1.64723 1.80918,0.0243 7.53798,0.0175 9.18833,-0.0108 z m 17.76633,-22.49372 c -0.1169,-0.44826 -0.14205,-0.56705 -0.12786,-0.60403 0.009,-0.0229 0.15927,-0.0916 0.33444,-0.15268 0.68835,-0.24016 1.42285,-0.61983 2.04835,-1.0588 0.44681,-0.31356 1.35566,-1.22723 1.35566,-1.36285 0,-0.0126 -0.13041,-0.13399 -0.2898,-0.26971 -0.15939,-0.13572 -0.2898,-0.27032 -0.2898,-0.29911 0,-0.0288 0.0873,-0.15174 0.19392,-0.27323 0.23592,-0.26871 0.22444,-0.28271 -0.23237,-0.28344 -0.24399,-3.8e-4 -0.33872,-0.0131 -0.36909,-0.0497 -0.0301,-0.0363 -0.0334,-0.1418 -0.0127,-0.40061 l 0.0282,-0.35138 0.72746,0.0108 c 0.6214,0.009 0.72331,0.004 0.69893,-0.0377 -0.0157,-0.0266 -0.29319,-0.29708 -0.61666,-0.60095 -0.32347,-0.30388 -0.58812,-0.56954 -0.58812,-0.59036 0,-0.037 0.4194,-0.49439 0.50175,-0.54726 0.027,-0.0174 0.25186,0.16955 0.64641,0.53744 0.33271,0.31024 0.62089,0.55876 0.6404,0.55227 0.0229,-0.008 0.0415,-0.35485 0.0525,-0.98066 l 0.0171,-0.96886 0.35301,-0.01 c 0.23103,-0.006 0.36945,0.004 0.4006,0.0298 0.0364,0.0302 0.0476,0.14687 0.0476,0.49559 0,0.29035 0.0128,0.4561 0.0351,0.4561 0.0193,0 0.0823,-0.0537 0.13991,-0.11933 0.0576,-0.0656 0.12236,-0.1194 0.14386,-0.11948 0.0555,-2e-4 0.60445,0.37693 0.62442,0.429 0.009,0.0238 -0.19939,0.29239 -0.46337,0.59694 l -0.47995,0.55372 v 0.19832 c 0,0.17833 0.008,0.19989 0.0767,0.21385 0.0422,0.009 0.49862,0.0323 1.01429,0.0527 0.51568,0.0204 1.01046,0.0459 1.09953,0.0565 l 0.16195,0.0193 v 0.34828 c 0,0.22593 -0.015,0.36799 -0.0426,0.40443 -0.0382,0.0504 -0.0971,0.0529 -0.57107,0.0247 -0.72932,-0.0435 -0.8255,-0.0424 -0.81223,0.009 0.006,0.0234 0.1491,0.17279 0.31787,0.3319 0.16876,0.1591 0.31838,0.30738 0.33248,0.32951 0.0259,0.0406 -0.46213,0.59154 -0.52397,0.59154 -0.017,0 -0.23939,-0.19561 -0.49412,-0.43469 -0.25473,-0.23909 -0.48424,-0.43958 -0.51003,-0.44554 -0.0378,-0.009 -0.0487,0.084 -0.0564,0.47731 l -0.009,0.48816 -0.4006,0.01 -0.40061,0.01 -0.003,-0.23122 c -0.002,-0.12717 -4.8e-4,-0.44286 0.003,-0.70153 0.009,-0.69057 -0.0605,-0.73216 -0.45696,-0.27313 -0.19463,0.22533 -0.24722,0.30702 -0.21931,0.34065 0.0202,0.0243 0.15768,0.10869 0.30553,0.18746 0.14785,0.0788 0.26882,0.16512 0.26882,0.19187 0,0.0739 -0.21583,0.41356 -0.47485,0.74724 -0.27504,0.35433 -0.87148,0.9397 -1.22985,1.20702 -0.72487,0.5407 -1.62382,1.01597 -2.44965,1.29512 -0.38056,0.12864 -0.40409,0.12707 -0.44496,-0.0296 z m -49.68462,-3.0433 c -0.88594,-0.14025 -1.63102,-0.58484 -2.28477,-1.36335 -0.31572,-0.37596 -0.61257,-0.81743 -0.90554,-1.34671 -0.56645,-1.02335 -0.58258,-1.05595 -0.54485,-1.10153 0.0739,-0.0893 0.60726,-0.48384 0.65407,-0.48384 0.0528,0 0.1857,0.21056 0.46276,0.73302 0.57823,1.09036 1.02239,1.70095 1.53367,2.10835 0.48498,0.38644 1.02343,0.57753 1.59202,0.565 0.15685,-0.003 0.29216,6.8e-4 0.30067,0.009 0.009,0.009 0.0443,0.19088 0.0796,0.40526 0.051,0.3104 0.0555,0.39907 0.0219,0.43538 -0.0531,0.0574 -0.63585,0.0825 -0.90951,0.0392 z m -12.84698,-3.24704 c 7e-5,-0.0234 -0.1627,-1.81222 -0.36169,-3.97506 -0.24329,-2.64443 -0.35052,-3.94371 -0.3274,-3.96684 0.0347,-0.0347 18.40527,-3.87796 18.5434,-3.8794 0.042,-4.4e-4 0.082,0.0252 0.0919,0.0589 0.11006,0.37592 1.89529,8.34197 1.87408,8.36257 -0.0325,0.0315 -19.58043,3.44305 -19.72662,3.44269 -0.0522,-1.3e-4 -0.0937,-0.0191 -0.0937,-0.0428 z m 8.4893,-2.22586 c 10.31907,-1.79573 10.27384,-1.78782 10.32194,-1.80523 0.0234,-0.008 0.0426,-0.0387 0.0426,-0.0672 0,-0.0466 -1.47792,-6.56655 -1.52089,-6.70951 -0.01,-0.0328 -0.0469,-0.0597 -0.0824,-0.0597 -0.14747,0 -17.05813,3.54409 -17.08007,3.57959 -0.0132,0.0213 -0.0189,0.0723 -0.0127,0.11328 0.006,0.041 0.13652,1.45532 0.28961,3.14297 0.15308,1.68765 0.2932,3.08748 0.31138,3.11074 0.0182,0.0233 0.0658,0.0348 0.10584,0.0257 0.04,-0.009 3.47113,-0.60793 7.62463,-1.33073 z m -11.02523,-7.21817 c -0.10452,-0.16515 -4.32229,-10.63715 -4.29498,-10.6637 0.0455,-0.0442 0.78695,-0.25071 1.4563,-0.40555 3.42054,-0.79127 9.53509,-1.88879 13.69344,-2.45789 2.7981,-0.38293 4.71521,-0.56486 6.34147,-0.60177 1.58457,-0.036 2.40992,0.0834 2.83943,0.41055 0.22998,0.17518 0.28612,0.31333 0.3484,0.85725 0.15994,1.39705 0.72358,5.19057 1.39975,9.42085 0.034,0.21247 0.044,0.36506 0.0253,0.3838 -0.0213,0.0212 -21.62625,3.13317 -21.75251,3.13317 -0.004,0 -0.0299,-0.0345 -0.0566,-0.0767 z m 10.80362,-2.27714 c 5.53174,-0.78925 10.06912,-1.44618 10.08306,-1.45984 0.0139,-0.0136 -0.0975,-0.80662 -0.24754,-1.76215 -0.5443,-3.46528 -1.09042,-7.25094 -1.09042,-7.55864 0,-0.0445 -0.22167,-0.12768 -0.49133,-0.18446 -0.3403,-0.0717 -1.92656,-0.0995 -2.75985,-0.0486 -2.50414,0.15326 -5.93169,0.59564 -10.21594,1.31853 -3.77547,0.63704 -9.13693,1.70461 -9.28018,1.84786 -0.0307,0.0307 3.64758,9.17274 3.73121,9.27356 0.0211,0.0255 0.074,0.0366 0.12494,0.0264 0.0486,-0.01 4.6143,-0.66347 10.14605,-1.45272 z m -6.73356,-3.46566 c -0.33311,-0.0557 -0.7241,-0.25126 -0.96496,-0.48264 -0.53371,-0.51272 -0.6303,-1.35627 -0.22721,-1.98442 0.60919,-0.94935 2.03115,-1.10035 2.83255,-0.30079 0.63976,0.63828 0.61693,1.63217 -0.0522,2.27475 -0.41213,0.39574 -1.02757,0.58683 -1.58814,0.4931 z m 10.01551,-2.05421 c -0.58394,-0.18667 -1.03895,-0.73179 -1.12825,-1.35169 -0.12754,-0.88524 0.50702,-1.72256 1.40954,-1.85994 0.79099,-0.1204 1.5727,0.38638 1.81218,1.17484 0.0919,0.30261 0.0751,0.75728 -0.0391,1.05714 -0.16845,0.44233 -0.58938,0.83585 -1.04443,0.9764 -0.29062,0.0898 -0.73486,0.0912 -1.00996,0.003 z m -18.23216,-3.75626 c -0.45752,-0.34958 -1.97701,-1.04018 -3.32416,-1.51082 -0.64732,-0.22615 -0.64778,-0.22639 -0.64778,-0.33024 0,-0.0755 -0.0112,-0.0805 -0.15736,-0.0704 -0.14017,0.01 -0.15966,0.002 -0.17853,-0.0682 -0.0372,-0.13892 -0.0254,-0.84618 0.0141,-0.84618 0.1403,0 2.0639,0.69102 2.89587,1.04029 1.25715,0.52776 2.38051,1.20343 2.3093,1.38899 -0.0285,0.0743 -0.59033,0.57126 -0.6426,0.56845 -0.026,-0.001 -0.14696,-0.0787 -0.26885,-0.17187 z m 23.2698,-2.97758 c -0.20973,-0.22849 -0.28755,-0.33609 -0.26754,-0.36995 0.0573,-0.097 3.60993,-3.29644 3.66053,-3.29664 0.0451,-1.8e-4 0.57822,0.56674 0.60483,0.64317 0.0108,0.0311 -0.10477,0.13826 -2.14893,1.99253 -0.82041,0.74419 -1.50549,1.35308 -1.52239,1.35308 -0.0169,0 -0.16383,-0.14499 -0.3265,-0.32219 z"
         id="path83"
         inkscape:connector-curvature="0" />
      <path
         style="fill:#5e5e5e;stroke-width:0.03409396"
         d="m 219.3159,278.76569 c -0.16252,-0.18993 -0.29548,-0.36462 -0.29548,-0.3882 0,-0.0236 0.15726,-0.17948 0.34946,-0.34645 0.77767,-0.67556 1.85035,-1.81819 2.55794,-2.72475 3.42597,-4.38932 4.67353,-9.93317 3.58208,-15.91793 -0.0929,-0.50934 -0.39438,-1.73514 -0.53517,-2.17586 -0.0634,-0.19837 -0.0741,-0.27081 -0.0437,-0.29601 0.0754,-0.0626 0.88481,-0.34775 0.91019,-0.32067 0.0734,0.0783 0.40982,1.29079 0.5751,2.07262 0.35548,1.68163 0.49569,3.05578 0.49397,4.84134 -0.001,1.32109 -0.0443,1.97255 -0.20378,3.08551 -0.54283,3.78824 -2.10442,7.22113 -4.61106,10.13659 -0.66703,0.77582 -2.27072,2.34269 -2.42467,2.36899 -0.0396,0.007 -0.15802,-0.10511 -0.35488,-0.33518 z m 28.05577,-0.28899 c -0.16356,-0.19708 -0.29232,-0.37319 -0.28613,-0.39137 0.006,-0.0182 0.2107,-0.20367 0.45448,-0.41222 1.53508,-1.31331 2.94564,-2.77581 3.94478,-4.09006 1.40354,-1.84617 2.25524,-3.67332 2.53417,-5.43649 0.075,-0.4741 0.10289,-1.51849 0.0532,-1.99283 -0.28318,-2.70452 -1.98505,-5.26785 -5.00679,-7.54114 -1.1898,-0.8951 -2.76901,-1.8412 -4.06539,-2.43557 -0.2719,-0.12466 -0.50794,-0.23928 -0.52453,-0.25472 -0.0171,-0.0159 0.0478,-0.22237 0.1499,-0.47677 l 0.18007,-0.44871 0.1058,0.0207 c 0.16386,0.0321 1.62998,0.7649 2.2942,1.14678 1.90309,1.09413 3.31233,2.16515 4.64844,3.53282 1.88479,1.92929 2.94814,3.96826 3.22341,6.18091 0.0562,0.45206 0.0638,1.5483 0.0137,1.99579 -0.30309,2.71017 -1.73251,5.38271 -4.40381,8.23369 -0.90859,0.96971 -2.82214,2.72752 -2.96917,2.72752 -0.027,0 -0.18283,-0.16125 -0.34639,-0.35832 z m -51.41582,-0.0645 c -0.0375,-0.0248 -0.28298,-0.17235 -0.5455,-0.32786 -2.62441,-1.55458 -4.54138,-3.45964 -5.54,-5.50557 -0.66333,-1.35902 -0.93518,-2.5428 -0.93169,-4.05719 0.002,-0.79542 0.0545,-1.30505 0.21713,-2.10275 0.50198,-2.46154 1.9461,-5.20193 4.17411,-7.92087 1.2059,-1.4716 2.97933,-3.26396 4.46403,-4.51165 0.20462,-0.17195 0.38389,-0.31265 0.39839,-0.31265 0.0332,0 0.61038,0.73338 0.61038,0.77558 0,0.0171 -0.24164,0.23849 -0.53698,0.49188 -1.49428,1.28205 -3.12559,2.95224 -4.25659,4.35805 -2.202,2.73701 -3.4935,5.28073 -3.92094,7.72256 -0.10758,0.61456 -0.1499,1.80834 -0.0852,2.40243 0.20427,1.87496 1.07966,3.64144 2.55833,5.16259 0.96788,0.99568 2.20641,1.94184 3.575,2.73108 0.22761,0.13126 0.42032,0.25461 0.42823,0.27411 0.0218,0.0537 -0.43315,0.84939 -0.49052,0.85793 -0.0275,0.004 -0.0807,-0.0129 -0.1182,-0.0377 z m 23.62712,-22.47519 c -6.78241,-0.13113 -11.87623,-0.44183 -15.34229,-0.93581 -3.37644,-0.4812 -5.05185,-1.09157 -5.43225,-1.97901 -0.0661,-0.15419 -0.0655,-0.20757 0.12696,-12.17043 0.10635,-6.60855 0.20471,-12.0338 0.2186,-12.05612 0.0173,-0.0277 0.0978,-0.0352 0.25462,-0.0236 0.12617,0.009 4.40249,0.24655 9.50295,0.52719 5.10045,0.28064 10.93052,0.60166 12.9557,0.71339 2.02518,0.11172 8.29251,0.45655 13.92739,0.76627 5.63488,0.30973 10.32344,0.57165 10.41902,0.58204 l 0.17378,0.0189 0.0229,1.01249 c 0.0249,1.10222 -0.0252,6.51563 -0.0801,8.64954 -0.13632,5.30415 -0.38198,8.94892 -0.75447,11.1937 -0.25256,1.52212 -0.54629,2.27687 -1.00765,2.58922 -0.29911,0.2025 -0.39614,0.24446 -0.73794,0.31912 -1.47816,0.3229 -5.21502,0.55873 -11.87109,0.74921 -1.13752,0.0325 -11.12989,0.068 -12.37611,0.0439 z m 9.97248,-1.03573 c 6.35053,-0.10907 11.80721,-0.38302 13.62054,-0.68383 0.36448,-0.0605 0.36125,-0.059 0.3506,-0.16117 -0.01,-0.092 -0.008,-0.093 0.2426,-0.11241 0.31069,-0.0241 0.33092,-0.0452 0.47796,-0.49864 0.68665,-2.11729 1.12637,-9.46335 1.1276,-18.83796 l 3.4e-4,-2.24103 -0.0767,-0.0165 c -0.0422,-0.009 -4.15009,-0.2404 -9.12866,-0.51401 -4.97857,-0.27361 -15.10447,-0.83236 -22.50201,-1.24166 -10.02501,-0.55468 -13.45977,-0.73433 -13.48815,-0.7055 -0.0272,0.0276 -0.09,3.30037 -0.21879,11.40076 l -0.18071,11.36206 0.0824,0.0882 c 0.10663,0.11416 0.67493,0.38847 1.08819,0.52525 2.75694,0.9125 9.91452,1.51973 19.41651,1.64723 1.80918,0.0243 7.53798,0.0175 9.18833,-0.0108 z m 17.76633,-22.49372 c -0.1169,-0.44826 -0.14205,-0.56705 -0.12786,-0.60403 0.009,-0.0229 0.15927,-0.0916 0.33444,-0.15268 0.68835,-0.24016 1.42285,-0.61983 2.04835,-1.0588 0.44681,-0.31356 1.35566,-1.22723 1.35566,-1.36285 0,-0.0126 -0.13041,-0.13399 -0.2898,-0.26971 -0.15939,-0.13572 -0.2898,-0.27032 -0.2898,-0.29911 0,-0.0288 0.0873,-0.15174 0.19392,-0.27323 0.23592,-0.26871 0.22444,-0.28271 -0.23237,-0.28344 -0.24399,-3.8e-4 -0.33872,-0.0131 -0.36909,-0.0497 -0.0301,-0.0363 -0.0334,-0.1418 -0.0127,-0.40061 l 0.0282,-0.35138 0.72746,0.0108 c 0.6214,0.009 0.72331,0.004 0.69893,-0.0377 -0.0157,-0.0266 -0.29319,-0.29708 -0.61666,-0.60095 -0.32347,-0.30388 -0.58812,-0.56954 -0.58812,-0.59036 0,-0.037 0.4194,-0.49439 0.50175,-0.54726 0.027,-0.0174 0.25186,0.16955 0.64641,0.53744 0.33271,0.31024 0.62089,0.55876 0.6404,0.55227 0.0229,-0.008 0.0415,-0.35485 0.0525,-0.98066 l 0.0171,-0.96886 0.35301,-0.01 c 0.23103,-0.006 0.36945,0.004 0.4006,0.0298 0.0364,0.0302 0.0476,0.14687 0.0476,0.49559 0,0.29035 0.0128,0.4561 0.0351,0.4561 0.0193,0 0.0823,-0.0537 0.13991,-0.11933 0.0576,-0.0656 0.12236,-0.1194 0.14386,-0.11948 0.0555,-2e-4 0.60445,0.37693 0.62442,0.429 0.009,0.0238 -0.19939,0.29239 -0.46337,0.59694 l -0.47995,0.55372 v 0.19832 c 0,0.17833 0.008,0.19989 0.0767,0.21385 0.0422,0.009 0.49862,0.0323 1.01429,0.0527 0.51568,0.0204 1.01046,0.0459 1.09953,0.0565 l 0.16195,0.0193 v 0.34828 c 0,0.22593 -0.015,0.36799 -0.0426,0.40443 -0.0382,0.0504 -0.0971,0.0529 -0.57107,0.0247 -0.72932,-0.0435 -0.8255,-0.0424 -0.81223,0.009 0.006,0.0234 0.1491,0.17279 0.31787,0.3319 0.16876,0.1591 0.31838,0.30738 0.33248,0.32951 0.0259,0.0406 -0.46213,0.59154 -0.52397,0.59154 -0.017,0 -0.23939,-0.19561 -0.49412,-0.43469 -0.25473,-0.23909 -0.48424,-0.43958 -0.51003,-0.44554 -0.0378,-0.009 -0.0487,0.084 -0.0564,0.47731 l -0.009,0.48816 -0.4006,0.01 -0.40061,0.01 -0.003,-0.23122 c -0.002,-0.12717 -4.8e-4,-0.44286 0.003,-0.70153 0.009,-0.69057 -0.0605,-0.73216 -0.45696,-0.27313 -0.19463,0.22533 -0.24722,0.30702 -0.21931,0.34065 0.0202,0.0243 0.15768,0.10869 0.30553,0.18746 0.14785,0.0788 0.26882,0.16512 0.26882,0.19187 0,0.0739 -0.21583,0.41356 -0.47485,0.74724 -0.27504,0.35433 -0.87148,0.9397 -1.22985,1.20702 -0.72487,0.5407 -1.62382,1.01597 -2.44965,1.29512 -0.38056,0.12864 -0.40409,0.12707 -0.44496,-0.0296 z m -49.68462,-3.0433 c -0.88594,-0.14025 -1.63102,-0.58484 -2.28477,-1.36335 -0.31572,-0.37596 -0.61257,-0.81743 -0.90554,-1.34671 -0.56645,-1.02335 -0.58258,-1.05595 -0.54485,-1.10153 0.0739,-0.0893 0.60726,-0.48384 0.65407,-0.48384 0.0528,0 0.1857,0.21056 0.46276,0.73302 0.57823,1.09036 1.02239,1.70095 1.53367,2.10835 0.48498,0.38644 1.02343,0.57753 1.59202,0.565 0.15685,-0.003 0.29216,6.8e-4 0.30067,0.009 0.009,0.009 0.0443,0.19088 0.0796,0.40526 0.051,0.3104 0.0555,0.39907 0.0219,0.43538 -0.0531,0.0574 -0.63585,0.0825 -0.90951,0.0392 z m -12.84698,-3.24704 c 7e-5,-0.0234 -0.1627,-1.81222 -0.36169,-3.97506 -0.24329,-2.64443 -0.35052,-3.94371 -0.3274,-3.96684 0.0347,-0.0347 18.40527,-3.87796 18.5434,-3.8794 0.042,-4.4e-4 0.082,0.0252 0.0919,0.0589 0.11006,0.37592 1.89529,8.34197 1.87408,8.36257 -0.0325,0.0315 -19.58043,3.44305 -19.72662,3.44269 -0.0522,-1.3e-4 -0.0937,-0.0191 -0.0937,-0.0428 z m 8.4893,-2.22586 c 10.31907,-1.79573 10.27384,-1.78782 10.32194,-1.80523 0.0234,-0.008 0.0426,-0.0387 0.0426,-0.0672 0,-0.0466 -1.47792,-6.56655 -1.52089,-6.70951 -0.01,-0.0328 -0.0469,-0.0597 -0.0824,-0.0597 -0.14747,0 -17.05813,3.54409 -17.08007,3.57959 -0.0132,0.0213 -0.0189,0.0723 -0.0127,0.11328 0.006,0.041 0.13652,1.45532 0.28961,3.14297 0.15308,1.68765 0.2932,3.08748 0.31138,3.11074 0.0182,0.0233 0.0658,0.0348 0.10584,0.0257 0.04,-0.009 3.47113,-0.60793 7.62463,-1.33073 z m -11.02523,-7.21817 c -0.10452,-0.16515 -4.32229,-10.63715 -4.29498,-10.6637 0.0455,-0.0442 0.78695,-0.25071 1.4563,-0.40555 3.42054,-0.79127 9.53509,-1.88879 13.69344,-2.45789 2.7981,-0.38293 4.71521,-0.56486 6.34147,-0.60177 1.58457,-0.036 2.40992,0.0834 2.83943,0.41055 0.22998,0.17518 0.28612,0.31333 0.3484,0.85725 0.15994,1.39705 0.72358,5.19057 1.39975,9.42085 0.034,0.21247 0.044,0.36506 0.0253,0.3838 -0.0213,0.0212 -21.62625,3.13317 -21.75251,3.13317 -0.004,0 -0.0299,-0.0345 -0.0566,-0.0767 z m 10.80362,-2.27714 c 5.53174,-0.78925 10.06912,-1.44618 10.08306,-1.45984 0.0139,-0.0136 -0.0975,-0.80662 -0.24754,-1.76215 -0.5443,-3.46528 -1.09042,-7.25094 -1.09042,-7.55864 0,-0.0445 -0.22167,-0.12768 -0.49133,-0.18446 -0.3403,-0.0717 -1.92656,-0.0995 -2.75985,-0.0486 -2.50414,0.15326 -5.93169,0.59564 -10.21594,1.31853 -3.77547,0.63704 -9.13693,1.70461 -9.28018,1.84786 -0.0307,0.0307 3.64758,9.17274 3.73121,9.27356 0.0211,0.0255 0.074,0.0366 0.12494,0.0264 0.0486,-0.01 4.6143,-0.66347 10.14605,-1.45272 z m -6.73356,-3.46566 c -0.33311,-0.0557 -0.7241,-0.25126 -0.96496,-0.48264 -0.53371,-0.51272 -0.6303,-1.35627 -0.22721,-1.98442 0.60919,-0.94935 2.03115,-1.10035 2.83255,-0.30079 0.63976,0.63828 0.61693,1.63217 -0.0522,2.27475 -0.41213,0.39574 -1.02757,0.58683 -1.58814,0.4931 z m 0.7351,-0.8943 c 0.34306,-0.15153 0.54027,-0.43243 0.54045,-0.76981 1.4e-4,-0.22849 -0.0551,-0.35971 -0.22158,-0.52616 -0.20078,-0.20077 -0.3542,-0.25752 -0.69599,-0.25744 -0.2663,6e-5 -0.32936,0.012 -0.47731,0.0905 -0.33095,0.1755 -0.49436,0.42502 -0.49436,0.75486 0,0.60134 0.72672,0.98286 1.34879,0.70808 z m 9.28041,-1.15991 c -0.58394,-0.18667 -1.03895,-0.73179 -1.12825,-1.35169 -0.12754,-0.88524 0.50702,-1.72256 1.40954,-1.85994 0.79099,-0.1204 1.5727,0.38638 1.81218,1.17484 0.0919,0.30261 0.0751,0.75728 -0.0391,1.05714 -0.16845,0.44233 -0.58938,0.83585 -1.04443,0.9764 -0.29062,0.0898 -0.73486,0.0912 -1.00996,0.003 z m 0.94812,-0.87268 c 0.55015,-0.34014 0.50555,-1.16878 -0.0781,-1.45133 -0.30127,-0.14584 -0.68378,-0.0848 -0.9357,0.14925 -0.24654,0.22909 -0.3277,0.67522 -0.17509,0.96244 0.17146,0.32268 0.41877,0.4658 0.78069,0.45179 0.19988,-0.008 0.2709,-0.0272 0.40823,-0.11215 z m -19.18028,-2.88358 c -0.45752,-0.34958 -1.97701,-1.04018 -3.32416,-1.51082 -0.64732,-0.22615 -0.64778,-0.22639 -0.64778,-0.33024 0,-0.0755 -0.0112,-0.0805 -0.15736,-0.0704 -0.14017,0.01 -0.15966,0.002 -0.17853,-0.0682 -0.0372,-0.13892 -0.0254,-0.84618 0.0141,-0.84618 0.1403,0 2.0639,0.69102 2.89587,1.04029 1.25715,0.52776 2.38051,1.20343 2.3093,1.38899 -0.0285,0.0743 -0.59033,0.57126 -0.6426,0.56845 -0.026,-0.001 -0.14696,-0.0787 -0.26885,-0.17187 z m 23.2698,-2.97758 c -0.20973,-0.22849 -0.28755,-0.33609 -0.26754,-0.36995 0.0573,-0.097 3.60993,-3.29644 3.66053,-3.29664 0.0451,-1.8e-4 0.57822,0.56674 0.60483,0.64317 0.0108,0.0311 -0.10477,0.13826 -2.14893,1.99253 -0.82041,0.74419 -1.50549,1.35308 -1.52239,1.35308 -0.0169,0 -0.16383,-0.14499 -0.3265,-0.32219 z"
         id="path81"
         inkscape:connector-curvature="0" />
      <path
         style="fill:#464646;stroke-width:0.03409396"
         d="m 219.3435,278.75202 c -0.14957,-0.17691 -0.27194,-0.34191 -0.27194,-0.36666 0,-0.0247 0.16109,-0.18917 0.35798,-0.36538 1.44167,-1.29022 2.78727,-2.89168 3.74112,-4.45248 2.35879,-3.8597 3.225,-8.44542 2.51362,-13.3071 -0.15122,-1.03347 -0.40991,-2.19994 -0.65914,-2.97213 -0.0574,-0.17779 -0.0933,-0.3342 -0.0798,-0.34759 0.0441,-0.0438 0.83585,-0.33268 0.86404,-0.31526 0.0835,0.0516 0.44707,1.40485 0.64046,2.38396 0.83126,4.20874 0.49583,8.37728 -0.97529,12.1204 -0.29449,0.74929 -0.9443,2.06268 -1.37477,2.77866 -0.90868,1.51137 -1.94471,2.8184 -3.24365,4.09211 -0.6955,0.68199 -1.13019,1.07313 -1.19261,1.07313 -0.0264,0 -0.17042,-0.14475 -0.31999,-0.32166 z m 28.04933,-0.29457 c -0.15596,-0.18794 -0.2787,-0.35363 -0.27275,-0.3682 0.006,-0.0146 0.19492,-0.18422 0.41994,-0.37702 1.40433,-1.20322 2.76997,-2.594 3.70828,-3.77655 1.3533,-1.70556 2.26468,-3.43554 2.65212,-5.03422 0.20479,-0.845 0.28714,-1.93211 0.20594,-2.71822 -0.29573,-2.86261 -2.15364,-5.55626 -5.45829,-7.91356 -1.11036,-0.79205 -2.64946,-1.68318 -3.79295,-2.19609 -0.20158,-0.0904 -0.36604,-0.18028 -0.36546,-0.19968 5.8e-4,-0.0194 0.0742,-0.21171 0.16365,-0.42735 0.1221,-0.29443 0.17915,-0.39433 0.22908,-0.40113 0.0895,-0.0122 1.63354,0.75419 2.33619,1.15959 1.81937,1.0497 3.16258,2.06049 4.44849,3.34756 0.9151,0.91593 1.56994,1.74494 2.12509,2.69032 1.86632,3.17818 1.73989,6.71506 -0.36671,10.25846 -1.13733,1.91304 -2.79473,3.80269 -5.11832,5.83554 -0.29065,0.25429 -0.55147,0.46232 -0.5796,0.4623 -0.0281,-2e-5 -0.17874,-0.15381 -0.3347,-0.34175 z m -51.43698,-0.0793 c -0.0375,-0.0248 -0.28298,-0.17224 -0.5455,-0.32761 -2.15156,-1.27334 -3.84116,-2.80219 -4.93554,-4.46596 -0.34529,-0.52494 -0.77458,-1.37408 -0.97559,-1.92971 -1.172,-3.23969 -0.43163,-6.91348 2.19455,-10.88962 1.19154,-1.80403 2.81025,-3.70333 4.58597,-5.3809 0.75469,-0.71298 1.85609,-1.67655 1.91635,-1.67655 0.0333,0 0.57738,0.71837 0.56651,0.74793 -0.006,0.0165 -0.23351,0.22016 -0.50541,0.45259 -0.70335,0.60122 -1.28428,1.14195 -2.01544,1.87595 -3.37674,3.38986 -5.5154,6.85506 -6.13177,9.9351 -0.2323,1.16082 -0.23109,2.4992 0.003,3.59084 0.1647,0.76725 0.63596,1.9064 1.07251,2.59249 1.03266,1.62295 2.63985,3.07994 4.8293,4.37796 0.27632,0.16382 0.50877,0.30825 0.51656,0.32095 0.0225,0.0368 -0.41607,0.80649 -0.46413,0.81446 -0.0239,0.004 -0.0741,-0.0131 -0.11161,-0.0379 z M 221.44109,255.922 c -9.44377,-0.0894 -16.55344,-0.61202 -19.95608,-1.46703 -1.58503,-0.39828 -2.43297,-0.86626 -2.6568,-1.46628 -0.0525,-0.14065 -0.0433,-0.92301 0.14246,-12.16844 0.10919,-6.60997 0.20045,-12.02206 0.20279,-12.02688 0.002,-0.005 0.10783,-4.1e-4 0.23441,0.01 0.12657,0.0102 3.58242,0.2024 7.67966,0.42708 4.09724,0.22469 8.81499,0.48434 10.48389,0.57702 1.6689,0.0927 8.78005,0.48411 15.80255,0.86986 7.02251,0.38575 12.81619,0.70887 12.87485,0.71804 l 0.10665,0.0167 0.0252,0.83953 c 0.0393,1.30989 -0.0311,7.26665 -0.11987,10.13719 -0.16963,5.4882 -0.48405,9.14937 -0.93913,10.93563 -0.30992,1.21647 -0.66997,1.62427 -1.60016,1.81243 -1.85925,0.37609 -8.42971,0.71168 -15.06953,0.76969 -1.1251,0.01 -2.62097,0.0229 -3.32416,0.0291 -0.70319,0.006 -2.45221,0 -3.88671,-0.0134 z m 8.11436,-1.02071 c 6.35053,-0.10907 11.80721,-0.38302 13.62054,-0.68383 0.36448,-0.0605 0.36125,-0.059 0.3506,-0.16117 -0.01,-0.092 -0.008,-0.093 0.2426,-0.11241 0.31069,-0.0241 0.33092,-0.0452 0.47796,-0.49864 0.68665,-2.11729 1.12637,-9.46335 1.1276,-18.83796 l 3.4e-4,-2.24103 -0.0767,-0.0165 c -0.0422,-0.009 -4.15009,-0.2404 -9.12866,-0.51401 -4.97857,-0.27361 -15.10447,-0.83236 -22.50201,-1.24166 -10.02501,-0.55468 -13.45977,-0.73433 -13.48815,-0.7055 -0.0272,0.0276 -0.09,3.30037 -0.21879,11.40076 l -0.18071,11.36206 0.0824,0.0882 c 0.10663,0.11416 0.67493,0.38847 1.08819,0.52525 2.75694,0.9125 9.91452,1.51973 19.41651,1.64723 1.80918,0.0243 7.53798,0.0175 9.18833,-0.0108 z M 247.372,232.46243 c -0.0421,-0.12725 -0.15588,-0.58138 -0.15588,-0.6219 0,-0.0271 0.10978,-0.0849 0.26423,-0.13914 1.12418,-0.39483 2.16058,-1.01975 2.8819,-1.73768 0.24739,-0.24623 0.58494,-0.65215 0.61056,-0.73423 0.009,-0.0297 -0.0324,-0.0826 -0.10273,-0.13027 -0.19709,-0.13375 -0.48322,-0.39265 -0.48322,-0.43723 0,-0.0231 0.0844,-0.14076 0.18752,-0.26158 0.10313,-0.12081 0.18752,-0.23519 0.18752,-0.25417 0,-0.0503 -0.17381,-0.0771 -0.4997,-0.0771 -0.21966,0 -0.29106,-0.0116 -0.30568,-0.0497 -0.0105,-0.0273 -0.006,-0.19994 0.01,-0.38355 0.0234,-0.27239 0.0386,-0.33315 0.0827,-0.33006 0.0297,0.002 0.35571,0.0151 0.7245,0.0288 0.56152,0.0209 0.67051,0.0173 0.67051,-0.0223 0,-0.026 -0.27616,-0.3047 -0.61369,-0.61922 -0.33753,-0.31453 -0.61369,-0.5881 -0.61369,-0.60795 0,-0.0198 0.11199,-0.15065 0.24887,-0.29067 l 0.24888,-0.25458 0.60538,0.56572 c 0.33295,0.31115 0.62589,0.56573 0.65097,0.56573 0.0251,0 0.0549,-0.0243 0.0663,-0.0539 0.0114,-0.0297 0.0207,-0.47511 0.0207,-0.98988 v -0.93595 l 0.36651,0.01 0.36651,0.01 0.009,0.50289 c 0.0107,0.56778 0.0284,0.5985 0.21218,0.36651 0.0594,-0.075 0.1259,-0.13644 0.14776,-0.13651 0.066,-2e-4 0.6023,0.38221 0.6023,0.42948 0,0.0242 -0.0152,0.0533 -0.0337,0.0648 -0.0186,0.0115 -0.23335,0.25151 -0.47731,0.53343 l -0.44358,0.51257 v 0.19959 c 0,0.12125 0.0165,0.20978 0.042,0.22553 0.0231,0.0143 0.54855,0.0517 1.16772,0.0832 0.61916,0.0315 1.12959,0.0591 1.13427,0.0613 0.0217,0.0103 0.004,0.67367 -0.0185,0.70973 -0.02,0.0314 -0.18158,0.0327 -0.70208,0.005 -0.49278,-0.0259 -0.68638,-0.0252 -0.71396,0.002 -0.0277,0.0277 0.0604,0.13104 0.33007,0.3867 l 0.36793,0.34885 -0.25401,0.27275 -0.254,0.27276 -0.0802,-0.0682 c -0.0441,-0.0375 -0.26966,-0.24463 -0.5012,-0.46027 -0.23153,-0.21564 -0.43896,-0.39208 -0.46095,-0.39208 -0.028,0 -0.0451,0.14858 -0.057,0.49436 l -0.017,0.49436 -0.36459,0.01 -0.36459,0.01 -0.0104,-0.7184 c -0.0111,-0.76314 -0.0189,-0.79671 -0.1792,-0.77568 -0.0778,0.0102 -0.6068,0.59663 -0.58864,0.65259 0.007,0.0209 0.14052,0.10762 0.29721,0.1927 0.15668,0.0851 0.29118,0.17362 0.29889,0.19676 0.0191,0.0574 -0.24774,0.47642 -0.51448,0.80775 -0.76859,0.95471 -1.96779,1.78593 -3.34377,2.31773 -0.45882,0.17733 -0.62684,0.21598 -0.64888,0.14928 z m -49.74554,-3.12939 c -0.34788,-0.0564 -0.6227,-0.14521 -0.95463,-0.30866 -0.93018,-0.45803 -1.60407,-1.24729 -2.48949,-2.91567 -0.0896,-0.16877 -0.19191,-0.35573 -0.22744,-0.41547 l -0.0646,-0.10863 0.31163,-0.24084 c 0.17139,-0.13246 0.32944,-0.24084 0.35122,-0.24084 0.0505,0 0.0711,0.0338 0.45713,0.75007 0.57992,1.0761 1.08338,1.75353 1.58543,2.1333 0.46159,0.34917 1.02276,0.54006 1.53199,0.52114 0.14443,-0.005 0.2737,0.001 0.28727,0.0149 0.0401,0.0401 0.1443,0.75442 0.11467,0.78615 -0.0376,0.0403 -0.6955,0.0582 -0.90318,0.0245 z m -12.78503,-3.20695 c -0.009,-0.0151 -0.18018,-1.80261 -0.37974,-3.97237 -0.2448,-2.66173 -0.35127,-3.95216 -0.32728,-3.96696 0.0651,-0.0402 18.48294,-3.8663 18.52788,-3.84898 0.0421,0.0162 1.96163,8.3306 1.93044,8.36179 -0.0116,0.0116 -7.08231,1.24769 -16.97285,2.96724 -1.45326,0.25266 -2.66912,0.46552 -2.70191,0.47301 -0.0328,0.007 -0.0672,0.001 -0.0765,-0.0137 z m 8.43805,-2.23472 c 10.31907,-1.79573 10.27384,-1.78782 10.32194,-1.80523 0.0234,-0.008 0.0426,-0.0387 0.0426,-0.0672 0,-0.0466 -1.47792,-6.56655 -1.52089,-6.70951 -0.01,-0.0328 -0.0469,-0.0597 -0.0824,-0.0597 -0.14747,0 -17.05813,3.54409 -17.08007,3.57959 -0.0132,0.0213 -0.0189,0.0723 -0.0127,0.11328 0.006,0.041 0.13652,1.45532 0.28961,3.14297 0.15308,1.68765 0.2932,3.08748 0.31138,3.11074 0.0182,0.0233 0.0658,0.0348 0.10584,0.0257 0.04,-0.009 3.47113,-0.60793 7.62463,-1.33073 z m -11.04535,-7.32045 c -0.10399,-0.23818 -4.2356,-10.43642 -4.25323,-10.49842 -0.0186,-0.0654 -0.0354,-0.0596 0.82569,-0.28415 1.71374,-0.44692 5.9925,-1.28481 9.82216,-1.92342 3.93421,-0.65604 6.65429,-1.01163 9.45797,-1.2364 0.80434,-0.0645 2.8366,-0.0568 3.22188,0.0122 0.65285,0.11691 0.98498,0.273 1.14853,0.53976 0.0792,0.1292 0.10241,0.22608 0.14688,0.61369 0.15618,1.36136 0.57746,4.22168 1.23179,8.36332 0.12384,0.78387 0.21811,1.43227 0.20948,1.4409 -0.0114,0.0114 -21.66883,3.11739 -21.73716,3.11739 -0.006,0 -0.0392,-0.0652 -0.074,-0.1449 z m 10.82374,-2.17486 c 5.53174,-0.78925 10.06912,-1.44618 10.08306,-1.45984 0.0139,-0.0136 -0.0975,-0.80662 -0.24754,-1.76215 -0.5443,-3.46528 -1.09042,-7.25094 -1.09042,-7.55864 0,-0.0445 -0.22167,-0.12768 -0.49133,-0.18446 -0.3403,-0.0717 -1.92656,-0.0995 -2.75985,-0.0486 -2.50414,0.15326 -5.93169,0.59564 -10.21594,1.31853 -3.77547,0.63704 -9.13693,1.70461 -9.28018,1.84786 -0.0307,0.0307 3.64758,9.17274 3.73121,9.27356 0.0211,0.0255 0.074,0.0366 0.12494,0.0264 0.0486,-0.01 4.6143,-0.66347 10.14605,-1.45272 z m -6.73356,-3.46566 c -0.33311,-0.0557 -0.7241,-0.25126 -0.96496,-0.48264 -0.53371,-0.51272 -0.6303,-1.35627 -0.22721,-1.98442 0.60919,-0.94935 2.03115,-1.10035 2.83255,-0.30079 0.63976,0.63828 0.61693,1.63217 -0.0522,2.27475 -0.41213,0.39574 -1.02757,0.58683 -1.58814,0.4931 z m 0.7351,-0.8943 c 0.34306,-0.15153 0.54027,-0.43243 0.54045,-0.76981 1.4e-4,-0.22849 -0.0551,-0.35971 -0.22158,-0.52616 -0.20078,-0.20077 -0.3542,-0.25752 -0.69599,-0.25744 -0.2663,6e-5 -0.32936,0.012 -0.47731,0.0905 -0.33095,0.1755 -0.49436,0.42502 -0.49436,0.75486 0,0.60134 0.72672,0.98286 1.34879,0.70808 z m 9.28041,-1.15991 c -0.58394,-0.18667 -1.03895,-0.73179 -1.12825,-1.35169 -0.12754,-0.88524 0.50702,-1.72256 1.40954,-1.85994 0.79099,-0.1204 1.5727,0.38638 1.81218,1.17484 0.0919,0.30261 0.0751,0.75728 -0.0391,1.05714 -0.16845,0.44233 -0.58938,0.83585 -1.04443,0.9764 -0.29062,0.0898 -0.73486,0.0912 -1.00996,0.003 z m 0.94812,-0.87268 c 0.55015,-0.34014 0.50555,-1.16878 -0.0781,-1.45133 -0.30127,-0.14584 -0.68378,-0.0848 -0.9357,0.14925 -0.24654,0.22909 -0.3277,0.67522 -0.17509,0.96244 0.17146,0.32268 0.41877,0.4658 0.78069,0.45179 0.19988,-0.008 0.2709,-0.0272 0.40823,-0.11215 z m -19.00873,-2.79311 c -0.0888,-0.10695 -0.61833,-0.41575 -1.17429,-0.68474 -0.6608,-0.31971 -1.34613,-0.60087 -2.28732,-0.93837 -0.55672,-0.19962 -0.64673,-0.24168 -0.64026,-0.29913 0.0116,-0.10324 -0.0588,-0.1389 -0.21701,-0.10991 l -0.14128,0.0259 -0.0203,-0.12261 c -0.0111,-0.0674 -0.0204,-0.27384 -0.0206,-0.45868 -3.5e-4,-0.30648 0.005,-0.33397 0.0593,-0.31226 0.0328,0.0131 0.3972,0.13897 0.80974,0.27973 1.893,0.64591 3.38477,1.31826 4.05907,1.82945 0.35336,0.26789 0.35297,0.25342 0.0152,0.56781 -0.29488,0.27444 -0.36851,0.31155 -0.44214,0.22283 z m 23.11706,-3.09026 c -0.27377,-0.30397 -0.27822,-0.31171 -0.21767,-0.37881 0.18039,-0.19989 3.53584,-3.2157 3.58437,-3.22156 0.0573,-0.007 0.56872,0.53796 0.56872,0.60587 0,0.038 -3.58771,3.30481 -3.6295,3.30481 -0.0145,0 -0.1522,-0.13964 -0.30592,-0.31031 z"
         id="path79"
         inkscape:connector-curvature="0" />
      <path
         style="fill:#020202;stroke-width:0.03409396"
         d="m 219.33926,278.72884 -0.2986,-0.34484 0.30525,-0.27415 c 0.53593,-0.48134 1.69322,-1.66308 2.09447,-2.13872 2.62698,-3.11412 4.06345,-6.6227 4.43882,-10.84188 0.065,-0.73089 0.0551,-2.69088 -0.0176,-3.47759 -0.14283,-1.54575 -0.49019,-3.38368 -0.82624,-4.37169 -0.0454,-0.13362 -0.0826,-0.2671 -0.0825,-0.29663 0,-0.0375 0.12068,-0.0975 0.4006,-0.19929 0.22028,-0.0801 0.41718,-0.14528 0.43755,-0.1449 0.078,0.001 0.44132,1.31251 0.64261,2.31909 0.66414,3.32107 0.58864,6.78004 -0.21523,9.86159 -0.8942,3.42779 -2.63189,6.42907 -5.23749,9.04596 -0.52013,0.52239 -1.26888,1.20789 -1.31934,1.20789 -0.013,0 -0.15807,-0.15518 -0.3223,-0.34484 z m 28.06369,-0.27738 -0.29289,-0.34946 0.11491,-0.10228 c 0.0632,-0.0563 0.33639,-0.29507 0.60706,-0.53068 2.73715,-2.38262 4.65256,-4.81408 5.59121,-7.09757 0.50023,-1.21692 0.7141,-2.25439 0.7138,-3.46256 -3.4e-4,-1.2668 -0.25858,-2.36174 -0.83395,-3.5355 -1.30458,-2.66136 -4.05901,-5.12347 -7.84281,-7.01048 -0.55072,-0.27465 -0.95114,-0.49384 -0.94638,-0.51806 0.0217,-0.1105 0.31229,-0.78927 0.34214,-0.79922 0.052,-0.0173 1.00301,0.43072 1.65464,0.77961 2.6397,1.4133 4.80186,3.12488 6.25896,4.95463 1.23283,1.54813 1.97486,3.16687 2.2438,4.89486 0.0865,0.55609 0.0864,1.96804 -3.4e-4,2.52295 -0.38624,2.47405 -1.62809,4.83004 -3.89073,7.38135 -0.40972,0.46199 -1.43982,1.49945 -1.99714,2.0114 -0.56841,0.52215 -1.36689,1.21047 -1.40419,1.21047 -0.0139,0 -0.15715,-0.15725 -0.31825,-0.34946 z m -51.4471,-0.0895 c -0.0563,-0.0337 -0.31707,-0.18917 -0.5796,-0.34538 -0.92549,-0.55068 -1.85624,-1.21506 -2.59114,-1.84955 -0.48446,-0.41827 -1.32369,-1.27838 -1.671,-1.71258 -1.19715,-1.49664 -1.91499,-3.19095 -2.09879,-4.9538 -0.0583,-0.5586 -0.0233,-1.87993 0.0646,-2.44505 0.46487,-2.98742 2.147,-6.13241 5.0421,-9.42698 0.68805,-0.78299 2.07519,-2.18155 2.87554,-2.89921 0.54551,-0.48915 1.14375,-0.9875 1.18544,-0.9875 0.0333,0 0.23238,0.23519 0.49502,0.58475 l 0.0935,0.12449 -0.57255,0.49286 c -3.18063,2.73794 -5.80511,6.00192 -7.11809,8.85253 -1.63972,3.56001 -1.54916,6.64679 0.27513,9.37824 0.67572,1.01173 1.69587,2.05034 2.8951,2.9475 0.61813,0.46243 1.69158,1.15901 2.13344,1.38443 0.0736,0.0376 0.13381,0.0858 0.13381,0.10726 0,0.0453 -0.36249,0.70679 -0.42088,0.76804 -0.0307,0.0322 -0.0619,0.0278 -0.14167,-0.02 z m 24.18967,-22.45877 c -7.37712,-0.14017 -12.21583,-0.42596 -15.8381,-0.93547 -3.27759,-0.46103 -4.9651,-1.04477 -5.41619,-1.87358 l -0.0953,-0.17519 0.005,-0.72214 c 0.0127,-1.88385 0.37313,-23.35099 0.39243,-23.37029 0.0192,-0.0191 2.37573,0.10623 11.74699,0.62501 1.15323,0.0638 9.47641,0.52267 18.49597,1.01962 9.01956,0.49695 16.5181,0.91317 16.66343,0.92493 l 0.26422,0.0214 v 2.83478 c -3.4e-4,6.94454 -0.21545,12.78165 -0.59888,16.25075 -0.257,2.32518 -0.56079,3.58626 -0.98229,4.07761 -0.15768,0.18379 -0.50283,0.40428 -0.73708,0.47083 -1.21492,0.3452 -5.40496,0.61734 -12.42724,0.80715 -1.19518,0.0323 -10.26431,0.0676 -11.47262,0.0446 z m 11.59194,-0.9986 c 5.93433,-0.16309 9.88517,-0.38789 11.47262,-0.65278 0.36246,-0.0605 0.35799,-0.0584 0.35799,-0.16961 0,-0.10133 5.8e-4,-0.10163 0.20177,-0.10163 0.11098,0 0.2267,-0.01 0.25716,-0.0213 0.19476,-0.0747 0.46102,-1.08674 0.66267,-2.51875 0.44683,-3.17306 0.71875,-9.44659 0.71929,-16.59458 l 3.4e-4,-2.51379 -0.0767,-0.0178 c -0.0422,-0.01 -2.02519,-0.12481 -4.40665,-0.25564 -14.02818,-0.77066 -40.20707,-2.21638 -40.45509,-2.23412 -0.22041,-0.0158 -0.30148,-0.01 -0.32923,0.0238 -0.0389,0.0472 -0.4185,22.6571 -0.38292,22.80767 0.0109,0.0461 0.10616,0.13619 0.23629,0.22337 1.12931,0.7566 4.93361,1.37542 10.63847,1.73047 2.50878,0.15614 4.89816,0.24369 9.23946,0.33857 1.0847,0.0237 10.69877,-0.0119 11.8647,-0.044 z m 15.61903,-22.52878 c -0.0789,-0.30226 -0.14037,-0.55025 -0.14037,-0.56606 0,-0.009 0.0422,-0.0274 0.0938,-0.0403 0.20618,-0.0513 0.88631,-0.33538 1.26299,-0.52763 0.99658,-0.50864 1.88473,-1.23042 2.33078,-1.89418 l 0.13747,-0.20456 -0.0828,-0.017 c -0.0852,-0.0175 -0.56512,-0.40238 -0.5692,-0.45642 -0.001,-0.0166 0.0828,-0.12994 0.18685,-0.2518 0.10402,-0.12185 0.18441,-0.24632 0.17864,-0.27659 -0.009,-0.0453 -0.0752,-0.0581 -0.37498,-0.0721 -0.20047,-0.009 -0.37762,-0.0324 -0.39368,-0.0511 -0.0161,-0.0187 -0.023,-0.18368 -0.0154,-0.36651 l 0.0138,-0.33242 0.26093,0.003 c 0.14352,0.002 0.45676,0.0134 0.6961,0.0256 0.23934,0.0122 0.45029,0.0171 0.46879,0.0108 0.0853,-0.0288 -0.002,-0.13415 -0.4863,-0.58687 -0.28596,-0.26727 -0.56479,-0.5288 -0.61961,-0.58117 l -0.0997,-0.0952 0.23205,-0.25928 c 0.12764,-0.1426 0.25226,-0.25471 0.27695,-0.24913 0.0247,0.006 0.30899,0.25563 0.63176,0.55566 0.32278,0.30003 0.61123,0.5455 0.64099,0.5455 0.048,0 0.0551,-0.11148 0.0632,-0.9802 l 0.009,-0.9802 h 0.35746 0.35747 v 0.44043 c 0,0.61535 0.0187,0.64457 0.26012,0.40758 l 0.14337,-0.14071 0.27458,0.1935 c 0.15101,0.10643 0.28294,0.20704 0.29317,0.22359 0.0102,0.0165 -0.0221,0.0733 -0.0719,0.12621 -0.0497,0.0529 -0.26349,0.29619 -0.47499,0.54073 -0.40218,0.46502 -0.45724,0.57263 -0.40792,0.79718 0.0154,0.0699 0.0478,0.11018 0.097,0.12054 0.0407,0.009 0.44221,0.0317 0.89225,0.0514 0.45004,0.0197 0.94483,0.0452 1.09953,0.0566 l 0.28128,0.0208 v 0.19578 c 0,0.10767 -0.01,0.26866 -0.0222,0.35774 l -0.0222,0.16197 -0.71083,-0.0248 c -0.62936,-0.022 -0.71081,-0.0188 -0.71081,0.0279 0,0.029 0.15342,0.19523 0.34094,0.36938 0.18751,0.17416 0.34051,0.33249 0.34,0.35184 -5.1e-4,0.0194 -0.10915,0.1485 -0.24142,0.287 l -0.24048,0.25182 -0.17623,-0.16849 c -0.54015,-0.51639 -0.81551,-0.76132 -0.85589,-0.76132 -0.0695,0 -0.0865,0.11495 -0.087,0.58812 l -4.7e-4,0.4347 h -0.35731 -0.35731 l -0.009,-0.72081 c -0.01,-0.78209 -0.0186,-0.81499 -0.19996,-0.76823 -0.10501,0.0271 -0.58967,0.5869 -0.56462,0.65218 0.0102,0.0266 0.13061,0.10974 0.26762,0.18489 0.137,0.0751 0.2713,0.15017 0.29844,0.16674 0.0412,0.0251 0.0333,0.0578 -0.0476,0.19801 -0.5076,0.87898 -1.40503,1.71515 -2.53211,2.35928 -0.55279,0.31592 -1.43026,0.69857 -1.77205,0.77277 -0.10396,0.0226 -0.11041,0.0178 -0.14284,-0.1065 z m -49.62775,-3.04518 c -0.53193,-0.0619 -0.95944,-0.21682 -1.40101,-0.50774 -0.76161,-0.50179 -1.31024,-1.18706 -2.05594,-2.56801 -0.18949,-0.35092 -0.34452,-0.6501 -0.34451,-0.66483 1e-5,-0.0147 0.1392,-0.13253 0.30932,-0.26176 0.26378,-0.20038 0.31623,-0.22798 0.35633,-0.18752 0.0259,0.0261 0.20992,0.34662 0.40901,0.71228 0.46941,0.86213 0.80153,1.35787 1.16691,1.74183 0.62257,0.65422 1.17348,0.9175 1.91983,0.9175 h 0.33198 l 0.0367,0.21309 c 0.0202,0.1172 0.0469,0.3013 0.0593,0.40913 l 0.0226,0.19604 -0.16664,3.7e-4 c -0.0917,2.1e-4 -0.22033,0.006 -0.28597,0.0139 -0.0656,0.007 -0.22672,0.001 -0.35798,-0.0143 z m -12.90457,-3.27326 c 0,-0.0376 -0.16113,-1.81986 -0.35807,-3.96049 -0.19695,-2.14063 -0.35371,-3.89643 -0.34838,-3.90176 0.0243,-0.0243 18.54433,-3.87046 18.56027,-3.85451 0.0352,0.0352 1.91442,8.32505 1.89218,8.34708 -0.0125,0.0123 -2.54645,0.46196 -5.6311,0.99917 -3.08465,0.5372 -7.49713,1.30573 -9.80552,1.70784 -2.30839,0.40211 -4.22234,0.7311 -4.25322,0.7311 -0.0335,0 -0.0562,-0.0276 -0.0562,-0.0684 z m 8.88148,-2.19953 c 4.36914,-0.76103 8.38822,-1.46069 8.93128,-1.55479 0.54306,-0.0941 0.99949,-0.17858 1.01429,-0.18773 0.0148,-0.009 0.0269,-0.0531 0.0269,-0.0976 0,-0.16764 -1.52818,-6.77722 -1.57353,-6.8057 -0.0253,-0.0159 -0.0689,-0.0219 -0.0971,-0.0133 -0.0281,0.009 -3.84296,0.80531 -8.4774,1.77059 -4.63445,0.96528 -8.46507,1.76479 -8.5125,1.7767 -0.0474,0.0119 -0.0937,0.041 -0.10278,0.0648 -0.0278,0.0725 0.56226,6.3743 0.60139,6.42267 0.023,0.0284 0.0755,0.0383 0.14105,0.0267 0.0575,-0.0102 3.67922,-0.64122 8.04836,-1.40226 z m -11.42544,-7.19115 c -0.0107,-0.028 -0.98263,-2.42558 -2.15977,-5.32802 -1.17714,-2.90244 -2.13073,-5.28793 -2.11909,-5.30108 0.10466,-0.11821 2.67325,-0.6964 5.56135,-1.25187 5.93278,-1.14105 11.09305,-1.899 14.67745,-2.15586 0.79247,-0.0568 2.5062,-0.0578 2.89798,-0.002 0.61319,0.0878 0.94422,0.19772 1.15619,0.38383 0.18742,0.16455 0.24902,0.31543 0.29254,0.71656 0.13184,1.21486 0.80239,5.74835 1.36118,9.20271 0.0561,0.34682 0.0912,0.64117 0.078,0.65409 -0.0132,0.0129 -4.87217,0.71513 -10.7977,1.56044 -5.92554,0.84532 -10.80855,1.54476 -10.85116,1.55433 -0.0496,0.0111 -0.0845,-9e-4 -0.097,-0.0335 z m 10.70947,-2.22026 c 5.588,-0.79818 10.17371,-1.46471 10.19046,-1.48118 0.0179,-0.0175 -0.0148,-0.31661 -0.0789,-0.72229 -0.54372,-3.44274 -0.97085,-6.3161 -1.16214,-7.81796 -0.0801,-0.62909 -0.11777,-0.83175 -0.16281,-0.87663 -0.1547,-0.15414 -0.84518,-0.2392 -1.93375,-0.23821 -2.24997,0.002 -5.81102,0.41058 -10.91006,1.25164 -3.20095,0.52798 -6.89434,1.2341 -9.20537,1.75993 -0.70156,0.15962 -0.74579,0.17669 -0.72485,0.27977 0.0205,0.10096 3.709,9.20023 3.751,9.2535 0.0185,0.0234 0.0432,0.0426 0.055,0.0426 0.0118,10e-6 4.5934,-0.65303 10.1814,-1.4512 z m -6.75825,-3.57806 c -0.49637,-0.10786 -0.96473,-0.47649 -1.17831,-0.92739 -0.10366,-0.21883 -0.10962,-0.25274 -0.10962,-0.6235 0,-0.36802 0.006,-0.40568 0.10565,-0.61369 0.21759,-0.45639 0.55934,-0.76444 1.02742,-0.92609 0.32883,-0.11357 0.9207,-0.11136 1.21942,0.005 0.76199,0.29566 1.19536,0.98667 1.07757,1.7182 -0.15382,0.95526 -1.14077,1.58551 -2.14213,1.36793 z m 0.90532,-0.83989 c 0.65626,-0.33581 0.67735,-1.11508 0.0399,-1.47463 -0.17161,-0.0968 -0.21356,-0.10571 -0.49437,-0.10509 -0.2506,5.5e-4 -0.33604,0.0151 -0.46614,0.0792 -0.33745,0.16639 -0.53753,0.45675 -0.53888,0.78207 -0.003,0.67869 0.78208,1.06506 1.45948,0.71843 z m 9.22613,-1.1895 c -0.7578,-0.24031 -1.23677,-1.00791 -1.10956,-1.77819 0.13444,-0.81407 0.78091,-1.36197 1.60602,-1.36116 0.47906,4.7e-4 0.84079,0.15888 1.16672,0.51092 0.48759,0.52665 0.5719,1.23505 0.22456,1.88673 -0.1914,0.3591 -0.6162,0.68181 -1.02006,0.77491 -0.2386,0.055 -0.63766,0.0397 -0.86768,-0.0332 z m 0.85584,-0.76139 c 0.41261,-0.19214 0.60368,-0.68918 0.42479,-1.10502 -0.0846,-0.19659 -0.28253,-0.39571 -0.47256,-0.4753 -0.20812,-0.0872 -0.51289,-0.0683 -0.72041,0.0447 -0.44635,0.24293 -0.59189,0.73462 -0.34982,1.18179 0.2131,0.39368 0.70093,0.54808 1.118,0.35386 z m -19.14515,-3.02715 c -0.55064,-0.38929 -1.7937,-0.95175 -3.25789,-1.47413 -0.57985,-0.20687 -0.61269,-0.22334 -0.62921,-0.31552 -0.0162,-0.0901 -0.0293,-0.0976 -0.17899,-0.10113 -0.0962,-0.002 -0.16315,0.0115 -0.16548,0.0341 -0.0138,0.13367 -0.0607,-0.29308 -0.0623,-0.56721 -0.002,-0.31764 0.0126,-0.36924 0.085,-0.30258 0.0178,0.0164 0.25485,0.10271 0.52675,0.19177 1.18101,0.38682 2.58862,0.94816 3.34673,1.33463 0.61027,0.31111 1.2564,0.74646 1.25571,0.84608 -2.3e-4,0.0338 -0.55553,0.54032 -0.60612,0.55284 -0.0134,0.003 -0.15478,-0.0862 -0.31417,-0.19884 z m 23.42704,-2.83147 c -0.30363,-0.3211 -0.36188,-0.40296 -0.32559,-0.4575 0.0467,-0.0702 3.55981,-3.25178 3.59063,-3.25178 0.045,0 0.54914,0.57114 0.54671,0.61939 -0.002,0.0353 -2.36184,2.20023 -3.42417,3.14103 l -0.18462,0.16351 z"
         id="path77"
         inkscape:connector-curvature="0" />
    </g>
  </g>
</svg>
