<?xml version="1.0" encoding="UTF-8" standalone="no"?>
<!-- Created with Inkscape (http://www.inkscape.org/) -->

<svg
   xmlns:dc="http://purl.org/dc/elements/1.1/"
   xmlns:cc="http://creativecommons.org/ns#"
   xmlns:rdf="http://www.w3.org/1999/02/22-rdf-syntax-ns#"
   xmlns:svg="http://www.w3.org/2000/svg"
   xmlns="http://www.w3.org/2000/svg"
   xmlns:xlink="http://www.w3.org/1999/xlink"
   xmlns:sodipodi="http://sodipodi.sourceforge.net/DTD/sodipodi-0.dtd"
   xmlns:inkscape="http://www.inkscape.org/namespaces/inkscape"
   version="1.0"
   width="91.124908"
   height="80.100143"
   id="svg2"
   sodipodi:version="0.32"
   inkscape:version="0.91 r13725"
   sodipodi:docname="Felixthecat.svg"
   inkscape:output_extension="org.inkscape.output.svg.inkscape">
  <metadata
     id="metadata36">
    <rdf:RDF>
      <cc:Work
         rdf:about="">
        <dc:format>image/svg+xml</dc:format>
        <dc:type
           rdf:resource="http://purl.org/dc/dcmitype/StillImage" />
        <dc:title></dc:title>
      </cc:Work>
    </rdf:RDF>
  </metadata>
  <sodipodi:namedview
     inkscape:window-height="1024"
     inkscape:window-width="1920"
     inkscape:pageshadow="2"
     inkscape:pageopacity="0.0"
     guidetolerance="10.0"
     gridtolerance="10.0"
     objecttolerance="10.0"
     borderopacity="1.0"
     bordercolor="#666666"
     pagecolor="#ffffff"
     id="base"
     showgrid="false"
     showguides="true"
     inkscape:guide-bbox="true"
     inkscape:zoom="8.1189071"
     inkscape:cx="45.625635"
     inkscape:cy="39.779809"
     inkscape:current-layer="svg2"
     fit-margin-top="0"
     fit-margin-left="0"
     fit-margin-right="0"
     fit-margin-bottom="0"
     inkscape:window-x="-4"
     inkscape:window-y="-4"
     inkscape:window-maximized="1" />
  <defs
     id="defs4">
    <linearGradient
       id="linearGradient3978">
      <stop
         id="stop3980"
         offset="0"
         style="stop-color:#ffffff;stop-opacity:0;" />
      <stop
         id="stop3982"
         offset="0.47129619"
         style="stop-color:#ffffff;stop-opacity:0.31410256" />
      <stop
         id="stop3986"
         offset="1"
         style="stop-color:#ffffff;stop-opacity:0;" />
    </linearGradient>
    <linearGradient
       id="linearGradient3438">
      <stop
         style="stop-color:#ffffff;stop-opacity:0;"
         offset="0"
         id="stop3440" />
      <stop
         id="stop3446"
         offset="0.66661948"
         style="stop-color:#ffffff;stop-opacity:1;" />
      <stop
         style="stop-color:#ffffff;stop-opacity:0;"
         offset="1"
         id="stop3442" />
    </linearGradient>
    <linearGradient
       id="linearGradient3336">
      <stop
         style="stop-color:#ffffff;stop-opacity:0.28235295;"
         offset="0"
         id="stop3339" />
      <stop
         style="stop-color:#ffffff;stop-opacity:0;"
         offset="1"
         id="stop3341" />
    </linearGradient>
    <inkscape:perspective
       sodipodi:type="inkscape:persp3d"
       inkscape:vp_x="0 : 65 : 1"
       inkscape:vp_y="0 : 1000 : 0"
       inkscape:vp_z="800 : 65 : 1"
       inkscape:persp3d-origin="400 : 43.333333 : 1"
       id="perspective38" />
    <linearGradient
       id="linearGradient3419">
      <stop
         style="stop-color:#000000;stop-opacity:1"
         offset="0"
         id="stop3421" />
      <stop
         style="stop-color:#000000;stop-opacity:0"
         offset="1"
         id="stop3423" />
    </linearGradient>
    <linearGradient
       id="linearGradient3411">
      <stop
         style="stop-color:#000000;stop-opacity:1"
         offset="0"
         id="stop3413" />
      <stop
         style="stop-color:#000000;stop-opacity:0"
         offset="1"
         id="stop3415" />
    </linearGradient>
    <linearGradient
       id="linearGradient3340">
      <stop
         style="stop-color:#5498e2;stop-opacity:0"
         offset="0"
         id="stop3342" />
      <stop
         style="stop-color:#9fac97;stop-opacity:1"
         offset="0.25"
         id="stop3348" />
      <stop
         style="stop-color:#c5b671;stop-opacity:1"
         offset="0.75"
         id="stop3350" />
      <stop
         style="stop-color:#ebc04c;stop-opacity:0"
         offset="1"
         id="stop3344" />
    </linearGradient>
    <linearGradient
       id="linearGradient3328">
      <stop
         style="stop-color:#000000;stop-opacity:0"
         offset="0"
         id="stop3330" />
      <stop
         style="stop-color:#000000;stop-opacity:1"
         offset="0.2"
         id="stop3336" />
      <stop
         style="stop-color:#000000;stop-opacity:1"
         offset="0.80000001"
         id="stop3338" />
      <stop
         style="stop-color:#000000;stop-opacity:0"
         offset="1"
         id="stop3332" />
    </linearGradient>
    <linearGradient
       x1="56.1717"
       y1="457.86218"
       x2="424.50449"
       y2="457.86218"
       id="linearGradient3334"
       xlink:href="#linearGradient3328"
       gradientUnits="userSpaceOnUse"
       gradientTransform="matrix(1.2631002,0,0,1.02908,82.16397,-405.72582)" />
    <linearGradient
       x1="67.460197"
       y1="457.86218"
       x2="408.24033"
       y2="457.86218"
       id="linearGradient3346"
       xlink:href="#linearGradient3340"
       gradientUnits="userSpaceOnUse"
       gradientTransform="matrix(1.2631002,0,0,1.02908,82.16397,-405.72582)" />
    <linearGradient
       x1="127.31024"
       y1="74.484726"
       x2="50.165924"
       y2="74.484726"
       id="linearGradient3417"
       xlink:href="#linearGradient3411"
       gradientUnits="userSpaceOnUse"
       gradientTransform="matrix(0.8340087,0,0,0.8340087,135.75343,-1.6458379)" />
    <linearGradient
       x1="447.14249"
       y1="91.806946"
       x2="524.19775"
       y2="91.806946"
       id="linearGradient3425"
       xlink:href="#linearGradient3419"
       gradientUnits="userSpaceOnUse"
       gradientTransform="matrix(0.8340087,0,0,0.8340087,135.75343,-1.6458379)" />
    <linearGradient
       inkscape:collect="always"
       xlink:href="#linearGradient3438"
       id="linearGradient3444"
       x1="422.36841"
       y1="62.894737"
       x2="422.36841"
       y2="118.17355"
       gradientUnits="userSpaceOnUse" />
    <filter
       inkscape:collect="always"
       id="filter3612"
       x="-0.053695101"
       width="1.1073902"
       y="-0.57461303"
       height="2.1492262">
      <feGaussianBlur
         inkscape:collect="always"
         stdDeviation="15.436424"
         id="feGaussianBlur3614" />
    </filter>
    <linearGradient
       inkscape:collect="always"
       xlink:href="#linearGradient3336"
       id="linearGradient4052"
       gradientUnits="userSpaceOnUse"
       gradientTransform="matrix(1.424286,0,0,1.424286,-3.8931787,-113.50147)"
       x1="281.85345"
       y1="-151.60913"
       x2="281.85345"
       y2="-179.60841" />
    <linearGradient
       inkscape:collect="always"
       xlink:href="#linearGradient3336"
       id="linearGradient3228"
       gradientUnits="userSpaceOnUse"
       gradientTransform="matrix(1.424286,0,0,1.424286,-168.53022,-218.08854)"
       x1="281.85345"
       y1="-151.60913"
       x2="281.85345"
       y2="-179.60841" />
    <linearGradient
       inkscape:collect="always"
       xlink:href="#linearGradient3336"
       id="linearGradient3234"
       gradientUnits="userSpaceOnUse"
       gradientTransform="matrix(2.0459588,0,0,-0.991511,-328.59869,-72.882679)"
       x1="281.85345"
       y1="-151.60913"
       x2="281.85345"
       y2="-179.60841" />
    <inkscape:perspective
       id="perspective3441"
       inkscape:persp3d-origin="325.69077 : 256.07701 : 1"
       inkscape:vp_z="651.38153 : 384.11551 : 1"
       inkscape:vp_y="0 : 1000 : 0"
       inkscape:vp_x="0 : 384.11551 : 1"
       sodipodi:type="inkscape:persp3d" />
    <filter
       inkscape:collect="always"
       id="filter3739"
       x="-0.11776465"
       width="1.2355293"
       y="-0.13390316"
       height="1.2678063">
      <feGaussianBlur
         inkscape:collect="always"
         stdDeviation="4.6504893"
         id="feGaussianBlur3741" />
    </filter>
  </defs>
  <rect
     style="display:inline;overflow:visible;visibility:visible;opacity:0;fill:#1f3046;fill-opacity:1;fill-rule:evenodd;stroke:none;stroke-width:2;stroke-linecap:butt;stroke-linejoin:miter;stroke-miterlimit:4;stroke-dasharray:none;stroke-dashoffset:0;stroke-opacity:1;marker:none;marker-start:none;marker-mid:none;marker-end:none;enable-background:accumulate"
     id="rect3543"
     width="1063.1578"
     height="514.47369"
     x="-309.67728"
     y="-157.92059" />
  <path
     style="display:inline;overflow:visible;visibility:visible;opacity:0.38782049;fill:url(#linearGradient3444);fill-opacity:1;fill-rule:evenodd;stroke:none;stroke-width:2;stroke-linecap:butt;stroke-linejoin:miter;stroke-miterlimit:4;stroke-dashoffset:0;stroke-opacity:1;marker:none;marker-start:none;marker-mid:none;marker-end:none;filter:url(#filter3612);enable-background:accumulate"
     d="M 103.46209,87.210526 422.36843,53.68421 790.7895,83.947368 l 1.31579,-2e-6 C 734.54156,97.757437 574.06851,107.71987 426.3158,118.15789 296.11054,114.76453 175.76968,107.00515 102.1463,89.842103 l 1.31579,-2.631577 z"
     id="rect3435"
     sodipodi:nodetypes="ccccccc"
     transform="matrix(0.8225509,0,0,1,47.407464,-7.6574389)"
     inkscape:connector-curvature="0" />
  <path
     style="font-style:normal;font-weight:normal;font-size:39.66043854px;font-family:'Bitstream Vera Sans';fill:url(#linearGradient3234);fill-opacity:1;stroke:none;stroke-width:1px;stroke-linecap:butt;stroke-linejoin:miter;stroke-opacity:1"
     d="m 161.10965,84.369251 c -2.27889,-4.71202 -8.20391,-7.06802 -17.77509,-7.06802 -6.15292,0 -10.76761,1.09518 -13.84405,3.28553 -2.54474,1.82221 -3.81709,4.19663 -3.81709,7.12324 0,3.718048 1.89904,6.469788 5.69714,8.255228 3.22838,1.50929 7.67214,2.26395 13.33131,2.26397 3.87405,-2e-5 7.15939,-0.43257 9.85607,-1.29765 3.30431,-1.06758 5.33628,-2.73335 6.09595,-4.99731 l -3.988,0 c -0.75966,1.73018 -2.33586,2.9726 -4.72864,3.72728 -2.01301,0.6442 -4.70966,0.96631 -8.08994,0.96633 -4.70966,-2e-5 -8.33684,-0.87432 -10.88155,-2.62289 -2.27886,-1.58296 -3.41829,-3.65367 -3.41828,-6.21213 -1e-5,-2.503268 1.00648,-4.518758 3.01948,-6.046478 2.50673,-1.89585 6.3618,-2.84377 11.56521,-2.84377 2.9245,0 5.45023,0.38653 7.5772,1.15959 2.58268,0.93872 4.36778,2.37441 5.35531,4.30708 l 4.04497,0 m 32.51112,0.60741 c -3e-5,-2.20876 -1.21543,-4.02178 -3.64618,-5.43906 -2.43081,-1.39888 -5.75414,-2.09832 -9.97001,-2.09832 -3.95003,0 -7.1784,0.63501 -9.68513,1.90505 -2.69667,1.38047 -4.04497,3.24871 -4.04497,5.60472 0,2.28237 1.19638,4.113798 3.58918,5.494278 2.43079,1.38046 5.79209,2.0707 10.08395,2.07071 4.36779,-1e-5 7.7671,-0.70866 10.19789,-2.12593 2.31682,-1.36207 3.47524,-3.165888 3.47527,-5.411448 m -3.64618,-0.05522 c -3e-5,1.84062 -0.74065,3.276308 -2.22189,4.307078 -1.70917,1.19639 -4.31085,1.7946 -7.80509,1.79461 -3.19041,-1e-5 -5.65917,-0.5522 -7.40629,-1.65657 -1.74712,-1.10438 -2.62068,-2.567678 -2.62068,-4.389898 0,-1.89586 0.89255,-3.37756 2.67767,-4.44512 1.78508,-1.06757 4.25385,-1.60135 7.40627,-1.60135 3.30433,0 5.84905,0.61661 7.63418,1.84984 1.5572,1.08596 2.3358,2.46643 2.33583,4.14141 m 49.60165,-7.09563 -3.41829,0 0,9.9118 c -4e-5,1.104358 -0.49379,1.923438 -1.48126,2.457228 -0.94957,0.55218 -2.54476,0.82828 -4.7856,0.82829 -1.59523,-1e-5 -3.05749,-0.20248 -4.3868,-0.60741 -1.32936,-0.38655 -2.31687,-0.89271 -2.96252,-1.51852 -0.37984,-0.36814 -0.70267,-0.8559 -0.96851,-1.463298 -0.22791,-0.58901 -0.34185,-1.17801 -0.34184,-1.76701 l 0,-7.84108 -3.41827,0 0,9.9118 c -3e-5,1.159578 -0.53176,1.997068 -1.5952,2.512458 -1.02552,0.51536 -2.54475,0.77305 -4.55772,0.77306 -1.8231,-1e-5 -3.43728,-0.23009 -4.84258,-0.69023 -1.13943,-0.36815 -1.994,-0.8283 -2.56371,-1.38048 -0.34183,-0.34973 -0.66468,-0.83749 -0.96851,-1.463298 -0.26587,-0.60742 -0.39881,-1.21482 -0.39881,-1.82223 l 0,-7.84108 -3.41827,0 0,14.301698 3.41827,0 0,-2.18115 c 0.87356,0.79146 2.12693,1.41727 3.76012,1.87744 1.67116,0.46015 3.55121,0.69023 5.64018,0.69024 2.24085,-1e-5 4.02595,-0.23009 5.35532,-0.69024 1.36728,-0.44176 2.41176,-1.132 3.13342,-2.0707 0.91152,0.90189 2.22186,1.58292 3.93103,2.0431 1.74709,0.47855 3.62715,0.71783 5.64016,0.71784 3.11441,-1e-5 5.43125,-0.43256 6.95053,-1.29764 1.51919,-0.84671 2.27882,-2.24558 2.27886,-4.196638 l 0,-9.19395 m 11.96311,17.421558 -3.76012,0 0,2.45725 3.76012,0 0,-2.45725 m -0.17091,-17.421558 -3.41829,0 0,14.301698 3.41829,0 0,-14.301698 m 33.59355,4.9421 c -0.72166,-1.85905 -2.29786,-3.23952 -4.72863,-4.14143 -2.12695,-0.79146 -4.74764,-1.1872 -7.86206,-1.1872 -4.67166,0 -8.18489,0.74545 -10.53971,2.23637 -2.08896,1.32524 -3.13343,3.08305 -3.13343,5.2734 0,2.0799 1.12044,3.819298 3.36131,5.218178 2.50674,1.56453 5.92502,2.3468 10.25486,2.34681 3.45626,-1e-5 6.20988,-0.39575 8.26087,-1.18721 2.08893,-0.79148 3.39926,-2.0247 3.93103,-3.699668 l -3.47527,0 c -0.64569,1.159598 -1.74714,2.015488 -3.30433,2.567678 -1.51927,0.55218 -3.32336,0.82828 -5.4123,0.82829 -3.19041,-1e-5 -5.65917,-0.57981 -7.40628,-1.7394 -1.70915,-1.1596 -2.56373,-2.604488 -2.56371,-4.334678 -2e-5,-1.73019 0.7786,-3.12907 2.33583,-4.19664 1.78509,-1.21482 4.3488,-1.82222 7.69113,-1.82222 2.46875,0 4.48173,0.34051 6.03898,1.02155 1.5572,0.68103 2.5257,1.61975 2.90554,2.81617 l 3.64617,0 m 55.26142,-4.9421 -4.6147,0 -3.988,2.34681 c -1.74715,-1.01235 -3.66518,-1.7486 -5.75411,-2.20876 -2.05099,-0.44176 -4.44379,-0.66263 -7.1784,-0.66263 -3.64618,0 -6.66566,0.53379 -9.05846,1.60135 -2.50675,1.12278 -3.76012,2.55847 -3.76012,4.30707 0,1.36207 0.94953,2.59528 2.84858,3.69967 1.67115,0.957118 3.98799,1.776198 6.95051,2.457238 -1.4053,0.79146 -2.44978,1.50011 -3.13343,2.12593 -0.83559,0.77305 -1.25338,1.54612 -1.25336,2.31919 -2e-5,1.1964 0.87355,2.14432 2.62068,2.84378 1.74711,0.69942 3.93102,1.04914 6.55172,1.04916 2.46873,-2e-5 4.51971,-0.36815 6.1529,-1.10438 1.67115,-0.71786 2.50672,-1.64738 2.50675,-2.78856 -3e-5,-1.06758 -0.68368,-1.98789 -2.05097,-2.76094 -1.17744,-0.68105 -3.19042,-1.40809 -6.03897,-2.18115 l 10.31183,-5.908418 c 0.72161,0.6074 1.17738,1.178 1.36731,1.71179 0.22786,0.55218 0.3418,1.27003 0.34183,2.15353 l 3.36132,0 c -3e-5,-1.1596 -0.24692,-2.14434 -0.74064,-2.95421 -0.49377,-0.79148 -1.19643,-1.53693 -2.10793,-2.23636 l 6.66566,-3.81011 m -14.75562,15.930658 c -10e-6,0.68101 -0.47477,1.26081 -1.42428,1.73939 -0.94954,0.47855 -2.20292,0.71783 -3.76012,0.71785 -1.70915,-2e-5 -3.05747,-0.2301 -4.04497,-0.69024 -0.98751,-0.46017 -1.48127,-1.02156 -1.48125,-1.68418 -2e-5,-0.46017 0.39879,-1.02156 1.1964,-1.68417 0.68365,-0.58901 1.70912,-1.27005 3.07645,-2.0431 2.24087,0.6258 3.83606,1.18719 4.78561,1.68418 1.10143,0.58898 1.65215,1.24241 1.65216,1.96027 m 3.93103,-12.313818 -11.67914,6.736698 c -2.31684,-0.515378 -4.23488,-1.233218 -5.75411,-2.153528 -1.48127,-0.90192 -2.22189,-1.88665 -2.22189,-2.95421 0,-1.30685 0.87356,-2.34681 2.62068,-3.11987 1.74712,-0.77307 3.95002,-1.1596 6.60869,-1.1596 2.08894,0 4.00697,0.23929 5.75412,0.71784 1.74711,0.49698 3.30432,1.1412 4.67165,1.93267 m 65.07921,-3.61684 -3.988,0 -4.72863,6.23974 -18.68663,0 -4.84258,-6.23974 -3.988,0 16.12292,19.878808 4.38681,0 15.72411,-19.878808 m -10.02698,7.84108 -8.03297,10.436378 -8.03297,-10.436378 16.06594,0 m 38.51091,-7.84108 -3.41828,0 0,9.38722 c -3e-5,2.540048 -2.50677,3.810088 -7.52023,3.810098 -3.64619,-1e-5 -6.26688,-0.76387 -7.86206,-2.29159 -0.79761,-0.77307 -1.19642,-1.720988 -1.1964,-2.843768 l 0,-8.06196 -3.4183,0 0,14.301698 3.4183,0 0,-1.98788 c 1.51922,0.79146 3.01946,1.38046 4.50073,1.767 1.51922,0.40493 3.1904,0.6074 5.01349,0.60741 1.5572,-1e-5 3.00048,-0.11045 4.32983,-0.33131 1.3673,-0.20249 2.54471,-0.5522 3.53223,-1.04916 0.98748,-0.47858 1.67114,-1.00315 2.05098,-1.57374 0.37977,-0.57061 0.56968,-1.28845 0.56971,-2.153538 l 0,-9.58048 m 12.39931,17.421558 -3.76012,0 0,2.45725 3.76012,0 0,-2.45725 m -0.17092,-17.421558 -3.41829,0 0,14.301698 3.41829,0 0,-14.301698 m 48.40613,0 -3.41828,0 0,9.9118 c -4e-5,1.104358 -0.49379,1.923438 -1.48125,2.457228 -0.94958,0.55218 -2.54477,0.82828 -4.78561,0.82829 -1.59524,-1e-5 -3.0575,-0.20248 -4.38679,-0.60741 -1.32937,-0.38655 -2.31688,-0.89271 -2.96253,-1.51852 -0.37983,-0.36814 -0.70267,-0.8559 -0.9685,-1.463298 -0.22792,-0.58901 -0.34187,-1.17801 -0.34184,-1.76701 l 0,-7.84108 -3.41828,0 0,9.9118 c -3e-5,1.159578 -0.53176,1.997068 -1.59521,2.512458 -1.0255,0.51536 -2.54474,0.77305 -4.55771,0.77306 -1.82309,-1e-5 -3.4373,-0.23009 -4.84258,-0.69023 -1.13943,-0.36815 -1.994,-0.8283 -2.56371,-1.38048 -0.34184,-0.34973 -0.66467,-0.83749 -0.96852,-1.463298 -0.26586,-0.60742 -0.39879,-1.21482 -0.39879,-1.82223 l 0,-7.84108 -3.4183,0 0,14.301698 3.4183,0 0,-2.18115 c 0.87355,0.79146 2.12692,1.41727 3.76011,1.87744 1.67115,0.46015 3.55121,0.69023 5.64017,0.69024 2.24087,-1e-5 4.02597,-0.23009 5.35531,-0.69024 1.3673,-0.44176 2.41178,-1.132 3.13344,-2.0707 0.91152,0.90189 2.22186,1.58292 3.93103,2.0431 1.74709,0.47855 3.62714,0.71783 5.64017,0.71784 3.1144,-1e-5 5.43124,-0.43256 6.95052,-1.29764 1.51919,-0.84671 2.27881,-2.24558 2.27885,-4.196638 l 0,-9.19395 m 34.18198,0.05522 c -0.64571,-0.11044 -1.13946,-0.18406 -1.48125,-0.22087 -0.30389,-0.03681 -0.70269,-0.05523 -1.19641,-0.05523 -1.48128,0 -2.52576,0.13805 -3.13343,0.41415 -0.75964,0.33131 -1.13945,0.92951 -1.13943,1.79461 -1.51925,-0.82829 -3.30435,-1.44489 -5.35532,-1.84983 -1.78511,-0.34972 -3.66516,-0.52458 -5.64016,-0.52458 -2.81061,0 -5.12744,0.34972 -6.95052,1.04916 -1.93703,0.75466 -2.90555,1.7762 -2.90555,3.06465 0,1.27003 0.96852,2.27317 2.90555,3.00943 1.74711,0.66262 4.21587,1.09516 7.40628,1.29765 l 4.27287,0.27609 c 0.83556,0.05521 1.69013,0.11043 2.56371,0.16565 1.44325,0.11043 2.41177,0.28529 2.90554,0.52458 0.49374,0.23928 0.74061,0.66262 0.74063,1.270038 -2e-5,0.9203 -0.60772,1.63815 -1.82308,2.15354 -1.17743,0.51536 -3.00053,0.77305 -5.46926,0.77306 -2.8106,-1e-5 -4.88057,-0.2577 -6.20989,-0.77306 -1.32935,-0.51539 -2.14593,-1.33447 -2.44977,-2.45724 l -3.47527,0 c 0,1.38045 0.98751,2.49404 2.96253,3.34074 2.1649,0.9203 5.22237,1.38046 9.1724,1.38047 3.1524,-1e-5 5.62116,-0.30371 7.40629,-0.91111 2.20286,-0.75467 3.30431,-1.95108 3.30434,-3.58923 l 0,-7.730648 c -3e-5,-0.8835 0.51272,-1.32526 1.53822,-1.32525 0.5697,-1e-5 1.25335,0.07363 2.05098,0.22087 l 0,-1.29764 m -7.00749,5.21819 0,2.23636 c -1.67118,-0.33132 -3.66518,-0.55219 -5.982,-0.66262 -4.25387,-0.22089 -6.95052,-0.46937 -8.08994,-0.74546 -2.05098,-0.49697 -3.07646,-1.29765 -3.07646,-2.40202 0,-0.79148 0.60768,-1.42649 1.82309,-1.90505 1.25336,-0.46016 2.82956,-0.69024 4.72862,-0.69024 2.77259,0 5.14641,0.32211 7.12144,0.96633 2.31681,0.75466 3.47523,1.82222 3.47525,3.2027 m 22.76808,-5.32863 c -0.37982,-0.05521 -1.0065,-0.11964 -1.88005,-0.19327 -0.83559,-0.09203 -1.51925,-0.13804 -2.05098,-0.13804 -1.89906,0 -3.24738,0.23008 -4.04497,0.69023 -0.79761,0.46016 -1.1964,1.1688 -1.1964,2.12594 l 0,10.491578 -4.15891,0 0,1.38048 4.15891,0 0,3.97576 3.41829,0 0,-3.97576 5.52623,0 0,-1.38048 -5.52623,0 0,-10.022228 c -10e-6,-0.71784 0.1899,-1.19641 0.56971,-1.43569 0.3798,-0.23928 1.1964,-0.35892 2.44977,-0.35892 1.02548,0 1.93702,0.07363 2.73463,0.22088 l 0,-1.38048 m 9.53382,17.476778 -3.76012,0 0,2.45725 3.76012,0 0,-2.45725 m -0.17091,-17.421558 -3.4183,0 0,14.301698 3.4183,0 0,-14.301698 m 34.16329,7.15085 c -3e-5,-2.20876 -1.21542,-4.02178 -3.64618,-5.43906 -2.43079,-1.39888 -5.75413,-2.09832 -9.96999,-2.09832 -3.95003,0 -7.17842,0.63501 -9.68515,1.90505 -2.69665,1.38047 -4.04497,3.24871 -4.04497,5.60472 0,2.28237 1.1964,4.113798 3.5892,5.494278 2.43077,1.38046 5.79208,2.0707 10.08395,2.07071 4.36779,-1e-5 7.76708,-0.70866 10.19788,-2.12593 2.31681,-1.36207 3.47523,-3.165888 3.47526,-5.411448 m -3.64618,-0.05522 c -2e-5,1.84062 -0.74064,3.276308 -2.22187,4.307078 -1.70917,1.19639 -4.31086,1.7946 -7.80509,1.79461 -3.19042,-1e-5 -5.65917,-0.5522 -7.40629,-1.65657 -1.74713,-1.10438 -2.6207,-2.567678 -2.62069,-4.389898 -10e-6,-1.89586 0.89255,-3.37756 2.67766,-4.44512 1.7851,-1.06757 4.25385,-1.60135 7.40629,-1.60135 3.30432,0 5.84905,0.61661 7.63418,1.84984 1.55718,1.08596 2.33579,2.46643 2.33581,4.14141 m 33.36477,-7.09563 -3.41827,0 0,9.38722 c -3e-5,2.540048 -2.50678,3.810088 -7.52024,3.810098 -3.64619,-1e-5 -6.26686,-0.76387 -7.86205,-2.29159 -0.79761,-0.77307 -1.19641,-1.720988 -1.19641,-2.843768 l 0,-8.06196 -3.41829,0 0,14.301698 3.41829,0 0,-1.98788 c 1.51924,0.79146 3.01949,1.38046 4.50076,1.767 1.51922,0.40493 3.19037,0.6074 5.01347,0.60741 1.5572,-1e-5 3.00048,-0.11045 4.32984,-0.33131 1.36728,-0.20249 2.54469,-0.5522 3.53222,-1.04916 0.98748,-0.47858 1.67114,-1.00315 2.05098,-1.57374 0.37977,-0.57061 0.56969,-1.28845 0.5697,-2.153538 l 0,-9.58048"
     id="text3220"
     inkscape:connector-curvature="0" />
  <path
     sodipodi:type="inkscape:offset"
     inkscape:radius="1.7714357"
     inkscape:original="M 112.71875 8.3125 C 109.71172 11.018825 107.8125 14 107.8125 14 L 112.71875 8.3125 z M 116.875 9.65625 C 111.21177 12.663277 108.71875 15.65625 108.71875 15.65625 L 116.875 9.65625 z M 102.09375 10.65625 L 105 14.96875 C 104.17541 13.334852 103.37161 11.835344 102.09375 10.65625 z M 106.46875 10.96875 L 106.46875 14.625 L 106.46875 10.96875 z M 117.78125 12.25 C 112.81965 14.054216 109.96875 16.812499 109.96875 16.8125 L 117.78125 12.25 z M 143.625 12.9375 C 142.27725 18.564361 140.19463 20.958458 136.21875 21.53125 C 133.17225 21.970153 130.40922 18.748076 129.9375 18.34375 C 129.46578 17.939427 129.3058 17.672246 128.875 18.03125 C 128.67284 18.199719 128.8125 18.781249 128.8125 18.78125 C 130.90151 24.980906 127.65625 29.4375 127.65625 29.4375 C 125.10711 34.538757 126.15561 38.700226 127.625 41.4375 L 123.6875 39.71875 L 124.0625 41.4375 L 126.75 42.21875 C 126.57741 42.469161 126.5 42.740796 126.5 43.03125 C 126.5 44.162275 127.93015 45.093749 129.71875 45.09375 C 129.94232 45.09375 130.16413 45.089809 130.375 45.0625 C 130.37933 45.067991 130.40191 45.057027 130.40625 45.0625 C 133.18275 48.561586 138.34376 48.375 138.34375 48.375 C 139.62412 48.172839 139.53378 48.605877 139.3125 48.6875 C 134.80681 50.349515 123.875 52.531249 123.875 52.53125 C 121.24688 53.002964 122.47068 51.989339 122.875 50.84375 C 123.27933 49.698161 122.88285 48.488299 122.34375 48.21875 C 121.80465 47.949201 120.97467 47.94135 120.03125 48.75 C 119.08782 49.558649 118.28125 50.781251 118.28125 50.78125 C 116.73134 49.500887 114.57139 49.004888 113.15625 48.9375 C 111.73632 48.869885 108.33663 50.162994 108.3125 55.09375 C 108.28441 60.836618 112.0936 61.093748 114.25 61.09375 C 116.4064 61.09375 118.84375 60.343749 118.84375 60.34375 C 127.67152 58.254737 137.57018 53.803761 139.1875 53.0625 C 140.8048 52.321235 140.65625 53.6875 140.65625 53.6875 C 141.06058 55.439576 140.3125 56.59375 140.3125 56.59375 C 138.49303 58.27844 138.5625 61.90625 138.5625 61.90625 C 134.45186 59.615074 131.62499 58.750001 131.625 58.75 C 131.625 58.75 128.73356 57.5194 126.375 59.40625 C 124.01643 61.293101 126.25 66.156253 126.25 66.15625 C 123.68927 65.347601 122.34375 67.093752 122.34375 67.09375 C 120.4569 69.789253 126.1875 75.250003 126.1875 75.25 C 126.1875 75.25 133.91187 81.111526 137.28125 78.28125 C 139.91229 76.071175 134.46875 69.124999 134.46875 69.125 C 134.22266 68.805207 134.62499 68.781251 134.625 68.78125 C 134.625 68.78125 136.39499 68.860155 139.96875 68.8125 C 143.54252 68.764852 144.9375 70.812499 144.9375 70.8125 C 150.84612 79.532486 155.10197 80.165507 156.28125 80.46875 C 157.46053 80.771994 157.56249 81.718749 157.5625 81.71875 C 158.37115 88.659666 162.5625 87.593747 162.5625 87.59375 C 164.58413 87.59375 166.54103 84.626337 166.40625 79.4375 C 166.27147 74.248657 163.10263 71.0625 161.6875 71.0625 C 160.67668 71.0625 159.625 71.875002 159.625 71.875 C 155.68283 73.728156 152.65626 69.062502 152.65625 69.0625 C 152.65625 69.0625 152.22992 68.613393 152.53125 68.28125 C 152.65475 68.145119 153.25 68.375001 153.25 68.375 C 155.54118 69.251038 164.9871 69.792955 167.75 70.0625 C 170.51289 70.332051 169.96563 70.326126 172.59375 71 C 175.22187 71.673877 177.0625 71.593748 177.0625 71.59375 C 177.0625 71.59375 181.1564 71.055839 179 68.5625 C 176.8436 66.069163 171.0625 66.812499 171.0625 66.8125 C 160.61743 67.149438 154.81249 65.468752 154.8125 65.46875 C 155.48637 61.9646 156.42018 58.611526 152.78125 55.78125 C 149.14232 52.95097 147.63477 48.47223 147.5 47.5625 C 147.36522 46.652768 148.21875 46.531248 148.21875 46.53125 C 151.10698 45.267648 153.26133 41.987027 154.375 39.40625 C 156.21929 39.478484 162.52023 39.585218 169.15625 37.96875 L 154.40625 39.3125 C 154.68543 38.655027 154.89745 38.040067 155.03125 37.53125 C 155.14839 37.085782 155.22128 36.701241 155.21875 36.4375 C 155.20148 34.635305 155.74999 34.062501 155.75 34.0625 L 158.25 31.25 C 148.27664 30.778288 143.62499 12.9375 143.625 12.9375 z M 155.03125 37.53125 L 167.6875 35.375 C 163.92975 35.179792 155.4803 37.411664 155.03125 37.53125 z M 100.25 13.5625 L 103.59375 16.03125 C 102.8203 15.127515 101.92546 14.240735 100.25 13.5625 z M 118.5 15.65625 C 114.29017 15.65625 110.3125 18.21875 110.3125 18.21875 L 118.5 15.65625 z M 102.625 17.53125 C 101.83566 17.542997 100.10316 17.642257 98.75 18.28125 L 103.0625 17.53125 C 103.0625 17.53125 102.88811 17.527334 102.625 17.53125 z M 103.5625 18.9375 C 103.5625 18.937501 100.93512 19.740589 99.28125 21.09375 L 103.5625 18.9375 z M 114.40625 18.9375 C 111.00925 19.007976 109.875 19.5625 109.875 19.5625 L 118.59375 19.0625 C 116.91483 18.937207 115.53858 18.914008 114.40625 18.9375 z M 104.84375 19.53125 C 104.84375 19.531249 102.86261 21.093209 102.8125 24 C 102.76238 26.906796 101.15625 28.84375 101.15625 28.84375 C 101.15625 28.843749 99.392113 30.408093 100.09375 34.96875 L 100.75 34.9375 C 93.898215 36.843932 88.874998 43.044007 88.875 50.4375 C 88.875003 59.346416 96.160842 66.593754 105.15625 66.59375 C 109.5172 66.593751 113.54318 64.797365 116.46875 62.03125 C 115.15087 62.165965 113.70002 62.256084 112.46875 62.15625 C 110.91216 62.030042 109.61232 61.483057 108.71875 60.34375 C 107.82517 59.20444 107.27742 57.658898 107.15625 55.4375 C 106.90581 50.846063 110.09223 48.105036 112.84375 47.75 C 114.24844 47.568748 115.63929 48.069031 116.71875 48.5625 C 117.25849 48.809235 117.73572 49.053396 118.0625 49.25 C 118.92047 47.994665 120.20176 47.32179 121.0625 47 C 119.46791 39.744099 112.95822 34.3125 105.15625 34.3125 C 104.20406 34.3125 103.28253 34.438446 102.375 34.59375 C 102.17885 34.059955 101.39601 31.60423 103.09375 29.59375 C 104.9982 27.338479 105.41805 26.39738 105.71875 24.84375 C 106.01945 23.290119 106.29719 22.239961 107.5 21.1875 L 104.84375 19.53125 z "
     style="fill:#ffffff;fill-opacity:1;stroke:#000000;stroke-width:0.47166163;stroke-linecap:butt;stroke-linejoin:miter;stroke-miterlimit:4;stroke-dasharray:none;stroke-dashoffset:0;stroke-opacity:1;filter:url(#filter3739)"
     id="path3629"
     d="m 112.68359,6.5429688 a 1.7716129,1.7716129 0 0 0 -1.15039,0.453125 c -1.55262,1.3973596 -2.78755,2.8364609 -3.68554,3.9726562 -1.05013,0 -3.15039,0.0599 -3.15039,0.08984 -0.42222,-0.586079 -0.83199,-1.1788063 -1.40235,-1.7050784 A 1.7716129,1.7716129 0 0 0 100.625,11.646484 l 0.15234,0.226563 a 1.7716129,1.7716129 0 0 0 -1.580074,3.115234 l 1.296874,0.957031 c -0.778417,0.125556 -1.641766,0.329098 -2.499999,0.734376 a 1.7716129,1.7716129 0 0 0 0,3.199218 1.7716129,1.7716129 0 0 0 2.083979,2.796875 l 1.31836,-0.664062 c -0.17428,0.605175 -0.34283,1.22429 -0.35546,1.957031 -0.0391,2.26812 -1.248051,3.744141 -1.248051,3.744141 l 0.1875,-0.195313 c 0,0 -0.295265,0.278663 -0.535157,0.617188 -0.239891,0.338524 -0.513919,0.817632 -0.746093,1.449218 -0.387325,1.053644 -0.552722,2.631622 -0.402344,4.558594 -6.507083,2.701028 -11.193361,8.869412 -11.193359,16.294922 3e-6,9.874719 8.105863,17.927739 18.052734,17.927734 4.84742,10e-7 9.29241,-1.986414 12.5293,-5.046875 a 1.7716129,1.7716129 0 0 0 0.52539,-0.982421 c 0.5255,-0.132925 1.08461,-0.279117 1.10937,-0.28711 1.44627,-0.343941 2.89497,-0.809308 4.34571,-1.246094 -0.0105,0.05234 -0.044,0.106358 -0.0527,0.158204 -0.17312,1.021179 -0.0833,1.987107 0.0723,2.84375 0.0562,0.309432 0.0997,0.277229 0.17187,0.558593 -0.47861,0.101274 -0.97135,0.199548 -1.32617,0.38086 -0.99263,0.507235 -1.58984,1.267578 -1.58984,1.267578 a 1.7716129,1.7716129 0 0 0 -0.0488,0.06641 c -0.87443,1.249184 -0.80126,2.757782 -0.43946,3.943359 0.36181,1.185578 0.99473,2.238848 1.65626,3.179688 1.32304,1.88168 2.85546,3.332031 2.85546,3.332031 a 1.7716129,1.7716129 0 0 0 0.15235,0.128906 c 0,0 2.04026,1.557093 4.59765,2.765625 1.2787,0.604266 2.69761,1.143355 4.18946,1.332032 1.49185,0.188677 3.18746,-0.0074 4.51562,-1.123047 1.23804,-1.039953 1.47355,-2.683274 1.28516,-3.97461 -0.18839,-1.291335 -0.70171,-2.49204 -1.26758,-3.595703 -0.42023,-0.819601 -0.5388,-0.857466 -0.95508,-1.498047 0.90437,0.0121 0.847,0.0378 2.50977,0.01563 1.44558,-0.01927 2.31287,0.363685 2.84961,0.705078 0.53674,0.341394 0.63086,0.521485 0.63086,0.521485 3.05276,4.504391 5.75299,7.025264 7.93554,8.464844 2.18323,1.440026 4.05185,1.810541 4.43164,1.908203 0.0911,0.02341 0.0291,-0.0077 0.0137,-0.01758 0.48671,3.663434 2.00082,5.777565 3.6914,6.662109 1.42408,0.745103 2.61352,0.595946 3.07227,0.517578 1.84914,-0.02867 3.34331,-1.33322 4.24609,-3.064453 0.91274,-1.750312 1.38785,-4.064978 1.31445,-6.890625 -0.0765,-2.945255 -1.01218,-5.36128 -2.1875,-7.083984 -0.18763,-0.275023 -0.41281,-0.42171 -0.61132,-0.66211 0.65204,0.05155 1.81348,0.144009 2.19921,0.181641 2.74289,0.267599 1.89317,0.202676 4.57618,0.890625 2.8536,0.731693 4.98437,0.646484 4.98437,0.646484 a 1.7716129,1.7716129 0 0 0 0.1543,-0.01367 c 0,0 1.22486,-0.08797 2.44922,-0.8125 0.61218,-0.362266 1.38214,-1.007259 1.60156,-2.099609 0.21942,-1.09235 -0.26278,-2.176272 -1.00391,-3.033203 -1.64753,-1.904961 -4.07405,-2.277504 -5.98828,-2.417969 -1.91423,-0.140465 -3.51562,0.06836 -3.51562,0.06836 l 0.16992,-0.01367 c -8.22719,0.265393 -12.42509,-0.578021 -14.12695,-0.97461 0.22767,-1.21695 0.41558,-2.477612 0.30078,-3.841797 -0.17013,-2.021608 -1.16552,-4.173442 -3.31055,-5.841797 -1.55561,-1.209916 -2.71635,-2.836457 -3.48047,-4.265624 -0.6225,-1.164304 -0.8161,-1.934655 -0.92578,-2.292969 2.87848,-1.489495 4.70739,-4.189523 5.92188,-6.664063 2.48326,0.06148 7.9325,0.0539 14.1914,-1.470703 a 1.7716129,1.7716129 0 0 0 -0.32422,-3.486328 1.7716129,1.7716129 0 0 0 -1.47265,-2.597656 c -2.29687,-0.119318 -5.33062,0.436631 -8.02149,0.996093 -1.36123,0.283017 -1.68895,0.389448 -2.62109,0.617188 0.002,-0.0045 0.002,-0.03107 0.004,-0.03516 0.023,-0.06275 -0.0208,0.0116 -0.0488,0.04492 -0.003,8.33e-4 -0.006,0.0011 -0.01,0.002 l 2.49219,-2.802735 a 1.7716129,1.7716129 0 0 0 -1.24024,-2.947265 c -1.97346,-0.09334 -3.72771,-1.03493 -5.35937,-2.578125 -1.63166,-1.543196 -3.06822,-3.667875 -4.21484,-5.81836 -2.29325,-4.300968 -3.41993,-8.59375 -3.41993,-8.59375 a 1.7716129,1.7716129 0 0 0 -3.4375,0.03516 c -0.63898,2.66777 -1.4312,4.399612 -2.33593,5.447265 -0.90473,1.047654 -1.91324,1.561737 -3.59961,1.804688 -0.84288,0.121432 -1.88875,-0.301639 -2.83008,-0.96875 -0.47067,-0.333556 -0.89486,-0.706639 -1.23047,-1.023438 -0.33561,-0.316799 -0.46458,-0.48555 -0.81641,-0.787109 -0.1646,-0.141084 -0.25649,-0.373418 -0.93945,-0.697266 -0.34148,-0.161923 -0.91848,-0.263571 -1.39258,-0.154297 -0.47409,0.109274 -0.78544,0.329987 -1.01758,0.523438 -0.51263,0.427203 -0.63952,0.90453 -0.69921,1.208984 -0.0597,0.304455 -0.0513,0.516632 -0.041,0.69336 0.0205,0.353456 0.0898,0.623046 0.0898,0.623046 a 1.7716129,1.7716129 0 0 0 0.0449,0.152344 c 1.82971,5.430133 -0.91016,9.046875 -0.91016,9.046875 a 1.7716129,1.7716129 0 0 0 -0.15234,0.251953 c -1.80193,3.605947 -1.89548,6.858553 -1.35157,9.589844 l -0.32422,-0.140625 a 1.7716129,1.7716129 0 0 0 -2.43945,2 l 0.375,1.71875 a 1.7716129,1.7716129 0 0 0 1.23633,1.324219 l 1.30859,0.380859 c 0.18679,1.05877 0.80765,1.944476 1.60352,2.457031 0.92574,0.596193 2.03647,0.888672 3.23828,0.888672 0.0351,0 0.0898,-0.0057 0.12695,-0.0059 0.77836,0.768002 1.56911,1.453273 2.4336,1.892578 -3.79343,0.932354 -6.67437,1.601216 -7.6875,1.810547 0.0868,-0.609252 0.22456,-1.234657 0.0937,-1.775391 -0.195,-0.806058 -0.48643,-1.621147 -1.54883,-2.152343 -0.1005,-0.05025 -0.24538,-0.0064 -0.35352,-0.04492 -1.78328,-8.046698 -9.0137,-14.048828 -17.62695,-14.048828 -0.4836,0 -0.89154,0.09028 -1.34375,0.134765 -0.0102,-0.606695 0.11246,-1.320933 0.63477,-1.939453 1.97837,-2.342816 2.67597,-3.832023 3.00976,-5.55664 0.29033,-1.500052 0.34396,-1.901301 1.20899,-2.658204 a 1.7716129,1.7716129 0 0 0 0.60351,-1.296875 1.7716129,1.7716129 0 0 0 0.70703,0.105469 l 8.71875,-0.5 a 1.7716129,1.7716129 0 0 0 0.33399,-3.482422 1.7716129,1.7716129 0 0 0 -0.5293,-3.46289 c -0.003,0 -0.005,0.002 -0.008,0.002 l 0.18164,-0.107422 a 1.7716129,1.7716129 0 0 0 -0.29492,-3.193359 1.7716129,1.7716129 0 0 0 -2.33399,-2.4941411 c -0.68021,0.3611773 -1.17555,0.7120757 -1.77344,1.0722656 a 1.7716129,1.7716129 0 0 0 -1.58789,-2.6210937 z m -5.96484,8.8457032 a 1.7716129,1.7716129 0 0 0 0.23437,0.15625 1.7716129,1.7716129 0 0 0 1.3379,1.828125 1.7716129,1.7716129 0 0 0 0.28125,0.525391 1.7716129,1.7716129 0 0 0 -0.0215,0.490234 1.7716129,1.7716129 0 0 0 -0.44336,1.089844 l -2.32617,-1.451172 a 1.7716129,1.7716129 0 0 0 -0.89648,-0.263672 1.7716129,1.7716129 0 0 0 -0.0606,-0.06445 1.7716129,1.7716129 0 0 0 -0.008,-0.386719 1.7716129,1.7716129 0 0 0 0.40625,-0.589844 1.7716129,1.7716129 0 0 0 1.49609,-1.333984 z m 22.30078,30.77539 c 0.007,0.0087 0.0165,0.01087 0.0234,0.01953 l -0.004,0 c -0.002,-0.0014 -0.0195,-0.01947 -0.0195,-0.01953 z m 9.83985,8.957032 c -0.0436,0.102188 -0.0332,0.509765 -0.0332,0.509765 l 0.28321,-0.33789 c -1.27956,1.18477 -1.74068,2.686182 -2.00196,3.941406 -1.82809,-0.887345 -3.07412,-1.482476 -3.84375,-1.759766 2.65971,-1.061784 4.56414,-1.887647 5.59571,-2.353515 z m -6.7168,1.935547 0.17578,0.0625 c 0,0 -0.0194,-0.0038 -0.0195,-0.0039 -0.009,-0.0028 -0.15625,-0.05859 -0.15625,-0.05859 z m 3.7207,10.976562 0.01,0.01172 c 5.1e-4,6.68e-4 0.001,0.0052 0.002,0.0059 -6e-5,-7.1e-5 -0.0117,-0.01758 -0.0117,-0.01758 z"
     transform="translate(-88.624646,-7.6574389)" />
  <g
     id="g3521"
     transform="matrix(0.1838366,0,0,0.1838366,-14.024201,9.4322561)">
    <path
       sodipodi:nodetypes="csscszsssccc"
       id="path1955"
       d="m 166.20449,93.73032 c -48.93156,0 -88.63544,39.29241 -88.63543,87.75348 0,48.46106 39.70387,87.79358 88.63543,87.79356 23.72187,0 45.69745,-9.68349 61.61141,-24.73009 -7.16876,0.73279 -15.11045,1.18448 -21.80809,0.64142 -8.46723,-0.68653 -15.62445,-3.74453 -20.48516,-9.94192 -4.8607,-6.1974 -7.79511,-14.61976 -8.45421,-26.70331 -1.36231,-24.97564 15.94094,-39.80075 30.90814,-41.73201 7.64097,-0.98594 15.33489,1.64527 21.20676,4.32955 2.93595,1.34214 5.43836,2.73894 7.21592,3.80839 4.66702,-6.82853 11.71405,-10.43646 16.39614,-12.18687 -8.67394,-39.4693 -44.15123,-69.0322 -86.59091,-69.0322 z"
       style="fill:#000000;fill-opacity:1;stroke:#000000;stroke-width:2.5656569;stroke-linecap:butt;stroke-linejoin:miter;stroke-miterlimit:4;stroke-dasharray:none;stroke-dashoffset:0;stroke-opacity:1"
       inkscape:connector-curvature="0" />
    <path
       sodipodi:nodetypes="cscccsccccscssscsssssccccssscccscssccscsscsccssccscscc"
       id="path3738"
       d="m 325.62937,283.00229 c 0,0 29.70745,37.8305 15.3956,49.85245 -18.3281,15.39561 -60.48274,-16.49529 -60.48274,-16.49529 0,0 -31.15779,-29.69153 -20.89406,-44.35402 0,0 7.33125,-9.53062 21.26061,-5.13188 0,0 -12.09655,-26.39247 0.73313,-36.65621 12.82966,-10.26374 28.59185,-3.66561 28.59185,-3.66561 0,0 15.39561,4.7653 37.7559,17.22841 0,0 -0.36658,-19.79435 9.53061,-28.95841 0,0 4.03218,-6.23155 1.8328,-15.76217 0,0 0.73312,-7.33124 -8.06435,-3.29905 -8.79751,4.03217 -62.68213,28.22528 -110.70177,39.5887 0,0 -13.19624,4.03219 -24.92623,4.03219 -11.72999,0 -32.41031,-1.38505 -32.25747,-32.62403 0.13123,-26.82141 18.6686,-33.9081 26.39248,-33.5403 7.69781,0.36656 19.42779,3.11565 27.85873,10.08033 0,0 4.39873,-6.59813 9.5306,-10.99687 5.13187,-4.39874 9.53062,-4.39874 12.46311,-2.9325 2.93249,1.46625 5.13188,8.06436 2.93249,14.29592 -2.19936,6.23156 -8.79748,11.72999 5.49844,9.16405 0,0 59.4335,-11.85332 83.94273,-20.89404 1.20368,-0.444 1.64954,-2.93249 -5.31515,-1.83281 0,0 -28.40856,1.09969 -43.4376,-18.32811 0,0 -40.03656,-33.89812 -14.66249,-84.67585 0,0 17.59498,-24.19309 6.23155,-57.91682 0,0 -0.73312,-3.11577 0.36656,-4.03218 2.34336,-1.95284 3.29906,-0.54983 5.865,1.64953 2.56593,2.19938 17.51848,19.79917 34.09027,17.41171 21.62717,-3.11577 32.9906,-16.12873 40.32183,-46.73668 0,0 25.29279,96.95569 79.54399,99.52162 L 441.463,92.38997 c 0,0 -3.02645,3.02645 -2.93249,12.82969 0.0914,9.53721 -14.66249,44.72058 -38.12248,54.98433 0,0 -4.58203,0.54983 -3.8489,5.49842 0.73313,4.94859 8.98077,29.32496 28.77513,44.72059 19.79435,15.39561 14.66249,33.72371 10.99687,52.78493 0,0 31.52434,9.16406 88.34147,7.33125 0,0 31.52433,-4.03218 43.25433,9.53061 11.72999,13.56281 -10.6303,16.4953 -10.6303,16.4953 0,0 -9.89718,0.36656 -24.19311,-3.29907 -14.29591,-3.66561 -11.36341,-3.66561 -26.39247,-5.13186 -15.02904,-1.46624 -66.34775,-4.39874 -78.81086,-9.16405 0,0 -3.36038,-1.29034 -4.03218,-0.54984 -1.63911,1.80672 0.64148,4.21546 0.64148,4.21546 0,0 16.58695,25.47606 38.03082,15.39561 0,0 5.68171,-4.39874 11.18016,-4.39874 7.6978,0 24.9262,17.2284 25.65933,45.4537 0.73312,28.22528 -9.89716,44.35402 -20.89402,44.35402 0,0 -22.72687,5.865 -27.12561,-31.8909 0,0 -0.54985,-5.13188 -6.96468,-6.78141 -6.41484,-1.64953 -29.70928,-5.05599 -61.8499,-52.48934 0,0 -7.51677,-11.14553 -26.95666,-10.88634 -19.43989,0.25921 -29.03023,-0.25919 -29.03023,-0.25919 0,0 -2.26799,0.1296 -0.92933,1.86915 z"
       style="display:inline;overflow:visible;visibility:visible;fill:#000000;fill-opacity:1;fill-rule:nonzero;stroke:#000000;stroke-width:1.28282845;stroke-linecap:butt;stroke-linejoin:miter;stroke-miterlimit:4;stroke-dasharray:none;stroke-dashoffset:0;stroke-opacity:1;marker:none;marker-start:none;marker-mid:none;marker-end:none"
       inkscape:connector-curvature="0" />
    <ellipse
       transform="matrix(1.282828,0,0,1.282828,-34.764106,-139.64011)"
       id="path1928"
       style="fill:#000000;fill-opacity:1;stroke:#000000;stroke-width:1;stroke-linecap:butt;stroke-linejoin:miter;stroke-miterlimit:4;stroke-dasharray:none;stroke-dashoffset:0;stroke-opacity:1"
       cx="260.84967"
       cy="218.89601"
       rx="13.739564"
       ry="8.6882534" />
    <path
       sodipodi:nodetypes="cssscsscsssscsc"
       id="path2817"
       d="m 408.65906,97.37835 c -5.08154,0.07312 -10.914,2.58289 -17.03757,8.77936 -21.77269,22.03188 -40.17585,25.93719 -52.87658,25.93719 -12.70073,0 -24.36452,-5.44436 -33.95487,-7.77714 -6.88568,-1.67491 -8.66786,3.17197 -9.14014,6.05334 1.3473,-0.20872 2.76068,-0.3608 4.20927,-0.3608 9.7293,-1e-5 17.6389,4.99224 17.6389,11.14458 1e-5,3.8988 -3.17851,7.34853 -7.97759,9.34059 9.83489,10.52888 28.58303,10.66353 28.58302,10.66351 47.66847,2.24322 64.36332,-30.69034 66.18593,-34.19539 1.82261,-3.50503 3.92995,-4.20863 5.61237,-3.36742 1.68242,0.84121 -0.28062,5.17139 -0.28062,5.1714 -6.58886,20.32535 -37.9637,34.1553 -37.9637,34.1553 31.10383,-5.18396 44.47848,-22.0856 52.35543,-38.36458 5.58897,-11.55054 -2.36769,-27.36677 -15.35385,-27.17994 z"
       style="display:inline;overflow:visible;visibility:visible;fill:#ffffff;fill-opacity:1;fill-rule:nonzero;stroke:#ffffff;stroke-width:1.28282845;stroke-linecap:butt;stroke-linejoin:miter;stroke-miterlimit:4;stroke-dasharray:none;stroke-dashoffset:0;stroke-opacity:1;marker:none;marker-start:none;marker-mid:none;marker-end:none"
       inkscape:connector-curvature="0" />
    <path
       sodipodi:nodetypes="cscsscsssc"
       id="path2819"
       d="m 351.81372,37.68675 c -15.68812,0.12929 -31.41248,14.72593 -37.08175,35.75884 -2.29603,8.51817 -2.62717,16.94053 -1.32292,24.49401 2.07902,-4.56216 5.67702,-7.5767 9.78156,-7.5767 6.43849,0 11.66572,7.43961 11.66572,16.59659 2e-5,6.88442 -6.67953,13.13521 -10.88167,15.64425 2.24664,1.49715 7.79311,4.14345 10.52624,4.47919 17.68284,2.17219 37.81312,-12.36172 44.29231,-36.39933 6.47918,-24.0376 -2.60191,-47.38871 -20.28473,-52.15499 -2.21034,-0.59579 -4.45359,-0.86033 -6.69476,-0.84186 z"
       style="fill:#ffffff;fill-opacity:1;stroke:#ffffff;stroke-width:1.28282845;stroke-linecap:butt;stroke-linejoin:miter;stroke-miterlimit:4;stroke-dasharray:none;stroke-dashoffset:0;stroke-opacity:1"
       inkscape:connector-curvature="0" />
    <path
       sodipodi:nodetypes="ccccsscc"
       id="path3709"
       d="m 308.84436,94.19048 c 4.3499,-41.91223 -3.33528,-37.79979 -3.33528,-37.79979 -14.62503,-0.19395 -18.63841,37.60893 -18.52931,41.87625 0,0 -0.0576,20.75283 12.17178,22.97635 0,0 -3.73984,-4.0437 -3.64829,-15.93522 0.073,-9.26482 3.34653,-10.76645 5.92938,-11.11759 3.56281,-0.48436 6.74153,8.30269 6.29996,8.52348 l 1.11176,-8.52348 z"
       style="display:inline;overflow:visible;visibility:visible;fill:#ffffff;fill-opacity:1;fill-rule:nonzero;stroke:#ffffff;stroke-width:1.28282845;stroke-linecap:butt;stroke-linejoin:miter;stroke-miterlimit:4;stroke-dasharray:none;stroke-dashoffset:0;stroke-opacity:1;marker:none;marker-start:none;marker-mid:none;marker-end:none"
       inkscape:connector-curvature="0" />
    <path
       id="path3711"
       d="m 267.07739,123.12025 27.80701,12.26779 -8.45115,2.18095 -17.44753,-5.17974"
       style="display:inline;overflow:visible;visibility:visible;fill:none;fill-opacity:1;fill-rule:nonzero;stroke:#000000;stroke-width:6.92727375;stroke-linecap:round;stroke-linejoin:miter;stroke-miterlimit:4;stroke-dasharray:none;stroke-dashoffset:0;stroke-opacity:1;marker:none;marker-start:none;marker-mid:none;marker-end:none"
       inkscape:connector-curvature="0" />
    <path
       id="path3713"
       d="m 436.64563,111.39768 c 0,0 48.79858,-13.08566 69.79014,-11.99519"
       style="display:inline;overflow:visible;visibility:visible;fill:none;fill-opacity:1;fill-rule:nonzero;stroke:#000000;stroke-width:6.92727375;stroke-linecap:round;stroke-linejoin:miter;stroke-miterlimit:4;stroke-dasharray:none;stroke-dashoffset:0;stroke-opacity:1;marker:none;marker-start:none;marker-mid:none;marker-end:none"
       inkscape:connector-curvature="0" />
    <path
       id="path3715"
       d="m 429.55757,121.21193 c 0,0 42.25575,2.72617 84.78411,-7.63331"
       style="display:inline;overflow:visible;visibility:visible;fill:none;fill-opacity:1;fill-rule:nonzero;stroke:#000000;stroke-width:6.92727375;stroke-linecap:round;stroke-linejoin:miter;stroke-miterlimit:4;stroke-dasharray:none;stroke-dashoffset:0;stroke-opacity:1;marker:none;marker-start:none;marker-mid:none;marker-end:none"
       inkscape:connector-curvature="0" />
    <path
       id="path3717"
       d="m 151.48749,96.4037 c 0,0 -6.81546,-16.08445 3.54403,-28.35224 10.35946,-12.2678 12.54042,-17.44753 14.17611,-25.89868 1.63571,-8.45115 3.27142,-14.17612 9.81423,-19.9011 L 164.57312,13.2553 c 0,0 -10.9047,8.45115 -11.17731,24.26297 -0.27262,15.81184 -8.99639,26.44392 -8.99639,26.44392 0,0 -9.54163,8.45116 -5.72497,33.25937 l 12.81304,-0.81786 z"
       style="display:inline;overflow:visible;visibility:visible;fill:#000000;fill-opacity:1;fill-rule:nonzero;stroke:#000000;stroke-width:1.28282845;stroke-linecap:butt;stroke-linejoin:miter;stroke-miterlimit:4;stroke-dasharray:none;stroke-dashoffset:0;stroke-opacity:1;marker:none;marker-start:none;marker-mid:none;marker-end:none"
       inkscape:connector-curvature="0" />
    <path
       id="path3719"
       d="m 157.48507,9.98389 c 0,0 -14.17612,4.36189 -23.17251,11.72256"
       style="display:inline;overflow:visible;visibility:visible;fill:none;fill-opacity:1;fill-rule:nonzero;stroke:#ff0000;stroke-width:6.92727375;stroke-linecap:round;stroke-linejoin:miter;stroke-miterlimit:4;stroke-dasharray:none;stroke-dashoffset:0;stroke-opacity:1;marker:none;marker-start:none;marker-mid:none;marker-end:none"
       inkscape:connector-curvature="0" />
    <path
       id="path3721"
       d="m 191.8349,13.52792 c 0,0 10.90471,-5.45236 47.43549,-2.72617"
       style="display:inline;overflow:visible;visibility:visible;fill:none;fill-opacity:1;fill-rule:nonzero;stroke:#ff0000;stroke-width:6.92727375;stroke-linecap:round;stroke-linejoin:miter;stroke-miterlimit:4;stroke-dasharray:none;stroke-dashoffset:0;stroke-opacity:1;marker:none;marker-start:none;marker-mid:none;marker-end:none"
       inkscape:connector-curvature="0" />
    <path
       id="path3723"
       d="m 194.28846,6.16724 c 0,0 21.53681,-13.90351 44.43669,-13.90351"
       style="display:inline;overflow:visible;visibility:visible;fill:none;fill-opacity:1;fill-rule:nonzero;stroke:#ff0000;stroke-width:6.92727375;stroke-linecap:round;stroke-linejoin:miter;stroke-miterlimit:4;stroke-dasharray:none;stroke-dashoffset:0;stroke-opacity:1;marker:none;marker-start:none;marker-mid:none;marker-end:none"
       inkscape:connector-curvature="0" />
    <path
       id="path3725"
       d="m 192.38014,-1.46606 c 0,0 15.53921,-14.99397 42.52837,-24.80821"
       style="display:inline;overflow:visible;visibility:visible;fill:none;fill-opacity:1;fill-rule:nonzero;stroke:#ff0000;stroke-width:6.92727375;stroke-linecap:round;stroke-linejoin:miter;stroke-miterlimit:4;stroke-dasharray:none;stroke-dashoffset:0;stroke-opacity:1;marker:none;marker-start:none;marker-mid:none;marker-end:none"
       inkscape:connector-curvature="0" />
    <path
       id="path3727"
       d="m 185.56469,-7.73627 c 0,0 13.6309,-16.35706 44.43671,-32.714124"
       style="display:inline;overflow:visible;visibility:visible;fill:none;fill-opacity:1;fill-rule:nonzero;stroke:#ff0000;stroke-width:6.92727375;stroke-linecap:round;stroke-linejoin:miter;stroke-miterlimit:4;stroke-dasharray:none;stroke-dashoffset:0;stroke-opacity:1;marker:none;marker-start:none;marker-mid:none;marker-end:none"
       inkscape:connector-curvature="0" />
    <path
       id="path3729"
       d="m 180.65757,-16.73265 c 0,0 10.35947,-16.35706 26.71655,-31.078423"
       style="display:inline;overflow:visible;visibility:visible;fill:none;fill-opacity:1;fill-rule:nonzero;stroke:#ff0000;stroke-width:6.92727375;stroke-linecap:round;stroke-linejoin:miter;stroke-miterlimit:4;stroke-dasharray:none;stroke-dashoffset:0;stroke-opacity:1;marker:none;marker-start:none;marker-mid:none;marker-end:none"
       inkscape:connector-curvature="0" />
    <path
       id="path3731"
       d="m 173.2969,-13.46124 0,-19.90109"
       style="display:inline;overflow:visible;visibility:visible;fill:none;fill-opacity:1;fill-rule:nonzero;stroke:#ff0000;stroke-width:6.92727375;stroke-linecap:round;stroke-linejoin:miter;stroke-miterlimit:4;stroke-dasharray:none;stroke-dashoffset:0;stroke-opacity:1;marker:none;marker-start:none;marker-mid:none;marker-end:none"
       inkscape:connector-curvature="0" />
    <path
       sodipodi:nodetypes="cc"
       id="path3733"
       d="m 165.39098,-11.55292 c -4.48544,-8.887775 -8.81576,-16.971308 -15.76682,-23.385121"
       style="display:inline;overflow:visible;visibility:visible;fill:none;fill-opacity:1;fill-rule:nonzero;stroke:#ff0000;stroke-width:6.92727375;stroke-linecap:round;stroke-linejoin:miter;stroke-miterlimit:4;stroke-dasharray:none;stroke-dashoffset:0;stroke-opacity:1;marker:none;marker-start:none;marker-mid:none;marker-end:none"
       inkscape:connector-curvature="0" />
    <path
       sodipodi:nodetypes="cc"
       id="path3735"
       d="m 157.75769,-5.82795 c -4.20729,-4.915968 -9.1866,-9.638931 -18.30043,-13.328266"
       style="display:inline;overflow:visible;visibility:visible;fill:none;fill-opacity:1;fill-rule:nonzero;stroke:#ff0000;stroke-width:6.92727375;stroke-linecap:round;stroke-linejoin:miter;stroke-miterlimit:4;stroke-dasharray:none;stroke-dashoffset:0;stroke-opacity:1;marker:none;marker-start:none;marker-mid:none;marker-end:none"
       inkscape:connector-curvature="0" />
    <path
       id="path3737"
       d="m 154.75889,2.35059 c 0,0 -13.63089,-0.54523 -23.44512,4.08927"
       style="display:inline;overflow:visible;visibility:visible;fill:none;fill-opacity:1;fill-rule:nonzero;stroke:#ff0000;stroke-width:6.92727375;stroke-linecap:round;stroke-linejoin:miter;stroke-miterlimit:4;stroke-dasharray:none;stroke-dashoffset:0;stroke-opacity:1;marker:none;marker-start:none;marker-mid:none;marker-end:none"
       inkscape:connector-curvature="0" />
  </g>
  <path
     style="font-style:normal;font-weight:normal;font-size:56.97143936px;font-family:'Bitstream Vera Sans';fill:#ffffff;fill-opacity:1;stroke:none;stroke-width:1px;stroke-linecap:butt;stroke-linejoin:miter;stroke-opacity:1"
     d="m 161.02924,64.471031 c -2.27889,9.72313 -8.20391,14.58468 -17.77508,14.58469 -6.15293,-1e-5 -10.76762,-2.25987 -13.84406,-6.77961 -2.54473,-3.7601 -3.81709,-8.65964 -3.81709,-14.69863 0,-7.67212 1.89904,-13.35027 5.69714,-17.03446 3.22837,-3.1144 7.67214,-4.67161 13.33132,-4.67166 3.87403,5e-5 7.15938,0.8926 9.85606,2.67766 3.30431,2.20294 5.33629,5.64021 6.09594,10.31183 l -3.988,0 c -0.75965,-3.57017 -2.33586,-6.13389 -4.72863,-7.69114 -2.01302,-1.3293 -4.70966,-1.99396 -8.08994,-1.994 -4.70966,4e-5 -8.33684,1.80413 -10.88155,5.41229 -2.27886,3.26639 -3.41829,7.53924 -3.41828,12.81857 -1e-5,5.16542 1.00648,9.32434 3.01948,12.47674 2.50673,3.91205 6.3618,5.86806 11.56521,5.86806 2.9245,0 5.45024,-0.79759 7.5772,-2.3928 2.58267,-1.93702 4.36777,-4.89953 5.35531,-8.88754 l 4.04497,0 m 32.51111,-1.25337 c -3e-5,4.55772 -1.21542,8.29884 -3.64617,11.22337 -2.43081,2.88655 -5.75414,4.32983 -9.97,4.32983 -3.95004,0 -7.17841,-1.31034 -9.68515,-3.93103 -2.69665,-2.84857 -4.04497,-6.70363 -4.04497,-11.5652 0,-4.70962 1.1964,-8.48872 3.5892,-11.33732 2.43077,-2.84854 5.79208,-4.27283 10.08394,-4.27286 4.36779,3e-5 7.76709,1.4623 10.19789,4.3868 2.31681,2.81062 3.47523,6.53275 3.47526,11.16641 m -3.64617,0.11394 c -3e-5,-3.79808 -0.74066,-6.76059 -2.22189,-8.88755 -1.70916,-2.46873 -4.31086,-3.70311 -7.80509,-3.70314 -3.19041,3e-5 -5.65917,1.13946 -7.40628,3.41829 -1.74713,2.27888 -2.62069,5.29836 -2.62069,9.05846 0,3.91205 0.89255,6.96951 2.67766,9.1724 1.78509,2.2029 4.25385,3.30434 7.40629,3.30434 3.30432,0 5.84904,-1.27236 7.63417,-3.81709 1.55719,-2.24086 2.3358,-5.08943 2.33583,-8.54571 m 49.60165,14.64166 -3.41829,0 0,-20.45275 c -4e-5,-2.27883 -0.49379,-3.96898 -1.48125,-5.07046 -0.94957,-1.1394 -2.54476,-1.70911 -4.7856,-1.70914 -1.59524,3e-5 -3.0575,0.41782 -4.38681,1.25337 -1.32936,0.79763 -2.31686,1.8421 -2.96251,3.13343 -0.37984,0.75964 -0.70267,1.76614 -0.96851,3.01949 -0.22792,1.21541 -0.34186,2.4308 -0.34183,3.64617 l 0,16.17989 -3.41829,0 0,-20.45275 c -2e-5,-2.39278 -0.53175,-4.12091 -1.5952,-5.1844 -1.02551,-1.06344 -2.54474,-1.59517 -4.55772,-1.5952 -1.8231,3e-5 -3.43728,0.47479 -4.84257,1.42429 -1.13944,0.75964 -1.99401,1.70916 -2.56371,2.84857 -0.34184,0.72166 -0.66468,1.72815 -0.96852,3.01948 -0.26587,1.2534 -0.3988,2.50677 -0.3988,3.76012 l 0,16.17989 -3.41828,0 0,-29.51121 3.41828,0 0,4.50075 c 0.87356,-1.63316 2.12693,-2.92451 3.76012,-3.87406 1.67115,-0.9495 3.5512,-1.42426 5.64017,-1.42429 2.24086,3e-5 4.02596,0.47479 5.35532,1.42429 1.36729,0.91157 2.41176,2.33585 3.13342,4.27286 0.91152,-1.86104 2.22186,-3.26634 3.93103,-4.21589 1.7471,-0.98747 3.62715,-1.48123 5.64018,-1.48126 3.1144,3e-5 5.43123,0.89258 6.95051,2.67766 1.5192,1.74715 2.27882,4.6337 2.27886,8.65966 l 0,18.97149 m 11.96311,-35.94898 -3.76011,0 0,-5.07046 3.76011,0 0,5.07046 m -0.17091,35.94898 -3.41829,0 0,-29.51121 3.41829,0 0,29.51121 m 33.59357,-10.19789 c -0.72167,3.83608 -2.29788,6.68465 -4.72863,8.54572 -2.12696,1.63318 -4.74764,2.44977 -7.86206,2.44977 -4.67167,0 -8.18491,-1.53823 -10.53972,-4.61469 -2.08895,-2.73462 -3.13343,-6.3618 -3.13343,-10.88154 0,-4.29183 1.12044,-7.88103 3.36132,-10.7676 2.50673,-3.22836 5.92502,-4.84255 10.25486,-4.84258 3.45625,3e-5 6.20986,0.81662 8.26086,2.44977 2.08892,1.63321 3.39926,4.17793 3.93103,7.63418 l -3.47526,0 c -0.6457,-2.39278 -1.74715,-4.15889 -3.30435,-5.29835 -1.51925,-1.1394 -3.32335,-1.70911 -5.41228,-1.70914 -3.19042,3e-5 -5.65918,1.19643 -7.40629,3.5892 -1.70915,2.39282 -2.56372,5.37433 -2.56371,8.94452 -10e-6,3.57022 0.7786,6.45677 2.33582,8.65966 1.7851,2.50674 4.34881,3.76011 7.69115,3.76011 2.46874,0 4.48173,-0.70264 6.03897,-2.10794 1.5572,-1.40529 2.52571,-3.34232 2.90554,-5.81109 l 3.64618,0 m 55.2614,10.19789 -4.61468,0 -3.988,-4.84257 c -1.74715,2.08895 -3.66519,3.60819 -5.75412,4.55771 -2.05099,0.91154 -4.44379,1.36731 -7.1784,1.36732 -3.64618,-1e-5 -6.66567,-1.10145 -9.05846,-3.30435 -2.50675,-2.31683 -3.76012,-5.27934 -3.76011,-8.88754 -10e-6,-2.81058 0.94952,-5.3553 2.84857,-7.63417 1.67115,-1.97499 3.98799,-3.66515 6.95051,-5.07046 -1.4053,-1.63316 -2.44978,-3.09542 -3.13343,-4.3868 -0.83559,-1.59517 -1.25338,-3.19037 -1.25337,-4.7856 -10e-6,-2.46873 0.87356,-4.42475 2.62069,-5.86806 1.74711,-1.44324 3.93101,-2.16488 6.55171,-2.16492 2.46875,4e-5 4.51972,0.75966 6.15292,2.27886 1.67114,1.48129 2.50672,3.39933 2.50674,5.75412 -2e-5,2.20292 -0.68368,4.10197 -2.05097,5.69714 -1.17743,1.40532 -3.19042,2.90557 -6.03897,4.50074 l 10.31183,12.19189 c 0.72161,-1.25336 1.17738,-2.43077 1.36731,-3.53223 0.22786,-1.13941 0.3418,-2.62067 0.34183,-4.44377 l 3.36132,0 c -4e-5,2.39282 -0.24691,4.4248 -0.74063,6.09594 -0.49379,1.6332 -1.19643,3.17142 -2.10795,4.61469 l 6.66566,7.86206 m -14.7556,-32.87252 c -2e-5,-1.40526 -0.47478,-2.60166 -1.42429,-3.5892 -0.94954,-0.98747 -2.20291,-1.48122 -3.76011,-1.48126 -1.70916,4e-5 -3.05748,0.4748 -4.04497,1.42429 -0.98752,0.94956 -1.48127,2.10797 -1.48126,3.47525 -10e-6,0.94956 0.39879,2.10798 1.1964,3.47526 0.68364,1.21542 1.70913,2.62071 3.07646,4.21589 2.24086,-1.29133 3.83606,-2.44975 4.7856,-3.47526 1.10143,-1.21536 1.65215,-2.56368 1.65217,-4.04497 m 3.93103,25.40926 -11.67915,-13.90103 c -2.31685,1.06349 -4.23488,2.54474 -5.75411,4.44377 -1.48127,1.86108 -2.22189,3.89306 -2.22189,6.09595 0,2.69665 0.87356,4.84257 2.62069,6.43777 1.74711,1.5952 3.95001,2.3928 6.60869,2.3928 2.08893,0 4.00697,-0.49375 5.75411,-1.48126 1.7471,-1.02548 3.30432,-2.35481 4.67166,-3.988 m 65.07918,7.46326 -3.988,0 -4.72863,-12.87555 -18.68663,0 -4.84258,12.87555 -3.988,0 16.12292,-41.01944 4.3868,0 15.72412,41.01944 m -10.02698,-16.17989 -8.03297,-21.5352 -8.03297,21.5352 16.06594,0 m 38.51094,16.17989 -3.41829,0 0,-19.37029 c -2e-5,-5.24135 -2.50676,-7.86203 -7.52023,-7.86206 -3.64619,3e-5 -6.26687,1.57624 -7.86206,4.72863 -0.79761,1.59522 -1.19641,3.55124 -1.1964,5.86806 l 0,16.63566 -3.41829,0 0,-29.51121 3.41829,0 0,4.10195 c 1.51923,-1.63316 3.01948,-2.84855 4.50074,-3.64618 1.51923,-0.83555 3.19039,-1.25334 5.01349,-1.25337 1.5572,3e-5 3.00048,0.22792 4.32983,0.68366 1.36729,0.41782 2.5447,1.13946 3.53223,2.16491 0.98748,0.98754 1.67114,2.06999 2.05097,3.24738 0.37978,1.17743 0.56969,2.65869 0.56972,4.44377 l 0,19.76909 m 12.39929,-35.94898 -3.76011,0 0,-5.07046 3.76011,0 0,5.07046 m -0.17091,35.94898 -3.41829,0 0,-29.51121 3.41829,0 0,29.51121 m 48.40612,0 -3.41829,0 0,-20.45275 c -4e-5,-2.27883 -0.49379,-3.96898 -1.48125,-5.07046 -0.94957,-1.1394 -2.54476,-1.70911 -4.7856,-1.70914 -1.59524,3e-5 -3.0575,0.41782 -4.3868,1.25337 -1.32937,0.79763 -2.31687,1.8421 -2.96252,3.13343 -0.37984,0.75964 -0.70267,1.76614 -0.96851,3.01949 -0.22792,1.21541 -0.34186,2.4308 -0.34183,3.64617 l 0,16.17989 -3.41829,0 0,-20.45275 c -2e-5,-2.39278 -0.53175,-4.12091 -1.5952,-5.1844 -1.0255,-1.06344 -2.54474,-1.59517 -4.55771,-1.5952 -1.8231,3e-5 -3.43729,0.47479 -4.84258,1.42429 -1.13944,0.75964 -1.99401,1.70916 -2.56371,2.84857 -0.34184,0.72166 -0.66468,1.72815 -0.96852,3.01948 -0.26587,1.2534 -0.3988,2.50677 -0.3988,3.76012 l 0,16.17989 -3.41828,0 0,-29.51121 3.41828,0 0,4.50075 c 0.87356,-1.63316 2.12693,-2.92451 3.76012,-3.87406 1.67115,-0.9495 3.5512,-1.42426 5.64017,-1.42429 2.24086,3e-5 4.02596,0.47479 5.35532,1.42429 1.36729,0.91157 2.41176,2.33585 3.13343,4.27286 0.91151,-1.86104 2.22185,-3.26634 3.93102,-4.21589 1.7471,-0.98747 3.62715,-1.48123 5.64018,-1.48126 3.1144,3e-5 5.43123,0.89258 6.95051,2.67766 1.5192,1.74715 2.27882,4.6337 2.27886,8.65966 l 0,18.97149 m 34.18199,-0.11394 c -0.64571,0.22788 -1.13946,0.37981 -1.48126,0.45577 -0.30387,0.07596 -0.70267,0.11394 -1.1964,0.11394 -1.48128,0 -2.52576,-0.28486 -3.13343,-0.85457 -0.75964,-0.68366 -1.13945,-1.91804 -1.13943,-3.70314 -1.51926,1.70914 -3.30436,2.9815 -5.35531,3.81708 -1.78512,0.72164 -3.66518,1.08246 -5.64017,1.08246 -2.8106,0 -5.12744,-0.72164 -6.95052,-2.16492 -1.93703,-1.55721 -2.90555,-3.66515 -2.90554,-6.32383 -1e-5,-2.62067 0.96851,-4.69063 2.90554,-6.20988 1.74712,-1.3673 4.21588,-2.25985 7.40629,-2.67766 l 4.27286,-0.56971 c 0.83556,-0.11393 1.69013,-0.22787 2.56371,-0.34183 1.44326,-0.22787 2.41177,-0.58869 2.90554,-1.08246 0.49373,-0.49373 0.74061,-1.3673 0.74063,-2.62069 -2e-5,-1.89902 -0.60772,-3.38028 -1.82308,-4.44377 -1.17743,-1.06344 -3.00052,-1.59517 -5.46926,-1.5952 -2.81061,3e-5 -4.88057,0.53176 -6.20989,1.5952 -1.32934,1.06349 -2.14593,2.75364 -2.44977,5.07046 l -3.47526,0 c 0,-2.84855 0.9875,-5.1464 2.96252,-6.89355 2.1649,-1.89901 5.22237,-2.84854 9.1724,-2.84857 3.1524,3e-5 5.62116,0.62672 7.40629,1.88006 2.20287,1.55725 3.30431,4.02601 3.30434,7.40629 l 0,15.952 c -3e-5,1.82309 0.51271,2.73463 1.53823,2.73463 0.56968,0 1.25334,-0.15192 2.05097,-0.45577 l 0,2.67766 m -7.00749,-10.76761 0,-4.61468 c -1.67118,0.68367 -3.66518,1.13944 -5.982,1.36731 -4.25388,0.45579 -6.95052,0.96853 -8.08994,1.53823 -2.05098,1.0255 -3.07647,2.67767 -3.07646,4.95652 -10e-6,1.63318 0.60769,2.94352 1.82309,3.93103 1.25336,0.94952 2.82957,1.42428 4.72862,1.42428 2.7726,0 5.14641,-0.66466 7.12143,-1.994 2.31682,-1.55721 3.47524,-3.76011 3.47526,-6.60869 m 22.7681,10.99549 c -0.37982,0.11394 -1.00651,0.24688 -1.88006,0.3988 -0.83559,0.18991 -1.51924,0.28486 -2.05097,0.28486 -1.89905,0 -3.24738,-0.47476 -4.04497,-1.42429 -0.7976,-0.94952 -1.1964,-2.41179 -1.1964,-4.3868 l 0,-21.64914 -4.15891,0 0,-2.84858 4.15891,0 0,-8.20388 3.41829,0 0,8.20388 5.52623,0 0,2.84858 -5.52623,0 0,20.68063 c -10e-6,1.48126 0.18989,2.46876 0.56971,2.96251 0.3798,0.49376 1.19639,0.74063 2.44977,0.74063 1.02548,0 1.93702,-0.15192 2.73463,-0.45577 l 0,2.84857 m 9.5338,-36.06292 -3.76011,0 0,-5.07046 3.76011,0 0,5.07046 m -0.17091,35.94898 -3.41829,0 0,-29.51121 3.41829,0 0,29.51121 m 34.16329,-14.7556 c -3e-5,4.55772 -1.21542,8.29884 -3.64617,11.22337 -2.43081,2.88655 -5.75414,4.32983 -9.97,4.32983 -3.95004,0 -7.17841,-1.31034 -9.68515,-3.93103 -2.69665,-2.84857 -4.04497,-6.70363 -4.04497,-11.5652 0,-4.70962 1.1964,-8.48872 3.5892,-11.33732 2.43077,-2.84854 5.79208,-4.27283 10.08394,-4.27286 4.36779,3e-5 7.76709,1.4623 10.19789,4.3868 2.31681,2.81062 3.47523,6.53275 3.47526,11.16641 m -3.64617,0.11394 c -3e-5,-3.79808 -0.74066,-6.76059 -2.22189,-8.88755 -1.70916,-2.46873 -4.31086,-3.70311 -7.80509,-3.70314 -3.19041,3e-5 -5.65917,1.13946 -7.40628,3.41829 -1.74713,2.27888 -2.62069,5.29836 -2.62069,9.05846 0,3.91205 0.89255,6.96951 2.67766,9.1724 1.78509,2.2029 4.25385,3.30434 7.40629,3.30434 3.30432,0 5.84904,-1.27236 7.63417,-3.81709 1.55719,-2.24086 2.3358,-5.08943 2.33583,-8.54571 m 33.36479,14.64166 -3.41829,0 0,-19.37029 c -2e-5,-5.24135 -2.50677,-7.86203 -7.52023,-7.86206 -3.64619,3e-5 -6.26687,1.57624 -7.86206,4.72863 -0.79761,1.59522 -1.19641,3.55124 -1.1964,5.86806 l 0,16.63566 -3.41829,0 0,-29.51121 3.41829,0 0,4.10195 c 1.51923,-1.63316 3.01948,-2.84855 4.50074,-3.64618 1.51923,-0.83555 3.19039,-1.25334 5.01349,-1.25337 1.5572,3e-5 3.00048,0.22792 4.32983,0.68366 1.36729,0.41782 2.5447,1.13946 3.53223,2.16491 0.98748,0.98754 1.67114,2.06999 2.05097,3.24738 0.37978,1.17743 0.56969,2.65869 0.56972,4.44377 l 0,19.76909"
     id="text3224"
     inkscape:connector-curvature="0" />
</svg>
