<svg width="1907" height="1984" viewBox="0 0 1907 1984" fill="none" xmlns="http://www.w3.org/2000/svg">
<path d="M1338.89 893.37C1359.46 888.007 1379.98 882.345 1400.65 877.379C1416.09 873.654 1417.73 875.542 1414.59 890.838C1400.65 958.726 1386.8 1026.61 1372.76 1094.5C1357.66 1167.61 1342.08 1240.61 1327.48 1313.76C1325.24 1324.99 1320.16 1329.65 1309.55 1332.14C1240.72 1347.98 1171.24 1360.59 1101.91 1373.9C1050.01 1383.84 998.514 1395.75 945.969 1402.31C925.698 1404.84 906.423 1401.02 886.949 1397.29C778.92 1376.58 670.99 1355.53 562.911 1335.07C551.008 1332.83 545.778 1327.77 543.487 1315.5C518.235 1181.51 492.336 1047.62 466.786 913.682C464.993 904.395 464.495 894.86 463.1 885.524C461.955 877.677 465.64 876.088 472.464 877.429C486.708 880.259 501.002 882.991 515.197 886.914C508.922 881.6 501.899 878.174 494.328 875.442C488.85 873.456 483.919 870.873 483.172 863.722C481.927 851.356 484.865 848.525 496.918 852.25C577.504 876.982 657.991 901.863 738.577 926.594C741.316 927.439 744.205 927.786 746.994 928.333C752.373 930.369 757.652 932.653 763.081 934.441C822.251 953.809 882.416 971.241 928.736 1016.43C933.418 1021 937.302 1019.51 941.436 1015.64C968.879 990.212 1002.3 974.966 1036.42 961.209C1063.51 950.283 1091.1 940.649 1118.5 930.468C1144.89 925.353 1170 915.818 1195.65 908.17C1255.71 890.192 1315.63 871.668 1375.69 853.69C1380.18 852.349 1387.7 847.085 1389.74 855.975C1391.33 863.027 1392.73 871.519 1381.82 875.095C1367.03 879.912 1352.24 885.077 1338.74 893.271C1328.13 896.648 1316.18 896.449 1304.92 906.481C1318.42 902.359 1329.62 900.571 1338.89 893.47V893.37ZM1211.73 935.881C1153.76 953.462 1095.49 970.247 1037.81 988.871C1000.36 1000.99 963.749 1015.74 940.042 1050.4C935.31 1057.31 931.027 1053.33 927.59 1048.42C909.013 1022 882.018 1007.39 853.031 995.526C805.466 976.008 755.61 963.841 706.502 949.29C693.004 945.317 679.806 940.152 665.611 939.06C693.801 950.681 722.141 961.557 750.431 972.78C800.037 992.447 849.793 1011.91 886.6 1053.13C889.887 1056.81 893.772 1056.56 897.906 1056.56C920.667 1056.71 943.429 1056.71 966.19 1057.21C972.814 1057.36 977.944 1055.92 982.676 1050.85C1001.5 1030.69 1024.01 1015.69 1048.82 1003.67C1073.37 991.751 1098.77 981.918 1124.07 971.837C1153.06 960.315 1182.25 949.389 1211.38 938.166C1225.48 933.646 1239.62 929.177 1253.72 924.658C1253.32 923.515 1252.92 922.323 1252.47 921.181C1238.88 926.048 1225.33 930.915 1211.73 935.832V935.881Z" fill="#09090B"/>
<path d="M883.511 266.282C886.55 266.679 887.745 264.097 889.339 262.458C966.887 182.65 1051.21 110.292 1137.07 39.6726C1146.29 32.0743 1155.75 24.6746 1165.21 17.4239C1168 15.2884 1171.19 11.3651 1174.93 14.1958C1179.01 17.2252 1175.52 21.0492 1173.88 24.0786C1149.87 68.4767 1125.72 112.825 1101.61 157.174C1076.86 202.764 1052.15 248.304 1027.45 293.894C1026.31 296.029 1025.51 298.314 1024.46 300.698C1028.45 303.28 1030.84 300.251 1033.33 298.761C1123.28 244.977 1213.23 191.093 1303.13 137.209C1318.37 128.072 1333.36 118.586 1348.45 109.249C1351.89 107.114 1355.87 102.942 1359.41 106.369C1363.94 110.789 1358.56 114.613 1356.07 117.841C1327.48 154.542 1298.74 191.093 1270.01 227.644C1230.86 277.505 1193.15 328.459 1155.85 379.661C1154.75 381.2 1151.17 382.094 1153.21 385.322C1155.75 389.345 1158.49 385.769 1160.63 385.124C1216.56 369.033 1273.14 355.475 1329.82 342.464C1364.39 334.518 1398.65 325.181 1433.77 319.818C1435.41 319.569 1437 319.172 1438.65 319.073C1442.28 318.874 1447.07 317.434 1448.81 321.407C1450.7 325.728 1445.87 327.565 1443.03 329.601C1373.2 379.661 1303.33 429.671 1233.5 479.73C1226.97 484.399 1220.5 489.166 1211.78 495.473C1246.25 501.929 1277.73 507.79 1309.2 513.799C1349 521.347 1388.79 528.946 1428.59 536.494C1433.07 537.339 1439.05 537.537 1439.1 542.901C1439.15 547.768 1432.77 547.718 1429.19 548.662C1365.83 565.994 1303.08 585.163 1240.77 605.922C1230.71 609.299 1230.26 610.988 1237.48 618.685C1261.54 644.212 1284.85 670.483 1308.36 696.556C1310.45 698.89 1314.03 701.224 1312.54 704.85C1310.75 709.17 1306.21 707.978 1302.63 707.978C1262.48 708.227 1222.29 708.326 1182.15 708.574C1177.62 708.574 1173.08 708.972 1168.55 709.17C1165.06 703.707 1160.13 702.118 1153.76 702.515C1145.49 703.062 1137.12 701.87 1128.96 702.813C1116.85 704.254 1114.96 699.337 1115.16 688.163C1115.56 668.149 1120.49 647.39 1111.62 628.221C1090.65 582.879 1068.89 537.885 1047.37 492.791C1045.63 489.166 1044.29 484.001 1039.16 484.945C1033.93 485.938 1035.07 491.451 1034.52 495.275C1029.39 530.386 1024.46 565.497 1019.33 600.608C1018.73 604.73 1019.33 609.448 1015.3 613.521C1013.11 610.591 1011.16 608.505 1009.77 606.071C965.044 529.393 920.318 452.714 875.542 376.085C873.55 372.708 872.156 367.394 867.225 367.99C861.945 368.636 862.643 374.198 861.846 378.022C853.329 418.844 845.011 459.667 836.395 500.489C835.299 505.704 835.2 511.465 831.664 516.282C827.629 513.153 827.38 509.279 826.135 505.803C816.871 479.78 807.707 453.757 798.244 427.833C796.949 424.258 797.397 418.099 792.267 418.199C787.286 418.298 787.436 424.109 786.39 427.933C777.773 461.107 772.594 495.026 766.667 528.697C757.353 581.538 750.53 634.776 744.503 688.113C743.856 693.924 743.607 698.691 735.638 698.195C720.397 697.202 705.107 696.705 689.816 696.059C686.18 678.181 686.778 659.955 686.18 641.878C685.782 629.76 681.698 628.121 670.84 629.115C616.452 634.13 562.064 638.401 507.626 642.921C504.737 643.169 501.799 643.566 498.96 643.318C492.734 642.821 491.937 639.643 495.772 635.223C499.856 630.555 504.14 626.085 508.523 621.665C544.383 585.61 580.193 549.456 616.352 513.699C622.08 508.038 623.375 504.462 617.797 497.609C566.895 435.283 516.392 372.658 465.789 310.084C463.647 307.402 459.015 304.82 462.552 300.896C465.54 297.519 469.773 300.35 472.961 301.741C515.396 320.116 557.781 338.54 600.066 357.313C627.808 369.679 655.251 382.641 684.636 396.149C676.667 360.193 669.196 326.125 661.526 292.056C650.42 242.642 639.164 193.228 628.007 143.814C627.758 142.623 627.459 141.331 627.559 140.139C627.758 136.762 624.122 132.491 629.003 130.207C633.735 128.022 635.428 132.541 637.62 135.322C655.749 158.316 673.779 181.359 691.858 204.402C707.647 224.516 723.784 244.381 739.224 264.792C744.354 271.546 746.695 269.559 750.33 263.898C806.96 175.052 870.163 90.8744 933.218 6.5975C935.758 3.22046 937.65 -1.54712 942.332 0.489038C947.462 2.7735 944.374 7.7894 943.528 11.5637C925.099 92.2153 906.422 172.867 884.906 252.774C883.76 257.094 880.174 261.464 883.661 266.331C883.113 266.331 882.565 266.331 882.017 266.331C882.167 266.828 882.366 267.325 882.515 267.821L883.561 266.182L883.511 266.282Z" fill="#09090B"/>
<path d="M689.866 696.112C705.157 696.807 720.447 697.254 735.688 698.247C743.657 698.793 743.906 693.976 744.553 688.166C750.53 634.828 757.403 581.59 766.717 528.75C772.644 495.029 777.824 461.159 786.44 427.985C787.436 424.161 787.287 418.301 792.317 418.251C797.398 418.152 796.999 424.31 798.294 427.885C807.757 453.809 816.921 479.882 826.185 505.855C827.43 509.282 827.68 513.156 831.714 516.334C835.2 511.517 835.3 505.756 836.445 500.541C845.012 459.769 853.379 418.897 861.896 378.074C862.693 374.25 861.996 368.688 867.275 368.042C872.256 367.446 873.65 372.711 875.593 376.137C920.368 452.766 965.044 529.495 1009.82 606.123C1011.21 608.557 1013.16 610.643 1015.35 613.573C1019.33 609.5 1018.78 604.783 1019.38 600.661C1024.51 565.549 1029.44 530.438 1034.57 495.327C1035.12 491.503 1033.98 485.99 1039.21 484.997C1044.34 484.053 1045.73 489.218 1047.42 492.844C1068.94 537.937 1090.7 582.931 1111.67 628.273C1120.54 647.443 1115.56 668.201 1115.21 688.215C1115.01 699.389 1116.9 704.306 1129.01 702.866C1137.17 701.922 1145.59 703.064 1153.81 702.568C1160.23 702.17 1165.11 703.76 1168.6 709.222C1170.44 747.115 1152.81 777.309 1130.75 806.014C1109.18 834.073 1081.24 854.236 1051.51 872.512C1049.12 873.952 1046.03 874.548 1044.78 878.521C1073.67 889.646 1101.56 902.508 1118.6 930.468C1091.2 940.649 1063.61 950.283 1036.52 961.209C1002.4 974.965 968.979 990.212 941.536 1015.64C937.352 1019.51 933.517 1021 928.835 1016.43C882.516 971.241 822.35 953.859 763.181 934.441C757.752 932.653 752.473 930.369 747.094 928.333C752.174 915.52 764.476 910.106 774.437 902.458C787.088 892.824 801.78 886.418 818.366 879.564C798.991 866.652 780.812 856.372 764.376 843.509C735.041 820.466 710.636 793.748 697.835 757.991C690.614 737.927 688.821 717.218 689.966 696.112H689.866Z" fill="#EFBD44"/>
<path d="M1211.33 938.215C1182.25 949.389 1153.01 960.365 1124.02 971.886C1098.72 981.968 1073.32 991.801 1048.77 1003.72C1023.91 1015.74 1001.45 1030.74 982.626 1050.9C977.894 1055.96 972.764 1057.36 966.14 1057.26C943.379 1056.81 920.617 1056.76 897.856 1056.61C893.722 1056.61 889.837 1056.86 886.55 1053.18C849.743 1011.96 799.987 992.496 750.381 972.83C722.141 961.606 693.751 950.73 665.561 939.109C679.756 940.202 692.954 945.367 706.452 949.34C755.56 963.891 805.416 976.108 852.981 995.575C882.018 1007.44 908.963 1022.05 927.54 1048.47C930.977 1053.38 935.31 1057.36 939.992 1050.45C963.7 1015.79 1000.26 1001.04 1037.76 988.921C1095.39 970.248 1153.66 953.462 1211.63 935.931C1211.14 936.676 1208.84 937.123 1211.28 938.265L1211.33 938.215Z" fill="white"/>
<path d="M1211.33 938.215C1208.94 937.073 1211.24 936.626 1211.68 935.881C1225.28 931.014 1238.88 926.098 1252.47 921.231C1252.87 922.373 1253.27 923.565 1253.72 924.707C1239.62 929.227 1225.48 933.696 1211.38 938.215L1211.33 938.215Z" fill="#EFBD44"/>
<path d="M1338.89 893.37C1329.62 900.472 1318.42 902.21 1304.92 906.382C1316.13 896.35 1328.13 896.549 1338.74 893.172L1338.89 893.37Z" fill="#EFBD44"/>
<path d="M883.511 266.282L882.466 267.923C882.317 267.426 882.117 266.93 881.968 266.433C882.516 266.433 883.064 266.433 883.612 266.433L883.511 266.282Z" fill="white"/>
<path d="M0 1894.21V1627.07H176.21V1685.07H72.3585V1721.36H98.6025C121.597 1721.36 140.468 1724.85 155.215 1731.83C169.961 1738.82 180.959 1748.54 188.207 1761.02C195.455 1773.24 199.08 1787.45 199.08 1803.67C199.08 1822.37 194.706 1838.59 185.958 1852.3C177.46 1865.77 165.212 1876.12 149.216 1883.36C133.22 1890.59 113.849 1894.21 91.1042 1894.21H0ZM92.229 1836.96C103.976 1836.96 112.599 1834.47 118.098 1829.48C123.847 1824.24 126.721 1816.76 126.721 1807.03C126.721 1800.8 125.221 1795.68 122.222 1791.69C119.473 1787.45 115.599 1784.21 110.6 1781.97C105.601 1779.72 99.9772 1778.6 93.7286 1778.6H72.3585V1836.96H92.229Z" fill="#09090B"/>
<path d="M213.499 1687.31H288.857L324.099 1805.91C324.599 1807.66 325.099 1809.78 325.599 1812.27C326.099 1814.77 326.473 1817.38 326.723 1820.13C327.223 1822.87 327.473 1825.62 327.473 1828.36H328.973C329.473 1823.37 330.098 1819.13 330.847 1815.64C331.847 1811.9 332.722 1808.78 333.472 1806.29L369.464 1687.31H442.572L360.466 1907.3C354.217 1924.01 346.844 1938.11 338.346 1949.58C330.098 1961.05 319.85 1969.66 307.603 1975.39C295.356 1981.13 280.109 1984 261.863 1984C255.365 1984 249.741 1983.63 244.992 1982.88C240.243 1982.38 236.119 1981.76 232.62 1981.01V1924.89C235.369 1925.39 238.618 1925.88 242.368 1926.38C246.367 1926.88 250.491 1927.13 254.74 1927.13C262.738 1927.13 269.112 1925.51 273.86 1922.27C278.859 1919.03 282.983 1914.78 286.233 1909.55C289.482 1904.56 292.231 1899.07 294.481 1893.08L295.231 1891.21L213.499 1687.31Z" fill="#09090B"/>
<path d="M612.54 1687.31H691.647L614.04 1786.46L697.646 1894.21H615.914L539.057 1789.08V1894.21H467.448V1687.31H539.057V1787.58L612.54 1687.31Z" fill="#09090B"/>
<path d="M822.035 1683.57C848.279 1683.57 868.775 1690.05 883.521 1703.02C898.268 1715.99 905.641 1734.45 905.641 1758.4V1894.21H856.153L842.281 1866.9H840.781C835.032 1874.13 829.034 1880.11 822.785 1884.85C816.786 1889.34 809.788 1892.59 801.79 1894.58C793.792 1896.83 784.044 1897.95 772.547 1897.95C760.549 1897.95 749.802 1895.58 740.304 1890.84C730.806 1885.85 723.308 1878.49 717.809 1868.77C712.31 1858.79 709.561 1846.19 709.561 1830.98C709.561 1808.78 717.184 1792.32 732.431 1781.59C747.927 1770.87 770.297 1764.88 799.541 1763.63L834.033 1762.51V1759.52C834.033 1750.29 831.783 1743.8 827.284 1740.06C822.785 1736.07 816.662 1734.08 808.913 1734.08C800.665 1734.08 791.542 1735.57 781.545 1738.57C771.547 1741.31 761.424 1744.93 751.177 1749.42L730.556 1702.28C742.553 1696.04 756.05 1691.43 771.047 1688.43C786.293 1685.19 803.29 1683.57 822.035 1683.57ZM817.911 1802.54C804.914 1803.04 795.666 1805.41 790.168 1809.65C784.919 1813.64 782.294 1819.38 782.294 1826.86C782.294 1833.85 784.169 1839.08 787.918 1842.58C791.667 1845.82 796.666 1847.44 802.915 1847.44C811.663 1847.44 819.036 1844.7 825.035 1839.21C831.283 1833.72 834.408 1826.61 834.408 1817.88V1801.8L817.911 1802.54Z" fill="#09090B"/>
<path d="M1186.47 1894.21H1113.74V1686.19H1062.75C1061.75 1696.16 1060.5 1707.39 1059 1719.86C1057.75 1732.33 1056.25 1745.18 1054.5 1758.4C1052.75 1771.37 1050.88 1783.96 1048.88 1796.18C1046.88 1808.16 1044.88 1818.63 1042.88 1827.61C1039.63 1842.33 1034.88 1854.92 1028.63 1865.4C1022.63 1875.87 1014.26 1883.98 1003.51 1889.72C993.014 1895.21 979.392 1897.95 962.646 1897.95C957.147 1897.95 952.023 1897.57 947.274 1896.83C942.775 1896.08 938.401 1895.08 934.152 1893.83V1838.09C937.652 1839.08 940.776 1839.96 943.525 1840.71C946.275 1841.45 949.149 1841.83 952.148 1841.83C956.147 1841.83 959.647 1840.71 962.646 1838.46C965.895 1835.97 968.895 1830.85 971.644 1823.12C974.393 1815.39 977.143 1803.42 979.892 1787.2C980.892 1781.97 982.141 1774.11 983.641 1763.63C985.391 1753.16 987.14 1740.81 988.89 1726.59C990.89 1712.38 993.014 1696.79 995.263 1679.83C997.513 1662.87 999.638 1645.28 1001.64 1627.07H1186.47V1894.21Z" fill="#09090B"/>
<path d="M1214.86 1687.31H1290.22L1325.46 1805.91C1325.96 1807.66 1326.46 1809.78 1326.96 1812.27C1327.46 1814.77 1327.83 1817.38 1328.08 1820.13C1328.58 1822.87 1328.83 1825.62 1328.83 1828.36H1330.33C1330.83 1823.37 1331.46 1819.13 1332.21 1815.64C1333.21 1811.9 1334.08 1808.78 1334.83 1806.29L1370.82 1687.31H1443.93L1361.82 1907.3C1355.58 1924.01 1348.2 1938.11 1339.7 1949.58C1331.46 1961.05 1321.21 1969.66 1308.96 1975.39C1296.71 1981.13 1281.47 1984 1263.22 1984C1256.72 1984 1251.1 1983.63 1246.35 1982.88C1241.6 1982.38 1237.48 1981.76 1233.98 1981.01V1924.89C1236.73 1925.39 1239.98 1925.88 1243.73 1926.38C1247.73 1926.88 1251.85 1927.13 1256.1 1927.13C1264.1 1927.13 1270.47 1925.51 1275.22 1922.27C1280.22 1919.03 1284.34 1914.78 1287.59 1909.55C1290.84 1904.56 1293.59 1899.07 1295.84 1893.08L1296.59 1891.21L1214.86 1687.31Z" fill="#09090B"/>
<path d="M1613.9 1687.31H1693.01L1615.4 1786.46L1699 1894.21H1617.27L1540.42 1789.08V1894.21H1468.81V1687.31H1540.42V1787.58L1613.9 1687.31Z" fill="#09090B"/>
<path d="M1823.39 1683.57C1849.64 1683.57 1870.13 1690.05 1884.88 1703.02C1899.63 1715.99 1907 1734.45 1907 1758.4V1894.21H1857.51L1843.64 1866.9H1842.14C1836.39 1874.13 1830.39 1880.11 1824.14 1884.85C1818.15 1889.34 1811.15 1892.59 1803.15 1894.58C1795.15 1896.83 1785.4 1897.95 1773.91 1897.95C1761.91 1897.95 1751.16 1895.58 1741.66 1890.84C1732.16 1885.85 1724.67 1878.49 1719.17 1868.77C1713.67 1858.79 1710.92 1846.19 1710.92 1830.98C1710.92 1808.78 1718.54 1792.32 1733.79 1781.59C1749.29 1770.87 1771.66 1764.88 1800.9 1763.63L1835.39 1762.51V1759.52C1835.39 1750.29 1833.14 1743.8 1828.64 1740.06C1824.14 1736.07 1818.02 1734.08 1810.27 1734.08C1802.02 1734.08 1792.9 1735.57 1782.9 1738.57C1772.91 1741.31 1762.78 1744.93 1752.54 1749.42L1731.91 1702.28C1743.91 1696.04 1757.41 1691.43 1772.41 1688.43C1787.65 1685.19 1804.65 1683.57 1823.39 1683.57ZM1819.27 1802.54C1806.27 1803.04 1797.03 1805.41 1791.53 1809.65C1786.28 1813.64 1783.65 1819.38 1783.65 1826.86C1783.65 1833.85 1785.53 1839.08 1789.28 1842.58C1793.03 1845.82 1798.03 1847.44 1804.27 1847.44C1813.02 1847.44 1820.39 1844.7 1826.39 1839.21C1832.64 1833.72 1835.77 1826.61 1835.77 1817.88V1801.8L1819.27 1802.54Z" fill="#09090B"/>
</svg>
