<?xml version="1.0" encoding="UTF-8" standalone="no"?>
<svg xmlns="http://www.w3.org/2000/svg" xmlns:xlink="http://www.w3.org/1999/xlink" width="128" height="128">
  <defs>
    <linearGradient id="e">
      <stop offset="0" stop-color="#f9d999"/>
      <stop offset="1" stop-color="#dda554"/>
    </linearGradient>
    <linearGradient id="f">
      <stop offset="0" stop-color="#ffe787"/>
      <stop offset="1" stop-color="#e0a742"/>
    </linearGradient>
    <linearGradient id="h">
      <stop offset="0" stop-color="#fc6"/>
      <stop offset=".25" stop-color="#ffcd68"/>
      <stop offset=".73276746" stop-color="#fcb84e"/>
      <stop offset="1" stop-color="#ddad50"/>
    </linearGradient>
    <linearGradient id="b">
      <stop offset="0" stop-color="#ffed94"/>
      <stop offset="1" stop-color="#ffed94" stop-opacity="0"/>
    </linearGradient>
    <linearGradient id="a">
      <stop offset="0" stop-color="#f2d28a"/>
      <stop offset="1" stop-color="#d6a84b"/>
    </linearGradient>
    <linearGradient id="g">
      <stop offset="0" stop-color="#feed93"/>
      <stop offset=".58542705" stop-color="#eac67c"/>
      <stop offset="1" stop-color="#ddad50"/>
    </linearGradient>
    <linearGradient id="k">
      <stop offset="0" stop-color="#fff"/>
      <stop offset="1" stop-color="#e31fd9"/>
    </linearGradient>
    <linearGradient id="i">
      <stop offset="0" stop-color="#fcbcb9"/>
      <stop offset=".62359995" stop-color="#fd8e8f"/>
      <stop offset="1" stop-color="#ff6066"/>
    </linearGradient>
    <linearGradient id="d">
      <stop offset="0"/>
      <stop offset="1" stop-color="#fff"/>
    </linearGradient>
    <linearGradient id="j">
      <stop offset="0" stop-color="#fcbcb9"/>
      <stop offset=".60444462" stop-color="#fd8e8f"/>
      <stop offset="1" stop-color="#ff6066"/>
    </linearGradient>
    <linearGradient id="c">
      <stop offset="0"/>
      <stop offset="1" stop-color="#fff"/>
    </linearGradient>
    <linearGradient xlink:href="#a" id="v" x1="77.14286" x2="77.14286" y1="963.98956" y2="958.00604" gradientUnits="userSpaceOnUse"/>
    <linearGradient xlink:href="#b" id="z" x1="90.598053" x2="90.598053" y1="912.9129" y2="909.89124" gradientTransform="matrix(.97953 0 0 .96243 1.190344 104.94176)" gradientUnits="userSpaceOnUse"/>
    <linearGradient xlink:href="#c" id="C" x1="97.410713" x2="97.410713" y1="969.63959" y2="965.48718" gradientUnits="userSpaceOnUse"/>
    <linearGradient xlink:href="#d" id="D" x1="97.410713" x2="97.410713" y1="969.63959" y2="965.48718" gradientUnits="userSpaceOnUse"/>
    <linearGradient xlink:href="#e" id="n" x1="35.930874" x2="15.216259" y1="1003.0657" y2="1003.0657" gradientTransform="translate(-.00000857 -.0000857)" gradientUnits="userSpaceOnUse"/>
    <linearGradient xlink:href="#f" id="s" x1="133.45044" x2="133.45044" y1="1020.7823" y2="1007.9388" gradientTransform="translate(-51.937486 -.0000357)" gradientUnits="userSpaceOnUse"/>
    <filter id="y" width="1.0437974" height="1.2022085" x="-.02189872" y="-.10110425" color-interpolation-filters="sRGB">
      <feGaussianBlur stdDeviation=".3308099"/>
    </filter>
    <filter id="w" width="1.2181097" height="1.4362193" x="-.10905484" y="-.21810967" color-interpolation-filters="sRGB">
      <feGaussianBlur stdDeviation=".74650633"/>
    </filter>
    <filter id="t" width="1.0674827" height="1.5411124" x="-.03374133" y="-.27055621" color-interpolation-filters="sRGB">
      <feGaussianBlur stdDeviation=".95688454"/>
    </filter>
    <filter id="G" width="1.1891525" height="1.6032432" x="-.09457627" y="-.30162162" color-interpolation-filters="sRGB">
      <feGaussianBlur stdDeviation="1.453125"/>
    </filter>
    <filter id="p" width="1.3964463" height="1.3723114" x="-.1982232" y="-.18615565" color-interpolation-filters="sRGB">
      <feGaussianBlur stdDeviation="3.2350411"/>
    </filter>
    <filter id="o" width="1.508278" height="1.2009236" x="-.25413898" y="-.10046178" color-interpolation-filters="sRGB">
      <feGaussianBlur stdDeviation="1.1304563"/>
    </filter>
    <filter id="F" width="1.4334757" height="2.8026059" x="-.21673787" y="-.90130293" color-interpolation-filters="sRGB">
      <feGaussianBlur stdDeviation="1.2509108"/>
    </filter>
    <filter id="q" color-interpolation-filters="sRGB">
      <feGaussianBlur stdDeviation=".6503499"/>
    </filter>
    <filter id="m" width="1.814187" height="1.1524943" x="-.40709352" y="-.07624717" color-interpolation-filters="sRGB">
      <feGaussianBlur stdDeviation=".98732395"/>
    </filter>
    <filter id="l" width="1.8965164" height="1.5131377" x="-.44825819" y="-.25656885" color-interpolation-filters="sRGB">
      <feGaussianBlur stdDeviation=".98732395"/>
    </filter>
    <filter id="r" width="1.0966018" height="1.2827162" x="-.0483009" y="-.14135811" color-interpolation-filters="sRGB">
      <feGaussianBlur stdDeviation=".76051251"/>
    </filter>
    <filter id="H" width="1.7708182" height="2.2409008" x="-.38540909" y="-.62045038" color-interpolation-filters="sRGB">
      <feGaussianBlur stdDeviation=".50447854"/>
    </filter>
    <radialGradient xlink:href="#g" id="u" cx="87.068886" cy="972.25195" r="20.5625" fx="87.068886" fy="972.25195" gradientTransform="matrix(1.6035 0 0 1.04712 -52.134986 -45.24504)" gradientUnits="userSpaceOnUse"/>
    <radialGradient xlink:href="#h" id="x" cx="87.949387" cy="909.51526" r="36.375046" fx="87.949387" fy="909.51526" gradientTransform="matrix(.91253 0 0 .71856 7.061924 326.87457)" gradientUnits="userSpaceOnUse"/>
    <radialGradient xlink:href="#i" id="A" cx="126.18759" cy="950.84869" r="6.9725752" fx="126.18759" fy="950.84869" gradientTransform="matrix(.01892 -1.02462 .974 .01799 -820.56356 1062.4974)" gradientUnits="userSpaceOnUse"/>
    <radialGradient xlink:href="#j" id="B" cx="126.18759" cy="950.84869" r="6.9725752" fx="126.18759" fy="950.84869" gradientTransform="matrix(-.01892 -1.02462 -.974 .01799 994.753 1062.4962)" gradientUnits="userSpaceOnUse"/>
    <radialGradient xlink:href="#k" id="E" cx="166.20099" cy="981.04553" r="4.9221768" fx="166.20099" fy="981.04553" gradientTransform="matrix(0 .71421 -1.03607 0 1101.7513 863.0788)" gradientUnits="userSpaceOnUse"/>
  </defs>
  <g transform="translate(0 -924.36218)">
    <g transform="translate(0 .00002193)">
      <path fill="#fff696" d="M15.096384 935.12882a4.750475 4.750475 0 0 0-2.59375 8.53125c.0294.0292.13791.11895.25.40625.25693.65852.53904 1.80326.75 3.0625.42194 2.51849.5625 5.55133.5625 6.90625 0 1.21494-.40257 3.37479-.96875 5.15625-.56617 1.78146-1.7709 3.55367-1.1875 2.90625-1.74723 1.93894-3.16424 3.08021-4.59375 5.15625-1.4295 2.07604-2.1875 4.92772-2.1875 8.0625 0 2.86222 1.05217 5.00983 2.21875 7.0625 1.16659 2.05267 2.60797 3.96591 4 5.6875.95341 1.17912 1.85159 2.20158 2.6875 3.125 1.16009-2.28922 2.76184-5.36884 5.4375-8.21875-.25058-.29708-.49729-.56246-.75-.875-1.18627-1.46712-2.32659-3.08764-3.09375-4.4375-.76715-1.34986-1-2.50998-1-2.34375 0-2.07409.0997-2.10621.5-2.6875.40027-.58129 1.76143-1.84546 3.84375-4.15625 1.91209-2.12188 2.40203-3.93474 3.1875-6.40625.78548-2.47151 1.40625-5.21473 1.40625-8.03125 0-1.89371-.13128-5.14876-.6875-8.46875-.2781-1.65999-.64504-3.30683-1.28125-4.9375-.63621-1.63067-1.43988-3.49672-3.78125-4.84375a4.750475 4.750475 0 0 0-2.71875-.65625z" color="#000" enable-background="accumulate" font-family="Sans" font-weight="400" overflow="visible" style="text-indent:0;text-align:start;line-height:normal;text-transform:none;block-progression:tb;marker:none;-inkscape-font-specification:Sans"/>
      <path fill="none" stroke="#c76201" stroke-linecap="round" stroke-linejoin="round" stroke-width="4.4000001" d="M17.49554 984.43865c-2.845368-1.79731-4.339281-6.18029-5.251377-10.02031" filter="url(#l)" opacity=".70999995"/>
      <path fill="none" stroke="#c96505" stroke-linecap="round" stroke-linejoin="round" stroke-width="4.4000001" d="M13.845176 971.20935c.136479-.0302 2.329763-2.50463 3.024483-3.63286 2.248331-3.65131 4.711081-9.94992 4.082573-13.78817-.854639-5.21922-.1118-13.1957-5.461819-16.46332-.166656-.10179-3.463649 2.36129-.517938-.29143" filter="url(#m)" opacity=".70999995"/>
    </g>
    <path fill="url(#n)" d="M79.968765 1023.4374c-3.42571 2.1585-2.90633 7.0954-.16406 11.8452.96259 1.6672 1.89324 5.1189-2.87034 6.6237 0 0-8.28315.1992-10.09469-.7053-5.92789-2.9598-7.46022-16.2531-7.46022-16.2531-7.31954 0-16.91542-4.2669-23.71913-11.2576-3.67752 3.9119-6.34102 6.737-13.22281 8.4218 0 0 .85502 8.8526-4.1875 9.3125-2.27642.2076-8.00358-.027-8.6325896-3.9919-1.09842-6.9229 2.0075896-15.9229 2.0075896-17.563 0-3.2087-1.1975-13.19469.9375-16.00749 2.33188-3.0722 5.91543-17.2687 22.92049-17.637l20.5507-.4451 27.71631 26.83199c-1.33334 7.4885-2.44792 13.9657-3.78125 20.8253z"/>
    <path fill="#fff" d="m64.950174 1011.0933 8.03985 8.3757c-2.88093 10.718 3.67726 18.713-2.69665 18.6299-7.1857-.094-10.34056-19.0548-5.3432-27.0056z" filter="url(#o)" transform="translate(-.00000857)"/>
    <g transform="translate(.00000272 .00003746)">
      <path fill="#c76100" d="M53.968774 981.12492c-1.87718.41402-4.45513 6.91939-5.90625 8.03125-1.54786 1.18598-6.77916-2.29345-6.8125-.34375-.055 2.97898 6.46363 11.21018 9.375 11.84358 5.70805 1.3499 10.12227 1.9846 13.875 1.6876-1.01317 7.4676-.73227 12.5783 1.5 16.875.76537 1.5435 2.1745 2.7469 3.8125 3.2812 1.63799.5344 3.5115.3683 5-.4062 1.48849-.7745 2.71635-2.227 3.21875-3.875.50239-1.6481 2.63739-3.2999 1.8125-4.8126-.45071-.8674 3.51234-3.4833 4.8125-11.4687.34008-1.9201-7.14498-4.2273-8.4375-5.68738-.54682-.6177-1.23107-1.13153-1.96875-1.5-.0234-.83338-.17886-1.63401-.5-2.375-.66725-1.53956-2.04783-2.88226-3.65625-3.5-1.60843-.61774-3.12033-2.84081-4.6875-2.125-.89722.38819-3.1891-3.76313-11.0625-5.625-.11821-.0297-.24986-.0276-.375 0z" color="#000" enable-background="accumulate" filter="url(#p)" font-family="Sans" font-weight="400" overflow="visible" style="text-indent:0;text-align:start;line-height:normal;text-transform:none;block-progression:tb;marker:none;-inkscape-font-specification:Sans"/>
      <path fill="none" stroke="#cb6804" stroke-linecap="round" stroke-width="1.39999998" d="M12.887318 1009.78c-.07362-1.0469.278737-5.4083.254716-6.4031-.405688-16.80152 10.843906-25.81159 26.867594-25.81159 3.128143 0 8.489158-.0448 12.398976-.0448" filter="url(#q)"/>
      <path fill="none" stroke="#c76201" stroke-linecap="round" stroke-linejoin="round" stroke-width="1.39999998" d="M22.061175 1020.9432c9.812141-3.5132 10.987563-6.119 13.45458-10.5212 3.669428 4.7973 12.488657 12.9121 24.334154 12.9121" filter="url(#r)"/>
    </g>
    <g transform="translate(-.00000857)">
      <path fill="#bc7106" d="M95.812514 1003.5936c-2.69257.6883-5.34075 1.1144-7.84375 1.25v2.0937h1.1875l.0312 2.75c-.034 1.9434-6.6263 6.2754-9.4375 9.7187l.21875 4.0313c2.96713 0 6.13282 2.4553 8.75 4.125 3.35893 2.1429 5.94432 5.8125 10.125 5.8125 4.442356 0 8.450356-4.1753 10.968746-6.3125-1.56258-1.6784-5.29451-4.294-8.28125-9.3125-2.290896-3.8493-4.429616-7.6598-5.374996-10.9062v-3.25h-.34375z"/>
      <path fill="url(#s)" d="m82.218764 1004.531-.75.9376c-3.8772 3.9157-5.51476 8.3513-5.51476 17.6979 8.08518-.4421 13.16851-9.7653 13.23351-13.4792l-.0312-4.9375c-.68273.06-1.33968.1055-2 .125-1.65405 0-3.3184-.1051-4.9375-.3438z"/>
    </g>
    <path fill="#fff" fill-opacity=".94117647" d="M110.58783 980.5597599c0 4.13499-10.05624 7.48707-22.46124 7.48707-12.40499 0-22.46123-3.35208-22.46123-7.48707 0-4.135 10.05624-7.48708 22.46123-7.48708 12.405 0 22.46124 3.35208 22.46124 7.48708z"/>
    <path fill="none" d="M85.055804 976.03113c-4.70461.1643-8.41499 1.3443-10.8125 1.5-2.17221.141-3.75859.439-5.125.7187-1.36641.2797-2.63186.5539-4.4375.5-2.55375-.076-9.375-.3125-9.375-.3125-1.15146-.081-2.259 1.3145-2.25 2.4688.009 1.1543 1.94363 3.6923 3.09375 3.5937 0 0 6.09087-.16 8.3125-.094 2.20124.066 4.13866-.3272 5.59375-.625 1.45509-.2979 4.199-2.131 6.03125-2.25 3.79367-.2464 6.07632-.9856 10.9375-.8125.0105.001.0208 0 .0312 0 .0208-.0001.0416-.0003.0625 0 .0104 0 .0208.001.0312 0 4.86118-.1731 7.14383.5661 10.9375.8125 1.83226.119 4.576166 1.9521 6.031256 2.25 1.45509.2978 3.39251.6907 5.59375.625 2.22163-.066 8.3125.094 8.3125.094 1.15012.099 3.08515-2.4394 3.09375-3.5937.009-1.1543-1.09854-2.5502-2.25-2.4688 0 0-6.82125.2362-9.375.3125-1.80564.054-3.07109-.2203-4.4375-.5-1.36641-.2797-2.95279-.5777-5.124996-.7187-2.7298-.1773-7.14379-1.6772-12.81251-1.5-.0216-.0007-.041.0007-.0625 0-.68967-.022-1.34828-.023-2 0z" color="#000" enable-background="accumulate" filter="url(#t)" font-family="Sans" font-weight="400" overflow="visible" style="text-indent:0;text-align:start;line-height:normal;text-transform:none;block-progression:tb;marker:none;-inkscape-font-specification:Sans"/>
    <path fill="url(#u)" d="M68.592624 938.71863c-5.75307-.082-10.92704 22.4864-10.84321 23.3437l.46339-.2187c-3.95154 4.8838-5.785014 10.3515-5.785014 15.2812 0 1.5196.26304 3.0842.71053 4.6563l.95766-.031c-.14107-.3232 2.605074-.1355 2.603094-.375-.009-1.1543 30.06297-3.2378 31.20126-3.1563 2.62415.4737 9.43306.7757 13.592626 1.5937 1.35077.2797 6.61774.9289 8.40272.875 2.52452-.076 7.6613.2188 7.6613.2188 1.99663-.9498 1.42994.1269 4.07778-.031-.002.2395-.10607.5518-.24714.875l.95767.031c.44749-1.5721.71052-3.1367.71052-4.6563 0-4.9297-2.3196-10.3974-6.27114-15.2812l.46338.2187c.0838-.8573-5.09013-23.4254-10.84321-23.3437-4.2211.06-8.731376 6.4181-10.843216 9.8125-2.58035-.6021-5.26453-.9634-8.032-.9688h-.0618c-2.76747 0-5.45165.3667-8.03201.9688-2.11184-3.3944-6.6221-9.7526-10.84321-9.8125z"/>
    <path fill="url(#v)" d="M85.357146 959.95148c0 2.26831-3.677661 4.10714-8.214286 4.10714-4.536624 0-8.214285-1.83883-8.214285-4.10714 0-2.26832 3.677661-4.10715 8.214285-4.10715 4.536625 0 8.214286 1.83883 8.214286 4.10715z" filter="url(#w)" transform="matrix(2.21709 0 0 1.80063 -83.963506 -765.15512)"/>
    <path fill="url(#x)" d="M85.055804 976.03113c-4.70461.1643-8.41499 1.3443-10.8125 1.5-2.17221.141-3.75859.439-5.125.7187-1.36641.2797-2.63186.5539-4.4375.5-2.55375-.076-12.60117-.3125-12.60117-.3125-1.15146-.081.96717 1.3145.97617 2.4688.009 1.1543 1.94363 3.6923 3.09375 3.5937 0 0 6.09087-.16 8.3125-.094 2.20124.066 4.13866-.3272 5.59375-.625 1.45509-.2979 4.199-2.131 6.03125-2.25 3.79367-.2464 6.07632-.9856 10.9375-.8125.0105.001.0208 0 .0312 0 .0208-.0001.0416-.0003.0625 0 .0104 0 .0208.001.0312 0 4.86118-.1731 7.14383.5661 10.9375.8125 1.83226.119 4.576166 1.9521 6.031256 2.25 1.45509.2978 3.39251.6907 5.59375.625 2.22163-.066 11.52514.40336 11.52514.40336 1.15012.099 1.29108-2.61618 1.29968-3.77048.009-1.1543.9375-2.41761-.21396-2.33621 0 0-10.27586-.029-12.82961.0473-1.80564.054-3.07109-.2203-4.4375-.5-1.36641-.2797-2.95279-.5777-5.124996-.7187-2.7298-.1773-7.14379-1.6772-12.81251-1.5-.0216-.0007-.041.0007-.0625 0-.68967-.022-1.34828-.023-2 0z" color="#000" enable-background="accumulate" filter="url(#y)" font-family="Sans" font-weight="400" overflow="visible" style="text-indent:0;text-align:start;line-height:normal;text-transform:none;block-progression:tb;marker:none;-inkscape-font-specification:Sans"/>
    <path fill="url(#z)" d="M52.42779 977.12529c0 12.41665 16.390484 27.72611 34.715584 27.76021 14.404506-.4258 34.728856-10.55468 35.262926-27.76117z"/>
    <g transform="translate(0 .00002861)">
      <g stroke="#965a36" stroke-linecap="round" stroke-linejoin="round" stroke-width=".5">
        <path fill="url(#A)" d="M113.00322 958.70583s-3.26215-14.0253-6.6008-14.0855c-3.33864-.06-6.10334 4.5911-6.528676 5.5835 3.401836 1.4014 9.086766 4.0649 13.129476 8.502z"/>
        <path fill="url(#B)" d="M61.186104 958.70453s3.26215-14.0253 6.6008-14.0854c3.33864-.06 6.10334 4.591 6.52868 5.5835-3.40184 1.4014-9.08677 4.0648-13.12948 8.5019z"/>
      </g>
      <g stroke="#000" stroke-width=".40000001">
        <path fill="url(#C)" d="M99.285713 970.04077c0 2.51487-.839466 4.55357-1.875 4.55357s-1.875-2.0387-1.875-4.55357c0-2.51487.839466-4.55357 1.875-4.55357s1.875 2.0387 1.875 4.55357z" transform="matrix(-.95697 0 0 .95697 168.3868 44.722162)"/>
        <path fill="url(#D)" d="M99.285713 970.04077c0 2.51487-.839466 4.55357-1.875 4.55357s-1.875-2.0387-1.875-4.55357c0-2.51487.839466-4.55357 1.875-4.55357s1.875 2.0387 1.875 4.55357z" transform="translate(5.802534 44.723412) scale(.95697)"/>
      </g>
      <path fill="url(#E)" stroke="#bd13aa" stroke-linecap="round" stroke-linejoin="round" stroke-width=".2" d="M86.587054 980.03113c-2.03488.063-4.02783.7126-4.3125 1.9687-.18497.8163 2.31339 3.9174 4.78125 3.9688.0206.0004.0419 0 .0625 0 2.46787-.051 4.96622-3.1525 4.78125-3.9688-.28466-1.2561-2.27762-1.906-4.3125-1.9687-.15916-.01-.31139.023-.46875.031-.0211-.0004-.0416 0-.0625 0-.15736-.01-.30959-.036-.46875-.031z"/>
    </g>
    <path fill="none" stroke="#602d2f" stroke-linecap="round" stroke-linejoin="round" stroke-width="3.29999995" d="M15.093764 935.12488c-1.92602.11054-3.68883 1.52923-4.25 3.375-.56117 1.84577.11769 3.99237 1.65625 5.15625.0294.0292.13791.11895.25.40625.25692.65852.53903 1.80326.75 3.0625.42193 2.51849.5625 5.55133.5625 6.90625 0 1.21494-.40258 3.37479-.96875 5.15625-.4954 1.55878-1.46501 3.10141-1.3125 3.03125-1.68987 1.85579-3.07365 3.00521-4.46875 5.03125-1.4295 2.0761-2.1875 4.9277-2.1875 8.0625 0 2.8622 1.05217 5.0098 2.21875 7.0625 1.16658 2.0527 2.60796 3.9659 4 5.6875.95548 1.18169 1.85027 2.2003 2.6875 3.125-.57457 1.13372-1.04756 2.13259-1.46875 2.6875-2.135 2.8128-.9375 12.79122-.9375 15.99992 0 1.6401-3.12968 10.6396-2.03125 17.5625.629 3.9649 6.37983 4.2076 8.65625 4 5.04252-.4599 4.1875-9.3125 4.1875-9.3125 6.8818-1.6848 9.54123-4.5256 13.21875-8.4375 6.80371 6.9907 16.39922 11.25 23.71875 11.25 0 0 1.5096 13.2902 7.4375 16.25 1.81153.9045 10.09375.7187 10.09375.7187 4.76357-1.5047 3.500058-7.9647 2.537468-9.6321-1.605847-2.7814-2.388769-6.2327-2.07398-8.5814.4825-.055 2.19199-.1892 2.752465-.3779 2.96712 0 5.979367 2.578 8.596547 4.2477 3.35893 2.1429 5.94432 5.8125 10.125 5.8125 4.442356 0 8.419106-4.1753 10.937496-6.3125-1.56258-1.6784-5.26326-4.294-8.25-9.3125-2.725506-4.5796-5.282826-9.0931-5.812496-12.6875.0453-.041.36708-.2537.5-.3437 14.837126-3.9863 26.843746-16.83098 26.843746-27.59372-.0598-.69287-.19249-1.42382-.34375-2.15625-.15126-.73243-.34065-1.47255-.5625-2.21875-.44371-1.4924-.99288-2.98226-1.59375-4.375-.60087-1.39274-1.25265-2.69446-1.84375-3.78125-.29555-.54339-.58194-1.00928-.84375-1.4375-.26181-.42822-.4803-.80649-.6875-1.09375.0106-.10716-.0724-.55101-.21875-1.25-.43909-2.09696-1.5435-6.477-3.0625-10.78125-.50633-1.43475-1.0669-2.85407-1.65625-4.1875-.29467-.66672-.59429-1.29735-.90625-1.90625-.7799-1.52224-1.60608-2.8573-2.46875-3.78125-.33866-.36272-.68371-.67205-1.03125-.90625-.008-.005-.0234.005-.0312 0-.5314-.35392-1.0794-.53892-1.625-.53125-.26687.004-.51275.0431-.78125.0937-.2685.0507-.54371.12564-.8125.21875-1.60713.55674-3.20422 1.83465-4.656246 3.34375-.49076.51004-.9549 1.01754-1.40625 1.5625-.89341 1.07868-1.69991 2.18985-2.375 3.1875-.33755.49883-.67047.98195-.9375 1.40625-.67834-.1554-1.3543-.29065-2.03125-.40625-4.80884-.8253-9.57885-.64934-14.25.40625-.53407-.8486-1.23639-1.8944-2.03125-2.96875-.79487-1.07435-1.68555-2.17683-2.65625-3.1875-.96417-1.00386-2.0084-1.90606-3.0625-2.5625-.008-.005-.0236.005-.0312 0-1.06158-.65754-2.15126-1.07877-3.21875-1.09375-1.09119-.0154-2.13745.77769-3.15625 2.0625-.3396.42827-.67307.90809-1 1.4375-.65387 1.05883-1.28566 2.29156-1.875 3.625-.58935 1.33344-1.14992 2.75274-1.65625 4.1875-.25317.71738-.48981 1.44603-.71875 2.15625-.68684 2.13065-1.26024 4.16745-1.6875 5.84375-.28484 1.11753-.50989 2.08226-.65625 2.78125-.14637.69899-.22935 1.14284-.21875 1.25-.37067.69907-.85055 1.6187-1.40625 2.6875-.0625.11979-.0924.1892-.15625.3125-.25054.48526-.51939 1.0008-.78125 1.53125-.0636.1284-.12377.2445-.1875.375-.21485.4409-.41304.88409-.625 1.34375-.2393.51721-.46195 1.03261-.6875 1.5625-.0976.23004-.18775.45667-.28125.6875-.16643.40921-.31887.81122-.46875 1.21875-.0844.23012-.17205.45924-.25.6875-.18679.54568-.35893 1.09939-.5 1.625-.0194.0722-.0441.14711-.0625.21875-.12267.47821-.23932.92579-.3125 1.375-.01.0613-.0223.12686-.0312.1875l-15.75.34375c-7.73488.16752-12.67354 3.20872-16 6.75-.25057-.29708-.49729-.56247-.75-.875-1.18628-1.4672-2.3266-3.0877-3.09375-4.4375-.76716-1.3499-1-2.50995-1-2.34375 0-2.0741.0997-2.1062.5-2.6875.40026-.5813 1.76143-1.84545 3.84375-4.15625 1.91208-2.1219 2.40202-3.93476 3.1875-6.40625.78548-2.47151 1.40625-5.21473 1.40625-8.03125 0-1.89371-.13129-5.14876-.6875-8.46875-.27811-1.65999-.64504-3.30683-1.28125-4.9375-.63621-1.63067-1.43988-3.49672-3.78125-4.84375-.81376-.48299-1.77427-.71484-2.71875-.65625z"/>
    <g fill="#fff" transform="translate(-2.6e-7 -.00001208)">
      <path d="M45.5338 982.31651c-1.348318 0-6.127429-.46346-8.085579-.20811-1.95815.25535-3.275093.0484-4.676321.5l-1.99065.6416-1.479928.54443s-1.096233 1.2748-2.395072 2.14307c-1.014597.67899-1.319888 2.21996-.640806 3.2345.679083 1.01453 2.220086 1.31968 3.234556.6405 1.189542-.79521 2.376001-1.63617 2.84375-1.96875 1.749321-.0585 3.608925-.27377 5.34375-.5 1.998202-.26058 3.900225-.46875 4.375-.46875 1.219003 0 2.948809-.791 2.948809-2.01001 0-1.219 1.741494-2.54848.522491-2.54848z" color="#000" enable-background="accumulate" filter="url(#F)" font-family="Sans" font-weight="400" overflow="visible" style="text-indent:0;text-align:start;line-height:normal;text-transform:none;block-progression:tb;marker:none;-inkscape-font-specification:Sans" transform="matrix(1.46905 0 0 1.62324 -17.442006 -613.79672)"/>
      <path d="M87.055804 949.71863c-7.70508.098-11.17876 2.5964-11.75 3.0625-.61463.5015-2.19148 1.4843-2.5 2.375-.004.012-.0272.019-.0312.031-1.5673 1.6456-1.69388 2.1093-2.46875 4.3125 1.95334-2.6912 6.23782-2.205 7.03125-2.3437.16494-.029.55883-.073 1.15625-.125.59742-.052 1.38298-.1317 2.28125-.1875 1.79465-.1155 4.071-.2071 6.28125-.2188 2.21025.012 4.48471.1071 6.28125.2188.89827.056 1.68383.1355 2.28125.1875.59742.052.99131.096 1.15625.125.79343.1387 5.077916-.3475 7.031256 2.3437-.77487-2.2032-.90145-2.6669-2.46875-4.3125-.004-.012-.0272-.019-.0312-.031-.30852-.8907-1.885366-1.8735-2.500006-2.375-.57124-.4661-4.04492-2.9647-11.75-3.0625z" color="#000" enable-background="accumulate" filter="url(#G)" font-family="Sans" font-weight="400" overflow="visible" style="text-indent:0;text-align:start;line-height:normal;text-transform:none;block-progression:tb;marker:none;-inkscape-font-specification:Sans"/>
      <path d="M15.582722 938.47382c0 .53697-.704332.97227-1.573169.97227-.868837 0-1.573169-.4353-1.573169-.97227s.704332-.97228 1.573169-.97228c.868837 0 1.573169.43531 1.573169.97228z" filter="url(#H)" transform="matrix(1.17004 .16984 -.18594 1.23635 173.95311 -224.606)"/>
    </g>
  </g>
</svg>