<?xml version="1.0" encoding="UTF-8" standalone="no"?>
<svg xmlns="http://www.w3.org/2000/svg" xmlns:xlink="http://www.w3.org/1999/xlink" width="48" height="48">
  <linearGradient id="j" x1="100.606" x2="100.606" y1="37.113" y2="139.74" gradientTransform="matrix(.12861 -.06386046 .06003955 .117844 48.67348 .239063)" gradientUnits="userSpaceOnUse" xlink:href="#a"/>
  <linearGradient id="i" x1="146.385" x2="307.076" y1="64.408" y2="436.28" gradientTransform="matrix(.0955185 -.03628389 .03912589 .105125 27.78007 9.907698)" gradientUnits="userSpaceOnUse">
    <stop offset="0" stop-color="#fff"/>
    <stop offset="1" stop-color="#fff" stop-opacity="0"/>
  </linearGradient>
  <linearGradient id="h" x1="-110.524" x2="439.447" y1="27.162" y2="461.308" gradientTransform="matrix(.09309382 -.03536275 .03639664 .09779137 28.36097 10.40549)" gradientUnits="userSpaceOnUse">
    <stop offset="0" stop-color="red"/>
    <stop offset="1" stop-color="#920000"/>
  </linearGradient>
  <radialGradient id="g" cx="186.754" cy="103.611" r="117.686" fx="189.436" fy="25.391" gradientTransform="matrix(.09250725 -.03513989 .03662747 .09841177 28.36097 10.40549)" gradientUnits="userSpaceOnUse" spreadMethod="reflect">
    <stop offset="0" stop-color="#ff7d00"/>
    <stop offset=".254" stop-color="#ffbe00"/>
    <stop offset="1" stop-color="#ff0"/>
  </radialGradient>
  <linearGradient id="a" x1="100.606" x2="100.606" y1="37.113" y2="139.74" gradientUnits="userSpaceOnUse">
    <stop offset="0" stop-color="#ffa700"/>
    <stop offset=".691" stop-color="#ff0"/>
    <stop offset=".792" stop-color="#fffc00"/>
    <stop offset=".855" stop-color="#fff400"/>
    <stop offset=".907" stop-color="#ffe500"/>
    <stop offset=".953" stop-color="#ffd100"/>
    <stop offset=".995" stop-color="#ffb700"/>
    <stop offset="1" stop-color="#ffb300"/>
  </linearGradient>
  <linearGradient id="f" x1="100.606" x2="100.606" y1="37.113" y2="139.74" gradientTransform="matrix(.380689 -.189029 .183421 .360017 48.0261 -.411723)" gradientUnits="userSpaceOnUse" xlink:href="#a"/>
  <linearGradient id="e" x1="5.683" x2="14.965" y1="21.674" y2="41.796" gradientTransform="matrix(1.104176 0 0 .490191 43.76188 12.01201)" gradientUnits="userSpaceOnUse">
    <stop offset="0" stop-color="#fff" stop-opacity=".729"/>
    <stop offset="1" stop-color="#fff" stop-opacity="0"/>
  </linearGradient>
  <linearGradient id="d" x1="117.481" x2="122.966" y1=".764" y2="-4.401" gradientTransform="matrix(.583981 -.05632389 .240585 1.738144 24.49778 48.99001)" gradientUnits="userSpaceOnUse" xlink:href="#b"/>
  <linearGradient id="b">
    <stop offset="0" stop-color="#fff"/>
    <stop offset=".5" stop-color="#fff" stop-opacity=".287"/>
    <stop offset="1" stop-color="#fff" stop-opacity="0"/>
  </linearGradient>
  <radialGradient id="c" cx="151.53" cy="30.824" r="35.001" gradientTransform="matrix(.407853 -.182096 .912747 2.044345 0 0)" gradientUnits="userSpaceOnUse" xlink:href="#b"/>
  <g transform="matrix(.711048 0 0 .670143 -41.17282 -3.827476)">
    <path fill-opacity=".1" d="m49.642323 8.0001778c-.270235-.0762613-.498823-.0259149-.644531.0257813-.290671.1027653-.788482.4371642-.773437 1.4953125l.154687 11.2148434c.008333.654621-.482813 1.463034-1.057031 1.701563l-9.848438 4.099219c-.928366.379934-1.024521.963718-1.005468 1.289062.01905.325344.207076.94531 1.185937 1.314844l10.338281 3.892969c.600833.230307 1.191078.995413 1.263282 1.65l1.211718 11.214843c.116913 1.056743.651734 1.397384.953907 1.495313.303614.097399.905327.135381 1.495307-.696094l6.239063-8.817187c.039781-.056425.129772-.077796.180477-.128907l15.624743 40.48193c.330413.905873.504488 1.681139 1.51612 1.312159l2.139852-.799218c1.011631-.368983.90019-1.339885.569794-2.245757l-14.162589-38.430226 6.583955 1.975644c1.000989.268908 1.430698-.121338 1.598437-.386719.167706-.265383.356879-.846884-.257812-1.727344l-6.496875-9.358594c-.371316-.536152-.433637-1.522065-.128915-2.0625l5.336727-9.461718c.501914-.891679.251576-1.465583.051563-1.727344-.20003-.261764-.682605-.645579-1.65-.360938l-10.260938 3.042188c-.586311.173844-1.486947-.118922-1.907812-.61875l-7.321879-8.6882814c-.345795-.4088502-.657889-.6198341-.928125-.6960938z" transform="matrix(1.095529 -.161395 .06257485 .996904 26.11163 9.028099)"/>
    <path d="m65.92562 8.9076719h2.766452c1.305242 0 2.356033.9409355 2.356033 2.1097211v57.72219c0 1.168785-1.050791 2.10972-2.356033 2.10972h-2.766452c-1.305242 0-2.356032-.940935-2.356032-2.10972v-57.72219c0-1.1687856 1.05079-2.1097211 2.356032-2.1097211z" transform="matrix(.687595 -.33629 .35803 .727112 39.95577 47.0526)"/>
    <path fill="url(#c)" d="m67.698064-9.5640421 2.351434-.8184739c1.109432-.386165 1.170633.4213864 1.516427 1.4148343l17.708573 48.5701757c.345793.993446.127136 2.343012-.982297 2.729178l-2.185109.688631c-1.109433.386166-1.435384-.031994-1.781177-1.025441l-18.006259-49.0686305c-.345794-.9934476.268976-2.1041086 1.378408-2.4902736z" transform="matrix(.76865 -.06678086 .100746 .798325 39.95577 47.0526)"/>
    <path fill="url(#d)" fill-rule="evenodd" d="m89.796171 31.583299c5.79073 11.814124 10.182009 17.161642 14.251009 29.528627 1.96392 5.968986 1.79378 6.770446 1.05528 7.131304-6.79845-13.564431-9.982952-20.393751-16.781429-33.958179.655983-.79107.819155-1.910683 1.47514-2.701752z"/>
    <path fill="url(#e)" fill-rule="evenodd" d="m48.811637 26.089317c.001655-.454017.003311-.908036.004968-1.362045.001656-.454018.003311-.908036.004976-1.362053-.008739-.493512.13009-.794312.51619-.824667 1.280335-.004603 2.560662-.009198 3.840997-.013793 1.280335-.004594 2.560661-.009189 3.840997-.013792-.057026 1.46166-5.534059 1.161201-6.298169 1.247179-1.401538.157701-.359855 1.794947-1.909959 2.329171z" transform="matrix(1.095529 -.161395 .06257485 .996904 26.11163 9.028099)"/>
    <path fill="url(#f)" d="m108.72185 24.316186c-.09665.194146-.27845.44681-.61228.622949.33458-.175607.52278-.414762.62512-.597749.16096-.286072.31488-.817205-.05491-1.504647.3094.684052.1822 1.196497.04207 1.479447z"/>
    <path fill="url(#g)" stroke="url(#h)" stroke-linejoin="round" stroke-opacity=".419" stroke-width=".273" d="m67.970791 12.389828c-.189843-.257316-.645761-.647591-1.563932-.367787l-9.724665 2.988494c-.556473.17089-1.425821-.119303-1.825278-.610637l-6.943464-8.5438051c-.656396-.8038033-1.215837-.7525765-1.492424-.6509431-.275877.1010204-.735896.4277806-.721616 1.4679497l.148842 11.0393725c.00791.643498-.46374 1.415974-1.008736 1.650449l-9.345391 4.031052c-.88112.37348-.982395.96546-.964315 1.285275.018082.319816.187882.910398 1.116927 1.273652l9.813202 3.833764c.570258.226394 1.134737.990649 1.203266 1.634111l1.162696 11.025886c.110963 1.038786.609357 1.354247.896153 1.450512.288165.095744.853997.13474 1.413959-.682607l5.918104-8.664708c.345925-.508187 1.165703-.811353 1.755173-.649221l10.064736 2.793169c.950049.26434 1.358397-.134071 1.517585-.394943s.33811-.828129-.245298-1.693629l-6.1576-9.193372c-.352426-.527043-.409991-1.490374-.120782-2.021627l5.061873-9.305097c.476366-.876527.230828-1.437996.040985-1.69531z" transform="matrix(1.095529 -.161395 .06257485 .996904 26.11163 9.028099)"/>
    <path fill="url(#i)" d="m61.990082 22.112126 3.058965-6.184503c.367862-.743864.156241-1.232695-.003352-1.458463-.15907-.225966-.537252-.57174-1.276631-.350718l-7.826269 2.359873c-.448031.135281-1.159058-.133924-1.493682-.565701l-5.817217-7.506871c-.5493-.7064376-1.002436-.6742972-1.224431-.5931758-.221735.0810233-.587967.3522932-.553975 1.2477094l.357285 9.5068004c.020287.554034-.345643 1.208823-.783032 1.398481l-7.496046 3.265655c-.706847.301985-.776508.809328-.754753 1.085318.021639.275678.171784.787862.933519 1.120801l8.043997 3.515336c.467513.207113.942048.877833 1.011398 1.433177l.038014.304366c.84793-.238745 1.69671-.513078 2.54321-.834631 4.622376-1.755868 8.474622-4.509371 11.243-7.743454z" transform="matrix(1.095529 -.161395 .06257485 .996904 26.11163 9.028099)"/>
    <path fill="url(#j)" d="m109.10166 24.203836c-.09824.195078-.28258.449165-.61996.627074.33814-.177379.52888-.417943.63281-.601848.16344-.287515.32074-.820778-.04957-1.508832.30941.684881.17914 1.199303.03672 1.483606z"/>
    <path fill="#e89500" d="m57.09566 31.977473c-.60869-.198842-1.437164.107276-1.774226.654383l-5.31733 10.536905c-.545652.880186-1.1261.81832-1.423996.702709-.21203-.082618-.537416-.298394-.760503-.831606.196533.588298.551176.802922.777754.877954.290555.095041.861541.132333 1.429258-.688566l6.00014-8.70231c.350727-.510391 1.17909-.81681 1.773554-.656189l10.149937 2.767421c.478519.130812.821612.09632 1.065022-.004043-.243186.100965-.589751.126128-1.079695-.035383z" opacity=".3" transform="matrix(1.095529 -.161395 .06257485 .996904 26.11163 9.028099)"/>
  </g>
</svg>
