<svg fill="none" height="141" viewBox="0 0 134 141" width="134" xmlns="http://www.w3.org/2000/svg" xmlns:xlink="http://www.w3.org/1999/xlink"><clipPath id="a"><path d="m38.1555.209961h58.6466v83.4586h-58.6466z"/></clipPath><g clip-path="url(#a)"><path d="m90.2503 53.3439c1.2211-.3191 2.4392-.6558 3.6662-.9513.9165-.2215 1.0141-.1093.8278.8006-.8278 4.0384-1.6498 8.0768-2.4835 12.1151-.8959 4.3486-1.8213 8.6913-2.6875 13.0428-.1331.6676-.4347.9453-1.0644 1.093-4.086.9424-8.2104 1.6928-12.326 2.4845-3.0807.5908-6.1378 1.2998-9.257 1.6898-1.2033.1506-2.3475-.0768-3.5035-.2984-6.4129-1.2319-12.8198-2.4845-19.2355-3.7016-.7066-.1329-1.0171-.4343-1.1531-1.1639-1.499-7.9704-3.0364-15.9349-4.5531-23.9023-.1065-.5525-.136-1.1197-.2188-1.6751-.068-.4667.1508-.5613.5558-.4815.8456.1684 1.6942.3309 2.5368.5642-.3726-.316-.7894-.5199-1.2388-.6824-.3253-.1181-.618-.2718-.6623-.6972-.0739-.7355.1005-.9039.816-.6824 4.7838 1.4712 9.5616 2.9513 14.3453 4.4224.1626.0503.3341.0709.4997.1034.3193.1212.6327.2571.955.3634 3.5124 1.1521 7.0839 2.1891 9.8335 4.8774.2779.2717.5085.1831.7539-.0473 1.6291-1.5125 3.613-2.4195 5.6382-3.2378 1.6084-.6499 3.2464-1.223 4.8725-1.8286 1.567-.3043 3.0571-.8715 4.5797-1.3265 3.5656-1.0694 7.1224-2.1713 10.688-3.2407.2661-.0798.7126-.3929.8338.1359.0946.4195.1774.9247-.4701 1.1374-.8781.2865-1.7562.5937-2.5575 1.0812-.6297.2009-1.3393.1891-2.0075.7858.8013-.2452 1.4665-.3515 2.0164-.774zm-7.5481 2.5288c-3.4415 1.0458-6.9007 2.0443-10.3244 3.1521-2.2233.7208-4.3964 1.5982-5.8037 3.6602-.2809.4107-.5352.1743-.7392-.1181-1.1028-1.5717-2.7052-2.4402-4.426-3.1463-2.8235-1.1609-5.783-1.8847-8.6982-2.7503-.8013-.2363-1.5847-.5436-2.4274-.6086 1.6735.6913 3.3557 1.3383 5.0351 2.0059 2.9447 1.1699 5.8983 2.3279 8.0833 4.7799.1951.2186.4257.2038.6711.2038 1.3512.0089 2.7023.0089 4.0535.0384.3932.0089.6977-.0768.9786-.3781 1.1176-1.1994 2.4539-2.0915 3.9263-2.8065 1.4576-.709 2.9655-1.2939 4.4674-1.8936 1.7207-.6854 3.4533-1.3353 5.1829-2.0029.8367-.2689 1.6764-.5347 2.5131-.8036-.0237-.0679-.0473-.1388-.0739-.2068-.8072.2895-1.6114.5791-2.4185.8715z" fill="#050505"/><path d="m63.2183 16.0411c.1804.0236.2513-.13.3459-.2275 4.6034-4.7474 9.6089-9.05164 14.706-13.25249.547-.45199 1.1088-.89216 1.6705-1.32347.1656-.12703.3548-.360411.5765-.19202.2425.1802.0355.40767-.062.58788-1.4251 2.64104-2.859 5.27913-4.29 7.91721-1.4694 2.71199-2.9359 5.42089-4.4024 8.13289-.068.127-.1153.2629-.1774.4047.2366.1536.3785-.0266.5263-.1152 5.3396-3.1994 10.6792-6.4047 16.0158-9.60997.9047-.54357 1.7946-1.10782 2.6905-1.66321.204-.12702.4405-.37518.6504-.17134.2691.26292-.0503.4904-.1981.68242-1.6971 2.18314-3.403 4.3574-5.1089 6.5317-2.3239 2.966-4.562 5.997-6.7765 9.0428-.0651.0915-.2779.1447-.1567.3367.1508.2393.3134.0266.4405-.0118 3.3202-.9571 6.6789-1.7636 10.0435-2.5376 2.0519-.4727 4.086-1.0281 6.1704-1.3471.0975-.0148.1921-.0384.2897-.0443.2158-.0119.4997-.0975.6032.1388.1123.257-.1745.3663-.343.4874-4.1451 2.9779-8.2932 5.9527-12.4383 8.9305-.3873.2777-.7717.5613-1.2891.9365 2.046.3841 3.9145.7326 5.7831 1.0901 2.3623.449 4.7246.901 7.0869 1.3501.2661.0502.6209.062.6238.3811.003.2895-.3755.2865-.5883.3426-3.7608 1.0311-7.4861 2.1714-11.1848 3.4062-.5972.2009-.6238.3013-.1951.7592 1.428 1.5185 2.8117 3.0813 4.2072 4.6322.1242.1388.3371.2777.2484.4934-.1065.257-.3755.1861-.5884.1861-2.383.0147-4.769.0206-7.152.0354-.269 0-.538.0236-.8071.0355-.207-.325-.4997-.4195-.8781-.3959-.4908.0325-.9875-.0384-1.4724.0177-.7184.0857-.8308-.2068-.8189-.8715.0236-1.1905.3163-2.4253-.21-3.5657-1.2447-2.6971-2.5367-5.3736-3.8139-8.056-.1035-.2157-.1834-.5229-.4879-.4668-.3104.0591-.2424.387-.2749.6145-.3046 2.0886-.5973 4.1772-.9018 6.2658-.0355.2452 0 .5259-.2395.7681-.1301-.1743-.2454-.2984-.3282-.4431-2.655-4.5613-5.31-9.1225-7.9679-13.6808-.1183-.2009-.2011-.517-.4938-.4816-.3134.0384-.272.3693-.3193.5968-.5056 2.4283-.9993 4.8566-1.5108 7.285-.065.3102-.071.6529-.2809.9394-.2394-.1861-.2542-.4165-.3281-.6233-.55-1.548-1.094-3.096-1.6557-4.6381-.0769-.2127-.0503-.579-.3548-.5731-.2957.0059-.2868.3516-.3489.579-.5115 1.9734-.819 3.9911-1.1708 5.9941-.5529 3.1432-.9579 6.3101-1.3157 9.4829-.0384.3456-.0532.6292-.5262.5997-.9048-.0591-1.8124-.0886-2.7201-.127-.2158-1.0635-.1803-2.1477-.2158-3.2231-.0237-.7208-.2661-.8183-.9106-.7592-3.2286.2984-6.4572.5525-9.6887.8213-.1715.0148-.346.0384-.5145.0236-.3696-.0295-.4169-.2186-.1892-.4815.2424-.2777.4967-.5436.7569-.8065 2.1287-2.1447 4.2545-4.2954 6.401-6.4224.34-.3368.4168-.5495.0857-.9572-3.0216-3.7075-6.0196-7.4327-9.0235-11.155-.1271-.1595-.4021-.3131-.1921-.5465.1773-.2009.4287-.0325.6179.0502 2.519 1.0931 5.035 2.1891 7.5452 3.3058 1.6468.7356 3.2758 1.5066 5.0202 2.3101-.473-2.1388-.9165-4.1654-1.3718-6.1919-.6593-2.9394-1.3275-5.8789-1.9898-8.81826-.0148-.0709-.0325-.14771-.0266-.21861.0118-.20089-.204-.45495.0857-.59084.2809-.12998.3814.13885.5115.30428 1.0762 1.36779 2.1465 2.73853 3.2197 4.10923.9373 1.1965 1.8952 2.3782 2.8117 3.5923.3046.4018.4435.2836.6593-.0531 3.3617-5.2851 7.1136-10.29242 10.8566-15.305673.1508-.200884.2631-.484486.541-.363364.3046.135892.1213.434265.071.658782-1.0939 4.797595-2.2026 9.595155-3.4799 14.348455-.068.257-.2809.517-.0739.8065-.0325 0-.065 0-.0976 0 .0089.0296.0207.0591.0296.0886l.0621-.0975z" fill="#050505"/><path d="m51.7232 41.6099c.9077.0414 1.8153.068 2.72.127.4731.0325.4879-.254.5263-.5997.3548-3.1728.7628-6.3396 1.3157-9.4829.3518-2.0059.6593-4.0206 1.1708-5.994.0591-.2275.0503-.5761.3489-.5791.3015-.0059.2779.3605.3548.5732.5617 1.542 1.1057 3.093 1.6556 4.638.074.2039.0887.4343.3282.6234.207-.2866.2129-.6293.2809-.9395.5085-2.4254 1.0052-4.8567 1.5108-7.285.0473-.2275.0059-.5583.3193-.5967.2957-.0355.3785.2777.4938.4815 2.6579 4.5583 5.31 9.1225 7.9679 13.6808.0828.1448.1981.2689.3282.4431.2365-.2422.204-.5228.2395-.768.3045-2.0886.5972-4.1773.9017-6.2659.0326-.2274-.0354-.5554.275-.6144.3045-.0562.3873.2511.4878.4667 1.2773 2.6824 2.5693 5.3589 3.814 8.0561.5263 1.1403.2306 2.3752.2099 3.5657-.0118.6647.1006.9571.819.8715.4849-.0562.9846.0118 1.4724-.0178.3814-.0236.6711.0709.8781.3959.1094 2.254-.9372 4.0502-2.247 5.7577-1.2802 1.6691-2.9388 2.8685-4.7039 3.9557-.1419.0856-.3252.1211-.3992.3574 1.7149.6618 3.3705 1.4269 4.3817 3.0901-1.6261.6056-3.2641 1.1787-4.8724 1.8286-2.0253.8183-4.0092 1.7253-5.6382 3.2378-.2484.2304-.476.3191-.754.0473-2.7496-2.6883-6.3211-3.7223-9.8335-4.8774-.3223-.1063-.6357-.2422-.955-.3633.3016-.7622 1.0318-1.0842 1.6232-1.5392.7509-.5731 1.6231-.9542 2.6077-1.3618-1.1501-.7681-2.2293-1.3796-3.205-2.1448-1.7414-1.3707-3.1901-2.9601-3.95-5.0871-.4287-1.1935-.5351-2.4254-.4671-3.6809z" fill="#efbd44"/><path d="m82.6785 56.0114c-1.7266.6647-3.4621 1.3175-5.1828 2.0029-1.502.5997-3.0098 1.1846-4.4674 1.8937-1.4753.7149-2.8088 1.607-3.9263 2.8064-.2809.3014-.5854.3841-.9787.3782-1.3511-.0266-2.7023-.0296-4.0534-.0384-.2454 0-.476.0147-.6712-.2039-2.1849-2.452-5.1385-3.61-8.0833-4.7799-1.6763-.6676-3.3616-1.3146-5.035-2.0058.8426.065 1.6261.3722 2.4273.6085 2.9152.8656 5.8748 1.5923 8.6983 2.7504 1.7237.706 3.3232 1.5745 4.426 3.1462.204.2924.4612.5288.7391.1181 1.4074-2.062 3.5775-2.9394 5.8038-3.6602 3.4207-1.1108 6.8799-2.1093 10.3214-3.1521-.0296.0443-.1656.0709-.0207.1388z" fill="#fff"/><path d="m82.6786 56.0113c-.1419-.0679-.0059-.0945.0207-.1388.8072-.2896 1.6143-.582 2.4214-.8715.0237.0679.0474.1388.074.2068-.8368.2688-1.6764.5347-2.5131.8035z" fill="#efbd44"/><path d="m90.2504 53.3438c-.5499.4225-1.2152.5259-2.0164.774.6652-.5967 1.3778-.5849 2.0075-.7858z" fill="#efbd44"/><path d="m63.2184 16.0415-.0621.0975c-.0089-.0296-.0207-.0591-.0296-.0886h.0976z" fill="#fff"/></g><g fill="#000"><path d="m4.50137 116.962v4.391h2.04512c1.50375 0 2.84711.12 4.03011.361 1.1829.24 2.1854.631 3.0075 1.173.822.521 1.4436 1.213 1.8646 2.075.4411.842.6617 1.874.6617 3.097 0 2.266-.8221 3.96-2.4662 5.083-1.624 1.103-3.94984 1.654-6.97741 1.654-.84211 0-1.79449-.05-2.85715-.15-1.06265-.08-2.06516-.231-3.007516-.451v-20.451h13.353376v3.218zm1.32331 14.556h.75188c.2807 0 .59148-.01.93233-.03.62156-.02 1.21303-.09 1.77444-.211.58145-.12 1.08267-.31 1.50377-.571.4411-.261.7819-.601 1.0225-1.022.2607-.422.391-.953.391-1.594 0-.722-.1303-1.314-.391-1.775-.2606-.461-.6416-.822-1.1428-1.083-.5013-.28-1.1128-.471-1.8346-.571-.70175-.12-1.50376-.181-2.40601-.181h-1.92482v6.978c.18045.02.37093.04.57143.06z"/><path d="m31.9964 118.856c-1.624 5.975-3.5087 11.389-5.6541 16.241-.401.902-.812 1.674-1.2331 2.316-.421.641-.8922 1.173-1.4135 1.594s-1.1028.722-1.7444.902c-.6416.201-1.3834.301-2.2255.301-.5614 0-1.1228-.06-1.6842-.181-.5414-.12-.9524-.25-1.2331-.391l.6616-2.917c.7218.281 1.4336.421 2.1354.421.9423 0 1.6741-.23 2.1955-.692.5413-.441 1.0125-1.132 1.4135-2.075-1.1429-2.205-2.2456-4.611-3.3083-7.218-1.0426-2.606-1.9749-5.373-2.797-8.301h3.8797c.2005.843.4411 1.755.7218 2.737.3008.983.6216 1.985.9624 3.008.3409 1.002.7018 2.005 1.0827 3.007.381 1.003.7619 1.935 1.1429 2.797.6416-1.784 1.2431-3.679 1.8045-5.684.5614-2.025 1.0727-3.98 1.5338-5.865z"/><path d="m38.3891 125.172c.4611-.461.9624-.972 1.5037-1.534.5414-.581 1.0727-1.163 1.594-1.744.5414-.581 1.0526-1.133 1.5338-1.654.4812-.541.8822-1.003 1.2031-1.384h4.2706c-.4411.522-.9524 1.093-1.5338 1.715-.5614.621-1.1529 1.263-1.7744 1.925-.6015.641-1.2031 1.273-1.8046 1.894-.5814.602-1.1127 1.143-1.5939 1.624.6215.522 1.2631 1.133 1.9248 1.835.6817.682 1.3433 1.413 1.9849 2.195.6617.762 1.2732 1.544 1.8346 2.346.5614.782 1.0326 1.514 1.4136 2.196h-4.2106c-.3809-.602-.8321-1.233-1.3534-1.895-.5012-.662-1.0325-1.303-1.5939-1.925-.5614-.641-1.1329-1.243-1.7143-1.804-.5815-.562-1.1429-1.043-1.6842-1.444v7.068h-3.6391v-15.73h3.6391z"/><path d="m57.113 132.029c1.1228 0 1.9749-.06 2.5564-.18v-4.03c-.2005-.06-.4913-.12-.8722-.181-.381-.06-.802-.09-1.2632-.09-.401 0-.812.03-1.233.09-.401.061-.772.171-1.1128.331-.3208.161-.5815.391-.782.692-.2005.281-.3007.642-.3007 1.083 0 .862.2706 1.463.812 1.804.5413.321 1.2732.481 2.1955.481zm-.3008-13.564c1.203 0 2.2156.151 3.0376.452.8221.3 1.4737.721 1.9549 1.263.5013.541.8521 1.203 1.0526 1.985.2206.762.3309 1.604.3309 2.526v9.534c-.5614.12-1.4136.261-2.5564.421-1.1228.18-2.396.271-3.8196.271-.9423 0-1.8045-.091-2.5864-.271-.782-.181-1.4537-.471-2.0151-.872-.5413-.401-.9724-.923-1.2932-1.564-.3008-.642-.4511-1.434-.4511-2.376 0-.902.1704-1.664.5112-2.286.3609-.621.8421-1.123 1.4437-1.504.6015-.401 1.2932-.681 2.0751-.842.802-.18 1.6341-.27 2.4963-.27.401 0 .822.03 1.2631.09.4411.04.9123.12 1.4136.24v-.601c0-.421-.0502-.822-.1504-1.203-.1003-.381-.2807-.712-.5414-.993-.2406-.3-.5714-.531-.9924-.691-.401-.161-.9123-.241-1.5339-.241-.8421 0-1.614.06-2.3158.181-.7017.12-1.2731.26-1.7142.421l-.4512-2.948c.4612-.16 1.1329-.321 2.0151-.481s1.8245-.241 2.827-.241z"/><path d="m75.765 116.992c-.0601 1.363-.1303 2.757-.2105 4.18-.0802 1.404-.2306 2.767-.4512 4.09-.2005 1.304-.5012 2.537-.9022 3.7s-.9524 2.185-1.6541 3.067c-.7018.863-1.584 1.554-2.6467 2.076-1.0426.521-2.3258.802-3.8496.842l-.421-3.309c.7218-.08 1.3533-.22 1.8947-.421.5414-.2 1.0125-.461 1.4135-.782.401-.34.7519-.751 1.0527-1.233.3007-.501.5614-1.082.7819-1.744.5414-1.564.9023-3.519 1.0827-5.865.1805-2.346.2707-4.962.2707-7.849h13.0226v20.842h-3.8196v-17.594z"/><path d="m102.808 118.856c-1.624 5.975-3.5085 11.389-5.6539 16.241-.401.902-.812 1.674-1.2331 2.316-.421.641-.8922 1.173-1.4135 1.594s-1.1028.722-1.7444.902c-.6416.201-1.3834.301-2.2255.301-.5614 0-1.1228-.06-1.6843-.181-.5413-.12-.9523-.25-1.233-.391l.6616-2.917c.7218.281 1.4336.421 2.1354.421.9423 0 1.6741-.23 2.1954-.692.5414-.441 1.0126-1.132 1.4136-2.075-1.1429-2.205-2.2456-4.611-3.3083-7.218-1.0426-2.606-1.9749-5.373-2.797-8.301h3.8797c.2005.843.4411 1.755.7218 2.737.3008.983.6216 1.985.9624 3.008.3409 1.002.7018 2.005 1.0827 3.007.381 1.003.7619 1.935 1.1429 2.797.6416-1.784 1.2431-3.679 1.8045-5.684.5614-2.025 1.0727-3.98 1.5338-5.865z"/><path d="m109.201 125.172c.461-.461.962-.972 1.504-1.534.541-.581 1.072-1.163 1.594-1.744.541-.581 1.052-1.133 1.533-1.654.482-.541.883-1.003 1.203-1.384h4.271c-.441.522-.952 1.093-1.534 1.715-.561.621-1.153 1.263-1.774 1.925-.602.641-1.203 1.273-1.805 1.894-.581.602-1.112 1.143-1.594 1.624.622.522 1.264 1.133 1.925 1.835.682.682 1.344 1.413 1.985 2.195.662.762 1.273 1.544 1.835 2.346.561.782 1.032 1.514 1.413 2.196h-4.21c-.381-.602-.832-1.233-1.354-1.895-.501-.662-1.032-1.303-1.594-1.925-.561-.641-1.132-1.243-1.714-1.804-.581-.562-1.143-1.043-1.684-1.444v7.068h-3.639v-15.73h3.639z"/><path d="m127.925 132.029c1.123 0 1.975-.06 2.556-.18v-4.03c-.2-.06-.491-.12-.872-.181-.381-.06-.802-.09-1.263-.09-.401 0-.812.03-1.233.09-.401.061-.772.171-1.113.331-.321.161-.581.391-.782.692-.2.281-.301.642-.301 1.083 0 .862.271 1.463.812 1.804.542.321 1.273.481 2.196.481zm-.301-13.564c1.203 0 2.216.151 3.038.452.822.3 1.473.721 1.955 1.263.501.541.852 1.203 1.052 1.985.221.762.331 1.604.331 2.526v9.534c-.561.12-1.414.261-2.556.421-1.123.18-2.396.271-3.82.271-.942 0-1.804-.091-2.586-.271-.782-.181-1.454-.471-2.015-.872-.542-.401-.973-.923-1.294-1.564-.3-.642-.451-1.434-.451-2.376 0-.902.171-1.664.511-2.286.361-.621.843-1.123 1.444-1.504.602-.401 1.293-.681 2.075-.842.802-.18 1.634-.27 2.496-.27.401 0 .823.03 1.264.09.441.04.912.12 1.413.24v-.601c0-.421-.05-.822-.15-1.203s-.281-.712-.542-.993c-.24-.3-.571-.531-.992-.691-.401-.161-.912-.241-1.534-.241-.842 0-1.614.06-2.316.181-.701.12-1.273.26-1.714.421l-.451-2.948c.461-.16 1.133-.321 2.015-.481s1.825-.241 2.827-.241z"/></g></svg>