<svg width="134" height="141" viewBox="0 0 134 141" fill="none" xmlns="http://www.w3.org/2000/svg">
<g clip-path="url(#clip0_1260_10830)">
<path d="M90.2503 53.3439C91.4714 53.0248 92.6895 52.6881 93.9165 52.3926C94.833 52.1711 94.9306 52.2833 94.7443 53.1932C93.9165 57.2316 93.0945 61.27 92.2608 65.3083C91.3649 69.6569 90.4395 73.9996 89.5733 78.3511C89.4402 79.0187 89.1386 79.2964 88.5089 79.4441C84.4229 80.3865 80.2985 81.1369 76.1829 81.9286C73.1022 82.5194 70.0451 83.2284 66.9259 83.6184C65.7226 83.769 64.5784 83.5416 63.4224 83.32C57.0095 82.0881 50.6026 80.8355 44.1869 79.6184C43.4803 79.4855 43.1698 79.1841 43.0338 78.4545C41.5348 70.4841 39.9974 62.5196 38.4807 54.5522C38.3742 53.9997 38.3447 53.4325 38.2619 52.8771C38.1939 52.4104 38.4127 52.3158 38.8177 52.3956C39.6633 52.564 40.5119 52.7265 41.3545 52.9598C40.9819 52.6438 40.5651 52.4399 40.1157 52.2774C39.7904 52.1593 39.4977 52.0056 39.4534 51.5802C39.3795 50.8447 39.5539 50.6763 40.2694 50.8978C45.0532 52.369 49.831 53.8491 54.6147 55.3202C54.7773 55.3705 54.9488 55.3911 55.1144 55.4236C55.4337 55.5448 55.7471 55.6807 56.0694 55.787C59.5818 56.9391 63.1533 57.9761 65.9029 60.6644C66.1808 60.9361 66.4114 60.8475 66.6568 60.6171C68.2859 59.1046 70.2698 58.1976 72.295 57.3793C73.9034 56.7294 75.5414 56.1563 77.1675 55.5507C78.7345 55.2464 80.2246 54.6792 81.7472 54.2242C85.3128 53.1548 88.8696 52.0529 92.4352 50.9835C92.7013 50.9037 93.1478 50.5906 93.269 51.1194C93.3636 51.5389 93.4464 52.0441 92.7989 52.2568C91.9208 52.5433 91.0427 52.8505 90.2414 53.338C89.6117 53.5389 88.9021 53.5271 88.2339 54.1238C89.0352 53.8786 89.7004 53.7723 90.2503 53.3498V53.3439ZM82.7022 55.8727C79.2607 56.9185 75.8015 57.917 72.3778 59.0248C70.1545 59.7456 67.9814 60.623 66.5741 62.685C66.2932 63.0957 66.0389 62.8593 65.8349 62.5669C64.7321 60.9952 63.1297 60.1267 61.4089 59.4206C58.5854 58.2597 55.6259 57.5359 52.7107 56.6703C51.9094 56.434 51.126 56.1267 50.2833 56.0617C51.9568 56.753 53.639 57.4 55.3184 58.0676C58.2631 59.2375 61.2167 60.3955 63.4017 62.8475C63.5968 63.0661 63.8274 63.0513 64.0728 63.0513C65.424 63.0602 66.7751 63.0602 68.1263 63.0897C68.5195 63.0986 68.824 63.0129 69.1049 62.7116C70.2225 61.5122 71.5588 60.6201 73.0312 59.9051C74.4888 59.1961 75.9967 58.6112 77.4986 58.0115C79.2193 57.3261 80.9519 56.6762 82.6815 56.0086C83.5182 55.7397 84.3579 55.4739 85.1946 55.205C85.1709 55.1371 85.1473 55.0662 85.1207 54.9982C84.3135 55.2877 83.5093 55.5773 82.7022 55.8697V55.8727Z" fill="#050505"/>
<path d="M63.2183 16.0411C63.3987 16.0647 63.4696 15.9111 63.5642 15.8136C68.1676 11.0662 73.1731 6.76196 78.2702 2.56111C78.8172 2.10912 79.379 1.66895 79.9407 1.23764C80.1063 1.11061 80.2955 0.877229 80.5172 1.04562C80.7597 1.22582 80.5527 1.45329 80.4552 1.6335C79.0301 4.27454 77.5962 6.91263 76.1652 9.55071C74.6958 12.2627 73.2293 14.9716 71.7628 17.6836C71.6948 17.8106 71.6475 17.9465 71.5854 18.0883C71.822 18.2419 71.9639 18.0617 72.1117 17.9731C77.4513 14.7737 82.7909 11.5684 88.1275 8.36313C89.0322 7.81956 89.9221 7.25531 90.818 6.69992C91.022 6.5729 91.2585 6.32474 91.4684 6.52858C91.7375 6.7915 91.4181 7.01898 91.2703 7.211C89.5732 9.39414 87.8673 11.5684 86.1614 13.7427C83.8375 16.7087 81.5994 19.7397 79.3849 22.7855C79.3198 22.877 79.107 22.9302 79.2282 23.1222C79.379 23.3615 79.5416 23.1488 79.6687 23.1104C82.9889 22.1533 86.3476 21.3468 89.7122 20.5728C91.7641 20.1001 93.7982 19.5447 95.8826 19.2257C95.9801 19.2109 96.0747 19.1873 96.1723 19.1814C96.3881 19.1695 96.672 19.0839 96.7755 19.3202C96.8878 19.5772 96.601 19.6865 96.4325 19.8076C92.2874 22.7855 88.1393 25.7603 83.9942 28.7381C83.6069 29.0158 83.2225 29.2994 82.7051 29.6746C84.7511 30.0587 86.6196 30.4072 88.4882 30.7647C90.8505 31.2137 93.2128 31.6657 95.5751 32.1148C95.8412 32.165 96.196 32.1768 96.1989 32.4959C96.2019 32.7854 95.8234 32.7824 95.6106 32.8385C91.8498 33.8696 88.1245 35.0099 84.4258 36.2447C83.8286 36.4456 83.802 36.546 84.2307 37.0039C85.6587 38.5224 87.0424 40.0852 88.4379 41.6361C88.5621 41.7749 88.775 41.9138 88.6863 42.1295C88.5798 42.3865 88.3108 42.3156 88.0979 42.3156C85.7149 42.3303 83.3289 42.3362 80.9459 42.351C80.6769 42.351 80.4079 42.3746 80.1388 42.3865C79.9318 42.0615 79.6391 41.967 79.2607 41.9906C78.7699 42.0231 78.2732 41.9522 77.7883 42.0083C77.0699 42.094 76.9575 41.8015 76.9694 41.1368C76.993 39.9463 77.2857 38.7115 76.7594 37.5711C75.5147 34.874 74.2227 32.1975 72.9455 29.5151C72.842 29.2994 72.7621 28.9922 72.4576 29.0483C72.1472 29.1074 72.2152 29.4353 72.1827 29.6628C71.8781 31.7514 71.5854 33.84 71.2809 35.9286C71.2454 36.1738 71.2809 36.4545 71.0414 36.6967C70.9113 36.5224 70.796 36.3983 70.7132 36.2536C68.0582 31.6923 65.4032 27.1311 62.7453 22.5728C62.627 22.3719 62.5442 22.0558 62.2515 22.0912C61.9381 22.1296 61.9795 22.4605 61.9322 22.688C61.4266 25.1163 60.9329 27.5446 60.4214 29.973C60.3564 30.2832 60.3504 30.6259 60.1405 30.9124C59.9011 30.7263 59.8863 30.4959 59.8124 30.2891C59.2624 28.7411 58.7184 27.1931 58.1567 25.651C58.0798 25.4383 58.1064 25.072 57.8019 25.0779C57.5062 25.0838 57.5151 25.4295 57.453 25.6569C56.9415 27.6303 56.634 29.648 56.2822 31.651C55.7293 34.7942 55.3243 37.9611 54.9665 41.1339C54.9281 41.4795 54.9133 41.7631 54.4403 41.7336C53.5355 41.6745 52.6279 41.645 51.7202 41.6066C51.5044 40.5431 51.5399 39.4589 51.5044 38.3835C51.4807 37.6627 51.2383 37.5652 50.5938 37.6243C47.3652 37.9227 44.1366 38.1768 40.9051 38.4456C40.7336 38.4604 40.5591 38.484 40.3906 38.4692C40.021 38.4397 39.9737 38.2506 40.2014 37.9877C40.4438 37.71 40.6981 37.4441 40.9583 37.1812C43.087 35.0365 45.2128 32.8858 47.3593 30.7588C47.6993 30.422 47.7761 30.2093 47.445 29.8016C44.4234 26.0941 41.4254 22.3689 38.4215 18.6466C38.2944 18.4871 38.0194 18.3335 38.2294 18.1001C38.4067 17.8992 38.6581 18.0676 38.8473 18.1503C41.3663 19.2434 43.8823 20.3394 46.3925 21.4561C48.0393 22.1917 49.6683 22.9627 51.4127 23.7662C50.9397 21.6274 50.4962 19.6008 50.0409 17.5743C49.3816 14.6349 48.7134 11.6954 48.0511 8.75604C48.0363 8.68514 48.0186 8.60833 48.0245 8.53743C48.0363 8.33654 47.8205 8.08248 48.1102 7.94659C48.3911 7.81661 48.4916 8.08544 48.6217 8.25087C49.6979 9.61866 50.7682 10.9894 51.8414 12.3601C52.7787 13.5566 53.7366 14.7383 54.6531 15.9524C54.9577 16.3542 55.0966 16.236 55.3124 15.8993C58.6741 10.6142 62.426 5.60688 66.169 0.593627C66.3198 0.392743 66.4321 0.109141 66.71 0.230263C67.0146 0.366155 66.8313 0.664528 66.781 0.889045C65.6871 5.68664 64.5784 10.4842 63.3011 15.2375C63.2331 15.4945 63.0202 15.7545 63.2272 16.044C63.1947 16.044 63.1622 16.044 63.1296 16.044C63.1385 16.0736 63.1503 16.1031 63.1592 16.1326L63.2213 16.0351L63.2183 16.0411Z" fill="#050505"/>
<path d="M51.7232 41.6099C52.6309 41.6513 53.5385 41.6779 54.4432 41.7369C54.9163 41.7694 54.9311 41.4829 54.9695 41.1372C55.3243 37.9644 55.7323 34.7976 56.2852 31.6543C56.637 29.6484 56.9445 27.6337 57.456 25.6603C57.5151 25.4328 57.5063 25.0842 57.8049 25.0812C58.1064 25.0753 58.0828 25.4417 58.1597 25.6544C58.7214 27.1964 59.2654 28.7474 59.8153 30.2924C59.8893 30.4963 59.904 30.7267 60.1435 30.9158C60.3505 30.6292 60.3564 30.2865 60.4244 29.9763C60.9329 27.5509 61.4296 25.1196 61.9352 22.6913C61.9825 22.4638 61.9411 22.133 62.2545 22.0946C62.5502 22.0591 62.633 22.3723 62.7483 22.5761C65.4062 27.1344 68.0583 31.6986 70.7162 36.2569C70.799 36.4017 70.9143 36.5258 71.0444 36.7C71.2809 36.4578 71.2484 36.1772 71.2839 35.932C71.5884 33.8434 71.8811 31.7547 72.1856 29.6661C72.2182 29.4387 72.1502 29.1107 72.4606 29.0517C72.7651 28.9955 72.8479 29.3028 72.9484 29.5184C74.2257 32.2008 75.5177 34.8773 76.7624 37.5745C77.2887 38.7148 76.993 39.9497 76.9723 41.1402C76.9605 41.8049 77.0729 42.0973 77.7913 42.0117C78.2762 41.9555 78.7759 42.0235 79.2637 41.9939C79.6451 41.9703 79.9348 42.0648 80.1418 42.3898C80.2512 44.6438 79.2046 46.44 77.8948 48.1475C76.6146 49.8166 74.956 51.016 73.1909 52.1032C73.049 52.1888 72.8657 52.2243 72.7917 52.4606C74.5066 53.1224 76.1622 53.8875 77.1734 55.5507C75.5473 56.1563 73.9093 56.7294 72.301 57.3793C70.2757 58.1976 68.2918 59.1046 66.6628 60.6171C66.4144 60.8475 66.1868 60.9362 65.9088 60.6644C63.1592 57.9761 59.5877 56.9421 56.0753 55.787C55.753 55.6807 55.4396 55.5448 55.1203 55.4237C55.4219 54.6615 56.1521 54.3395 56.7435 53.8845C57.4944 53.3114 58.3666 52.9303 59.3512 52.5227C58.2011 51.7546 57.1219 51.1431 56.1462 50.3779C54.4048 49.0072 52.9561 47.4178 52.1962 45.2908C51.7675 44.0973 51.6611 42.8654 51.7291 41.6099H51.7232Z" fill="#EFBD44"/>
<path d="M82.6785 56.0114C80.9519 56.6761 79.2164 57.3289 77.4957 58.0143C75.9937 58.614 74.4859 59.1989 73.0283 59.908C71.553 60.6229 70.2195 61.515 69.102 62.7144C68.8211 63.0158 68.5166 63.0985 68.1233 63.0926C66.7722 63.066 65.421 63.063 64.0699 63.0542C63.8245 63.0542 63.5939 63.0689 63.3987 62.8503C61.2138 60.3983 58.2602 59.2403 55.3154 58.0704C53.6391 57.4028 51.9538 56.7558 50.2804 56.0646C51.123 56.1296 51.9065 56.4368 52.7077 56.6731C55.6229 57.5387 58.5825 58.2654 61.406 59.4235C63.1297 60.1295 64.7292 60.998 65.832 62.5697C66.036 62.8621 66.2932 63.0985 66.5711 62.6878C67.9785 60.6258 70.1486 59.7484 72.3749 59.0276C75.7956 57.9168 79.2548 56.9183 82.6963 55.8755C82.6667 55.9198 82.5307 55.9464 82.6756 56.0143L82.6785 56.0114Z" fill="white"/>
<path d="M82.6786 56.0113C82.5367 55.9434 82.6727 55.9168 82.6993 55.8725C83.5065 55.5829 84.3136 55.2905 85.1207 55.001C85.1444 55.0689 85.1681 55.1398 85.1947 55.2078C84.3579 55.4766 83.5183 55.7425 82.6816 56.0113H82.6786Z" fill="#EFBD44"/>
<path d="M90.2504 53.3438C89.7005 53.7663 89.0352 53.8697 88.234 54.1178C88.8992 53.5211 89.6118 53.5329 90.2415 53.332L90.2504 53.3438Z" fill="#EFBD44"/>
<path d="M63.2184 16.0415L63.1563 16.139C63.1474 16.1094 63.1356 16.0799 63.1267 16.0504C63.1592 16.0504 63.1918 16.0504 63.2243 16.0504L63.2184 16.0415Z" fill="white"/>
</g>
<path d="M4.50137 116.962V121.353H6.54649C8.05024 121.353 9.3936 121.473 10.5766 121.714C11.7595 121.954 12.762 122.345 13.5841 122.887C14.4061 123.408 15.0277 124.1 15.4487 124.962C15.8898 125.804 16.1104 126.836 16.1104 128.059C16.1104 130.325 15.2883 132.019 13.6442 133.142C12.0202 134.245 9.69436 134.796 6.66679 134.796C5.82468 134.796 4.8723 134.746 3.80964 134.646C2.74699 134.566 1.74448 134.415 0.802124 134.195V113.744H14.1555V116.962H4.50137ZM5.82468 131.518C6.04523 131.518 6.29586 131.518 6.57656 131.518C6.85726 131.518 7.16804 131.508 7.50889 131.488C8.13045 131.468 8.72192 131.398 9.28333 131.277C9.86478 131.157 10.366 130.967 10.7871 130.706C11.2282 130.445 11.569 130.105 11.8096 129.684C12.0703 129.262 12.2006 128.731 12.2006 128.09C12.2006 127.368 12.0703 126.776 11.8096 126.315C11.549 125.854 11.168 125.493 10.6668 125.232C10.1655 124.952 9.554 124.761 8.8322 124.661C8.13045 124.541 7.32844 124.48 6.42619 124.48H4.50137V131.458C4.68182 131.478 4.8723 131.498 5.0728 131.518C5.29335 131.518 5.54398 131.518 5.82468 131.518Z" fill="black"/>
<path d="M31.9964 118.856C30.3724 124.831 28.4877 130.245 26.3423 135.097C25.9413 135.999 25.5303 136.771 25.1092 137.413C24.6882 138.054 24.217 138.586 23.6957 139.007C23.1744 139.428 22.5929 139.729 21.9513 139.909C21.3097 140.11 20.5679 140.21 19.7258 140.21C19.1644 140.21 18.603 140.15 18.0416 140.029C17.5002 139.909 17.0892 139.779 16.8085 139.638L17.4701 136.721C18.1919 137.002 18.9037 137.142 19.6055 137.142C20.5478 137.142 21.2796 136.912 21.801 136.45C22.3423 136.009 22.8135 135.318 23.2145 134.375C22.0716 132.17 20.9689 129.764 19.9062 127.157C18.8636 124.551 17.9313 121.784 17.1092 118.856H20.9889C21.1894 119.699 21.43 120.611 21.7107 121.593C22.0115 122.576 22.3323 123.578 22.6731 124.601C23.014 125.603 23.3749 126.606 23.7558 127.608C24.1368 128.611 24.5177 129.543 24.8987 130.405C25.5403 128.621 26.1418 126.726 26.7032 124.721C27.2646 122.696 27.7759 120.741 28.237 118.856H31.9964Z" fill="black"/>
<path d="M38.3891 125.172C38.8502 124.711 39.3515 124.2 39.8928 123.638C40.4342 123.057 40.9655 122.475 41.4868 121.894C42.0282 121.313 42.5394 120.761 43.0206 120.24C43.5018 119.699 43.9028 119.237 44.2237 118.856H48.4943C48.0532 119.378 47.5419 119.949 46.9605 120.571C46.3991 121.192 45.8076 121.834 45.1861 122.496C44.5846 123.137 43.983 123.769 43.3815 124.39C42.8001 124.992 42.2688 125.533 41.7876 126.014C42.4091 126.536 43.0507 127.147 43.7124 127.849C44.3941 128.531 45.0557 129.262 45.6973 130.044C46.359 130.806 46.9705 131.588 47.5319 132.39C48.0933 133.172 48.5645 133.904 48.9455 134.586H44.7349C44.354 133.984 43.9028 133.353 43.3815 132.691C42.8803 132.029 42.349 131.388 41.7876 130.766C41.2262 130.125 40.6547 129.523 40.0733 128.962C39.4918 128.4 38.9304 127.919 38.3891 127.518V134.586H34.75V118.856H38.3891V125.172Z" fill="black"/>
<path d="M57.113 132.029C58.2358 132.029 59.0879 131.969 59.6694 131.849V127.819C59.4689 127.759 59.1781 127.699 58.7972 127.638C58.4162 127.578 57.9952 127.548 57.534 127.548C57.133 127.548 56.722 127.578 56.301 127.638C55.9 127.699 55.529 127.809 55.1882 127.969C54.8674 128.13 54.6067 128.36 54.4062 128.661C54.2057 128.942 54.1055 129.303 54.1055 129.744C54.1055 130.606 54.3761 131.207 54.9175 131.548C55.4588 131.869 56.1907 132.029 57.113 132.029ZM56.8122 118.465C58.0152 118.465 59.0278 118.616 59.8498 118.917C60.6719 119.217 61.3235 119.638 61.8047 120.18C62.306 120.721 62.6568 121.383 62.8573 122.165C63.0779 122.927 63.1882 123.769 63.1882 124.691V134.225C62.6268 134.345 61.7746 134.486 60.6318 134.646C59.509 134.826 58.2358 134.917 56.8122 134.917C55.8699 134.917 55.0077 134.826 54.2258 134.646C53.4438 134.465 52.7721 134.175 52.2107 133.774C51.6694 133.373 51.2383 132.851 50.9175 132.21C50.6167 131.568 50.4664 130.776 50.4664 129.834C50.4664 128.932 50.6368 128.17 50.9776 127.548C51.3385 126.927 51.8197 126.425 52.4213 126.044C53.0228 125.643 53.7145 125.363 54.4964 125.202C55.2984 125.022 56.1305 124.932 56.9927 124.932C57.3937 124.932 57.8147 124.962 58.2558 125.022C58.6969 125.062 59.1681 125.142 59.6694 125.262V124.661C59.6694 124.24 59.6192 123.839 59.519 123.458C59.4187 123.077 59.2383 122.746 58.9776 122.465C58.737 122.165 58.4062 121.934 57.9852 121.774C57.5842 121.613 57.0729 121.533 56.4513 121.533C55.6092 121.533 54.8373 121.593 54.1355 121.714C53.4338 121.834 52.8624 121.974 52.4213 122.135L51.9701 119.187C52.4313 119.027 53.103 118.866 53.9852 118.706C54.8674 118.546 55.8097 118.465 56.8122 118.465Z" fill="black"/>
<path d="M75.765 116.992C75.7049 118.355 75.6347 119.749 75.5545 121.172C75.4743 122.576 75.3239 123.939 75.1033 125.262C74.9028 126.566 74.6021 127.799 74.2011 128.962C73.8001 130.125 73.2487 131.147 72.547 132.029C71.8452 132.892 70.963 133.583 69.9003 134.105C68.8577 134.626 67.5745 134.907 66.0507 134.947L65.6297 131.638C66.3515 131.558 66.983 131.418 67.5244 131.217C68.0658 131.017 68.5369 130.756 68.9379 130.435C69.3389 130.095 69.6898 129.684 69.9906 129.202C70.2913 128.701 70.552 128.12 70.7725 127.458C71.3139 125.894 71.6748 123.939 71.8552 121.593C72.0357 119.247 72.1259 116.631 72.1259 113.744H85.1485V134.586H81.3289V116.992H75.765Z" fill="black"/>
<path d="M102.808 118.856C101.184 124.831 99.2995 130.245 97.1541 135.097C96.7531 135.999 96.3421 136.771 95.921 137.413C95.5 138.054 95.0288 138.586 94.5075 139.007C93.9862 139.428 93.4047 139.729 92.7631 139.909C92.1215 140.11 91.3797 140.21 90.5376 140.21C89.9762 140.21 89.4148 140.15 88.8533 140.029C88.312 139.909 87.901 139.779 87.6203 139.638L88.2819 136.721C89.0037 137.002 89.7155 137.142 90.4173 137.142C91.3596 137.142 92.0914 136.912 92.6127 136.45C93.1541 136.009 93.6253 135.318 94.0263 134.375C92.8834 132.17 91.7807 129.764 90.718 127.157C89.6754 124.551 88.7431 121.784 87.921 118.856H91.8007C92.0012 119.699 92.2418 120.611 92.5225 121.593C92.8233 122.576 93.1441 123.578 93.4849 124.601C93.8258 125.603 94.1867 126.606 94.5676 127.608C94.9486 128.611 95.3295 129.543 95.7105 130.405C96.3521 128.621 96.9536 126.726 97.515 124.721C98.0764 122.696 98.5877 120.741 99.0488 118.856H102.808Z" fill="black"/>
<path d="M109.201 125.172C109.662 124.711 110.163 124.2 110.705 123.638C111.246 123.057 111.777 122.475 112.299 121.894C112.84 121.313 113.351 120.761 113.832 120.24C114.314 119.699 114.715 119.237 115.035 118.856H119.306C118.865 119.378 118.354 119.949 117.772 120.571C117.211 121.192 116.619 121.834 115.998 122.496C115.396 123.137 114.795 123.769 114.193 124.39C113.612 124.992 113.081 125.533 112.599 126.014C113.221 126.536 113.863 127.147 114.524 127.849C115.206 128.531 115.868 129.262 116.509 130.044C117.171 130.806 117.782 131.588 118.344 132.39C118.905 133.172 119.376 133.904 119.757 134.586H115.547C115.166 133.984 114.715 133.353 114.193 132.691C113.692 132.029 113.161 131.388 112.599 130.766C112.038 130.125 111.467 129.523 110.885 128.962C110.304 128.4 109.742 127.919 109.201 127.518V134.586H105.562V118.856H109.201V125.172Z" fill="black"/>
<path d="M127.925 132.029C129.048 132.029 129.9 131.969 130.481 131.849V127.819C130.281 127.759 129.99 127.699 129.609 127.638C129.228 127.578 128.807 127.548 128.346 127.548C127.945 127.548 127.534 127.578 127.113 127.638C126.712 127.699 126.341 127.809 126 127.969C125.679 128.13 125.419 128.36 125.218 128.661C125.018 128.942 124.917 129.303 124.917 129.744C124.917 130.606 125.188 131.207 125.729 131.548C126.271 131.869 127.002 132.029 127.925 132.029ZM127.624 118.465C128.827 118.465 129.84 118.616 130.662 118.917C131.484 119.217 132.135 119.638 132.617 120.18C133.118 120.721 133.469 121.383 133.669 122.165C133.89 122.927 134 123.769 134 124.691V134.225C133.439 134.345 132.586 134.486 131.444 134.646C130.321 134.826 129.048 134.917 127.624 134.917C126.682 134.917 125.82 134.826 125.038 134.646C124.256 134.465 123.584 134.175 123.023 133.774C122.481 133.373 122.05 132.851 121.729 132.21C121.429 131.568 121.278 130.776 121.278 129.834C121.278 128.932 121.449 128.17 121.789 127.548C122.15 126.927 122.632 126.425 123.233 126.044C123.835 125.643 124.526 125.363 125.308 125.202C126.11 125.022 126.942 124.932 127.804 124.932C128.205 124.932 128.627 124.962 129.068 125.022C129.509 125.062 129.98 125.142 130.481 125.262V124.661C130.481 124.24 130.431 123.839 130.331 123.458C130.231 123.077 130.05 122.746 129.789 122.465C129.549 122.165 129.218 121.934 128.797 121.774C128.396 121.613 127.885 121.533 127.263 121.533C126.421 121.533 125.649 121.593 124.947 121.714C124.246 121.834 123.674 121.974 123.233 122.135L122.782 119.187C123.243 119.027 123.915 118.866 124.797 118.706C125.679 118.546 126.622 118.465 127.624 118.465Z" fill="black"/>
<defs>
<clipPath id="clip0_1260_10830">
<rect width="58.6466" height="83.4586" fill="white" transform="translate(38.1555 0.209961)"/>
</clipPath>
</defs>
</svg>
