<svg fill="none" height="85" viewBox="0 0 80 85" width="80" xmlns="http://www.w3.org/2000/svg" xmlns:xlink="http://www.w3.org/1999/xlink"><clipPath id="a"><path d="m18.918 0h42.1622v60h-42.1622z"/></clipPath><g clip-path="url(#a)"><path d="m56.3686 38.199c.8779-.2294 1.7536-.4715 2.6357-.6839.6589-.1593.7291-.0785.5952.5756-.5952 2.9032-1.1861 5.8065-1.7855 8.7098-.644 3.1262-1.3093 6.2482-1.9321 9.3766-.0956.48-.3125.6796-.7652.7858-2.9375.6775-5.9026 1.217-8.8614 1.7862-2.2148.4247-4.4126.9345-6.655 1.2148-.8651.1083-1.6877-.0552-2.5188-.2145-4.6103-.8856-9.2163-1.7861-13.8287-2.6612-.508-.0955-.7312-.3122-.829-.8367-1.0776-5.7301-2.1829-11.4559-3.2733-17.1839-.0765-.3971-.0978-.8049-.1573-1.2042-.0489-.3355.1084-.4035.3996-.3461.6079.121 1.2179.2378 1.8237.4056-.2678-.2272-.5675-.3738-.8906-.4906-.2338-.0849-.4442-.1954-.4761-.5012-.0532-.5288.0723-.6499.5866-.4906 3.4392 1.0576 6.874 2.1217 10.3131 3.1793.1169.0361.2402.051.3593.0744.2295.087.4548.1847.6865.2612 2.5251.8283 5.0928 1.5738 7.0695 3.5064.1998.1954.3656.1317.5421-.034 1.1711-1.0874 2.5974-1.7394 4.0534-2.3277 1.1563-.4672 2.3338-.8792 3.5028-1.3146 1.1266-.2188 2.1978-.6265 3.2925-.9536 2.5634-.7688 5.1204-1.561 7.6838-2.3298.1913-.0574.5123-.2825.5994.0977.068.3016.1276.6647-.3379.8176-.6313.206-1.2626.4269-1.8386.7774-.4528.1444-.9629.1359-1.4433.5649.5761-.1763 1.0543-.2527 1.4496-.5564zm-5.4264 1.818c-2.4742.7518-4.9611 1.4697-7.4224 2.2661-1.5984.5182-3.1607 1.149-4.1725 2.6314-.2019.2952-.3847.1253-.5313-.0849-.7929-1.1299-1.9449-1.7543-3.182-2.2619-2.0299-.8347-4.1575-1.355-6.2533-1.9773-.576-.1699-1.1393-.3908-1.7451-.4375 1.2031.497 2.4125.9621 3.6198 1.4421 2.1171.841 4.2405 1.6736 5.8112 3.4363.1403.1572.3061.1466.4825.1466.9714.0063 1.9428.0063 2.9142.0276.2826.0064.5016-.0552.7035-.2719.8035-.8622 1.7642-1.5036 2.8227-2.0176 1.0479-.5097 2.1319-.9302 3.2117-1.3614 1.2371-.4927 2.4826-.9599 3.7261-1.4399.6015-.1933 1.2052-.3844 1.8067-.5777-.017-.0488-.034-.0998-.0532-.1487-.5802.2082-1.1584.4163-1.7386.6266z" fill="#09090b"/><path d="m36.938 11.3814c.1297.017.1807-.0934.2487-.1635 3.3095-3.41297 6.908-6.50737 10.5724-9.52744.3933-.32495.7971-.6414 1.201-.951473.119-.091325.255-.259106.4144-.138049.1743.129553.0256.293088-.0446.422642-1.0245 1.89869-2.0554 3.79526-3.0841 5.69183-1.0564 1.94967-2.1107 3.89719-3.165 5.84689-.0489.0913-.0829.189-.1275.2909.17.1105.2721-.0191.3783-.0828 3.8388-2.3001 7.6775-4.60442 11.5141-6.90876.6504-.39079 1.2902-.79643 1.9342-1.19571.1467-.09133.3167-.26973.4676-.12318.1935.18902-.0361.35255-.1424.4906-1.22 1.5695-2.4465 3.13263-3.6729 4.69576-1.6707 2.13229-3.2797 4.31139-4.8717 6.50099-.0468.0659-.1998.1041-.1127.2421.1084.1721.2253.0191.3167-.0085 2.387-.6881 4.8016-1.2679 7.2205-1.8243 1.4751-.3398 2.9375-.7391 4.436-.9685.0701-.0106.1381-.0276.2083-.0318.1551-.0085.3592-.0701.4336.0998.0808.1848-.1254.2633-.2466.3504-2.98 2.1408-5.9621 4.2795-8.9421 6.4203-.2785.1997-.5548.4035-.9268.6733 1.4709.2761 2.8143.5267 4.1576.7837 1.6983.3228 3.3966.6477 5.0949.9705.1913.0361.4464.0446.4485.274.0021.2081-.2699.206-.423.2464-2.7037.7412-5.3818 1.561-8.0409 2.4487-.4294.1445-.4485.2167-.1403.5459 1.0267 1.0916 2.0214 2.2151 3.0247 3.3301.0892.0998.2423.1996.1785.3547-.0765.1848-.2699.1338-.423.1338-1.7132.0106-3.4285.0148-5.1417.0255-.1934 0-.3868.017-.5802.0255-.1488-.2337-.3592-.3016-.6313-.2846-.3528.0233-.7099-.0276-1.0585.0127-.5165.0616-.5973-.1487-.5888-.6265.017-.8559.2274-1.7437-.1509-2.5635-.8949-1.939-1.8237-3.8632-2.742-5.7916-.0743-.1551-.1317-.3759-.3507-.3356-.2232.0425-.1743.2782-.1976.4418-.219 1.5015-.4294 3.003-.6483 4.5046-.0255.1763 0 .378-.1722.5522-.0935-.1253-.1764-.2145-.2359-.3186-1.9088-3.2792-3.8175-6.5583-5.7284-9.8354-.085-.1444-.1445-.3717-.3549-.3462-.2253.0276-.1956.2655-.2296.429-.3634 1.7458-.7184 3.4916-1.0861 5.2374-.0468.223-.051.4693-.202.6753-.1721-.1338-.1828-.2994-.2359-.4481-.3953-1.1129-.7864-2.2257-1.1903-3.3344-.0553-.1529-.0361-.4162-.2551-.412-.2125.0043-.2061.2527-.2508.4163-.3677 1.4187-.5887 2.8692-.8417 4.3092-.3975 2.2597-.6887 4.5365-.9458 6.8175-.0277.2484-.0383.4523-.3784.4311-.6504-.0425-1.3029-.0637-1.9555-.0913-.1552-.7646-.1296-1.544-.1552-2.3171-.017-.5182-.1913-.5883-.6546-.5458-2.3211.2145-4.6422.3971-6.9654.5904-.1233.0106-.2487.0276-.3698.017-.2657-.0213-.2998-.1572-.1361-.3462.1743-.1996.3571-.3908.5442-.5798 1.5303-1.5419 3.0586-3.088 4.6017-4.6172.2445-.2421.2997-.395.0617-.6881-2.1723-2.6654-4.3276-5.3435-6.4872-8.0196-.0914-.1146-.289-.2251-.1381-.3929.1275-.1444.3082-.0233.4442.0361 1.811.7859 3.6198 1.5738 5.4244 2.3766 1.1839.5288 2.3551 1.0831 3.6092 1.6608-.3401-1.5376-.659-2.9946-.9863-4.4515-.474-2.1132-.9544-4.2264-1.4305-6.3396-.0106-.05097-.0234-.10619-.0191-.15716.0085-.14442-.1467-.32707.0616-.42476.202-.09345.2742.09982.3677.21875.7737.98333 1.5432 1.96878 2.3148 2.95423.6738.86015 1.3624 1.70964 2.0213 2.58254.219.2889.3189.2039.474-.0382 2.4168-3.79951 5.1141-7.39939 7.805-11.003506.1084-.144419.1892-.348306.389-.2612295.2189.0976955.0871.3122015.051.4736115-.7864 3.449084-1.5835 6.898164-2.5018 10.315424-.0488.1847-.2019.3716-.0531.5798-.0234 0-.0468 0-.0701 0 .0063.0212.0148.0424.0212.0637l.0447-.0701z" fill="#09090b"/><path d="m28.6734 29.7632c.6525.0297 1.3051.0488 1.9555.0913.3401.0234.3507-.1826.3783-.4311.2551-2.281.5484-4.5577.9459-6.8175.2529-1.442.474-2.8905.8417-4.3092.0425-.1635.0362-.4141.2508-.4163.2168-.0042.1998.2591.2551.4121.4039 1.1086.7949 2.2236 1.1903 3.3343.0531.1466.0638.3122.2359.4482.1488-.206.1531-.4524.202-.6754.3656-1.7437.7226-3.4916 1.0861-5.2373.034-.1636.0043-.4014.2296-.429.2125-.0255.272.1996.3549.3461 1.9109 3.2771 3.8175 6.5584 5.7284 9.8354.0595.1041.1424.1933.2359.3186.17-.1741.1467-.3759.1722-.5522.2189-1.5015.4293-3.0031.6482-4.5046.0234-.1635-.0255-.3993.1977-.4418.219-.0403.2785.1806.3507.3356.9183 1.9284 1.8471 3.8526 2.742 5.7917.3783.8198.1658 1.7075.1509 2.5634-.0085.4779.0723.6881.5888.6265.3486-.0403.7078.0085 1.0585-.0127.2742-.017.4825.051.6313.2846.0786 1.6205-.6738 2.9117-1.6154 4.1393-.9204 1.2-2.1128 2.0622-3.3818 2.8438-.102.0616-.2338.0871-.2869.257 1.2328.4757 2.4231 1.0258 3.15 2.2215-1.169.4354-2.3466.8474-3.5029 1.3146-1.4559.5883-2.8822 1.2404-4.0534 2.3277-.1785.1657-.3422.2294-.542.034-1.9767-1.9326-4.5444-2.676-7.0695-3.5064-.2317-.0765-.457-.1742-.6866-.2612.2168-.548.7419-.7795 1.167-1.1065.5399-.4121 1.1669-.686 1.8747-.9791-.8268-.5522-1.6027-.9918-2.3041-1.5419-1.2519-.9855-2.2934-2.1281-2.8397-3.6572-.3082-.858-.3847-1.7437-.3358-2.6463z" fill="#efbd44"/><path d="m50.9284 40.1168c-1.2414.4779-2.489.9472-3.7261 1.4399-1.0798.4312-2.1638.8517-3.2117 1.3614-1.0606.514-2.0193 1.1554-2.8227 2.0176-.2019.2167-.4209.2761-.7036.2719-.9713-.0191-1.9427-.0212-2.9141-.0276-.1764 0-.3422.0106-.4825-.1466-1.5707-1.7627-3.6942-2.5953-5.8112-3.4363-1.2052-.48-2.4167-.9451-3.6198-1.4421.6058.0468 1.1691.2676 1.7451.4375 2.0958.6223 4.2234 1.1448 6.2533 1.9773 1.2392.5076 2.3891 1.132 3.1819 2.2619.1467.2102.3316.3801.5314.0849 1.0118-1.4824 2.5719-2.1132 4.1725-2.6314 2.4592-.7985 4.9461-1.5164 7.4202-2.2661-.0212.0319-.119.051-.0149.0998z" fill="#fff"/><path d="m50.9246 40.1168c-.102-.0488-.0042-.0679.0149-.0998.5803-.2081 1.1606-.4184 1.7408-.6265.017.0488.034.0998.0532.1486-.6015.1933-1.2052.3845-1.8067.5777z" fill="#efbd44"/><path d="m56.3715 38.199c-.3954.3037-.8736.378-1.4496.5564.4782-.429.9905-.4205 1.4432-.5649z" fill="#efbd44"/><path d="m36.937 11.3815-.0447.0701c-.0063-.0212-.0148-.0424-.0212-.0637h.0701z" fill="#fff"/></g><path d="m1.44 81v-11.424h7.216v2h-4.8v2.384h.96c1.07733 0 1.95733.1493 2.64.448.69333.2987 1.20533.7093 1.536 1.232s.496 1.12.496 1.792c0 .7467-.16533 1.3867-.496 1.92s-.84267.944-1.536 1.232c-.69333.2773-1.58933.416-2.688.416zm3.232-1.984c.736 0 1.312-.1173 1.728-.352.42667-.2347.64-.6453.64-1.232 0-.4053-.10667-.7147-.32-.928-.20267-.2133-.496-.3573-.88-.432-.37333-.0853-.82667-.128-1.36-.128h-.624v3.072zm5.5311-6.752h2.608l1.648 4.912c.0534.16.096.32.128.48.0427.16.0747.3253.096.496.032.1707.0534.352.064.544h.048c.032-.2773.0747-.5387.128-.784.064-.256.1334-.5013.208-.736l1.616-4.912h2.56l-3.696 9.856c-.224.5973-.5173 1.0987-.88 1.504-.352.4053-.7626.7093-1.232.912-.4693.2027-.9813.304-1.536.304-.2666 0-.5013-.016-.704-.048-.192-.0213-.3626-.048-.512-.08v-1.888c.1174.0213.256.0427.416.064.1707.0213.3467.032.528.032.3307 0 .6134-.0693.848-.208.2454-.1387.448-.3307.608-.576.16-.2347.288-.4907.384-.768l.144-.432zm16.0854 0h2.624l-3.456 4.192 3.76 4.544h-2.704l-3.568-4.432v4.432h-2.384v-8.736h2.384v4.24zm7.7623-.176c1.1733 0 2.0693.256 2.688.768.6293.5013.944 1.2747.944 2.32v5.824h-1.664l-.464-1.184h-.064c-.2454.3093-.5014.5653-.768.768-.256.2027-.5547.3467-.896.432-.3307.096-.7414.144-1.232.144-.512 0-.976-.096-1.392-.288-.4054-.2027-.7254-.5067-.96-.912-.2347-.416-.352-.9387-.352-1.568 0-.928.3253-1.6107.976-2.048.6506-.448 1.6266-.6933 2.928-.736l1.52-.048v-.384c0-.4587-.1227-.7947-.368-1.008-.2347-.2133-.5654-.32-.992-.32-.4267 0-.8427.064-1.248.192-.4054.1173-.8107.2667-1.216.448l-.784-1.616c.4693-.2453.9866-.4373 1.552-.576.576-.1387 1.1733-.208 1.792-.208zm.336 4.896c-.768.0213-1.3014.16-1.6.416-.2987.256-.448.592-.448 1.008 0 .3627.1066.624.32.784.2133.1493.4906.224.832.224.512 0 .944-.1493 1.296-.448.352-.3093.528-.7413.528-1.296v-.72zm14.9682 4.016h-2.416v-9.408h-2.8c-.064.4907-.1333 1.024-.208 1.6-.064.576-.1387 1.1627-.224 1.76-.0747.5867-.1547 1.1467-.24 1.68-.0853.5227-.1707.9867-.256 1.392-.1387.6613-.3253 1.2267-.56 1.696-.224.4693-.5387.8267-.944 1.072-.3947.2453-.912.368-1.552.368-.2133 0-.416-.016-.608-.048s-.3733-.0747-.544-.128v-1.984c.1387.0427.272.08.4.112.1387.032.288.048.448.048.2133 0 .3893-.0693.528-.208s.2613-.3733.368-.704c.1067-.3413.2133-.8107.32-1.408.0533-.256.1173-.6187.192-1.088.0747-.48.16-1.04.256-1.68.1067-.6507.2133-1.3547.32-2.112.1067-.768.208-1.5627.304-2.384h7.216zm1.4419-8.736h2.608l1.648 4.912c.0533.16.096.32.128.48.0426.16.0746.3253.096.496.032.1707.0533.352.064.544h.048c.032-.2773.0746-.5387.128-.784.064-.256.1333-.5013.208-.736l1.616-4.912h2.56l-3.696 9.856c-.224.5973-.5174 1.0987-.88 1.504-.352.4053-.7627.7093-1.232.912-.4694.2027-.9814.304-1.536.304-.2667 0-.5014-.016-.704-.048-.192-.0213-.3627-.048-.512-.08v-1.888c.1173.0213.256.0427.416.064.1706.0213.3466.032.528.032.3306 0 .6133-.0693.848-.208.2453-.1387.448-.3307.608-.576.16-.2347.288-.4907.384-.768l.144-.432zm16.0854 0h2.624l-3.456 4.192 3.76 4.544h-2.704l-3.568-4.432v4.432h-2.384v-8.736h2.384v4.24zm7.7622-.176c1.1733 0 2.0693.256 2.688.768.6293.5013.944 1.2747.944 2.32v5.824h-1.664l-.464-1.184h-.064c-.2453.3093-.5013.5653-.768.768-.256.2027-.5547.3467-.896.432-.3307.096-.7413.144-1.232.144-.512 0-.976-.096-1.392-.288-.4053-.2027-.7253-.5067-.96-.912-.2347-.416-.352-.9387-.352-1.568 0-.928.3253-1.6107.976-2.048.6507-.448 1.6267-.6933 2.928-.736l1.52-.048v-.384c0-.4587-.1227-.7947-.368-1.008-.2347-.2133-.5653-.32-.992-.32s-.8427.064-1.248.192c-.4053.1173-.8107.2667-1.216.448l-.784-1.616c.4693-.2453.9867-.4373 1.552-.576.576-.1387 1.1733-.208 1.792-.208zm.336 4.896c-.768.0213-1.3013.16-1.6.416s-.448.592-.448 1.008c0 .3627.1067.624.32.784.2133.1493.4907.224.832.224.512 0 .944-.1493 1.296-.448.352-.3093.528-.7413.528-1.296v-.72z" fill="#09090b"/></svg>